<?xml version="1.0" standalone="no"?>
<!DOCTYPE svg PUBLIC "-//W3C//DTD SVG 1.1//EN" "http://www.w3.org/Graphics/SVG/1.1/DTD/svg11.dtd" >
<svg xmlns="http://www.w3.org/2000/svg">
<metadata>
Created by FontPrep 20130207 at Sun Sep 13 09:53:43 2015
 By Pixeloid Office
Copyright (c) 2014 by Oscar Boskovitz. All rights reserved.
</metadata>
<defs>
<font id="1e998e719e2b0e48a60aa4c63ea81f5a" horiz-adv-x='1024' >
  <font-face 
    font-family="Pilvax-Black"
    font-weight="900"
    font-stretch="normal"
    units-per-em="2048"
    panose-1="2 0 5 6 0 0 0 2 0 4"
    ascent="1536"
    descent="-512"
    x-height="1126"
    cap-height="1372"
    bbox="-49 -393 2441 1839"
    underline-thickness="102"
    underline-position="-102"
    unicode-range="U+000D-FB06"
  />
<missing-glyph horiz-adv-x="757" 
d="M717 1495v-1720h-676v1720h676zM381 711l237 743h-479l238 -743h4zM672 -184v1638h-4l-265 -819l265 -819h4zM86 1454v-1638h4l264 819l-264 819h-4zM139 -184h479l-237 743h-4z" />
    <glyph glyph-name="f_f" unicode="ff" horiz-adv-x="1458" 
d="M803 1247v-22h-221v168q0 43 -37 43q-45 0 -45 -56v-254h356v29q0 182 104 269t291 87q242 0 312 -143q23 -47 22 -108v-35h-262v184q0 66 -55 66q-68 0 -68 -84v-265h295v-45h-295v-1044h115v-37h-541v37h82v1044h-356v-1044h114v-37h-540v37h82v1044h-90v45h90v29
q0 162 93 239q93 76 276 76t249 -108q29 -47 29 -115z" />
    <glyph glyph-name="fi" unicode="fi" horiz-adv-x="1273" 
d="M946 1276v-31h-282v141q0 43 -16 66t-58 23q-90 0 -90 -113v-236h618v-1089h82v-37h-500v37h74v1044h-274v-1044h98v-37h-524v37h82v1044h-90v45h90v9q0 193 110 285t307 91q129 0 241 -44q60 -25 96 -73t36 -118z" />
    <glyph glyph-name="fl" unicode="fl" horiz-adv-x="1302" 
d="M597 1475q-57 0 -77 -26t-20 -83v-240h196v-45h-196v-1044h114v-37h-540v37h82v1044h-90v45h90v9q0 377 436 376q307 0 418 -174q98 39 129 158h45v-1458h82v-37h-508v37h82v1216q0 26 -20 70q-20 45 -43 75q-24 30 -73 54t-107 23z" />
    <glyph glyph-name="f_f_i" unicode="ffi" horiz-adv-x="1974" 
d="M1901 37v-37h-500v37h74v1044h-275v-1044h98v-37h-524v37h82v1044h-356v-1044h114v-37h-540v37h82v1044h-90v45h90v29q0 162 93 239q93 76 276 76t249 -108q29 -47 29 -115v-22h-221v168q0 43 -37 43q-45 0 -45 -56v-254h356v9q0 193 111 285t307 91q130 0 215 -34
t122 -82q36 -49 36 -119v-31h-283v141q0 43 -15 66t-59 23q-90 0 -90 -113v-236h619v-1089h82z" />
    <glyph glyph-name="f_f_l" unicode="ffl" horiz-adv-x="2002" 
d="M1297 1475q-58 0 -77 -26t-20 -83v-240h197v-45h-197v-1044h115v-37h-541v37h82v1044h-356v-1044h114v-37h-540v37h82v1044h-90v45h90v29q0 162 93 239q93 76 276 76t249 -108q29 -47 29 -115v-22h-221v168q0 43 -37 43q-45 0 -45 -56v-254h356v9q0 377 436 376
q307 0 418 -174q98 39 129 158h45v-1458h82v-37h-508v37h82v1216q0 25 -19 70t-43 75t-74 54t-107 23z" />
    <glyph glyph-name="s_t" unicode="st" horiz-adv-x="1701" 
d="M1456 1126h201v-45h-201v-907q0 -36 3 -60t23 -44t54 -21q100 0 100 162v248h41v-256q0 -125 -62 -172q-61 -47 -201 -47t-221 61t-81 236v800h-82v45h174q104 0 148 62t45 135q0 152 -172 152q-172 -1 -260 -107t-88 -299v-270h-316v233q0 74 -61 74t-62 -78v-127
q0 -47 10 -72t50 -43l241 -122q164 -86 164 -285v-66q0 -330 -387 -329q-143 0 -225 47t-115 149h-4v-196h-41v360h324v-250q0 -74 61 -74t62 76v156q0 49 -12 76t-52 47l-244 123q-139 70 -139 254v79q0 311 373 312q137 0 214 -46t105 -151h4v127q-1 209 99 324t299 114
q125 0 180 -52t55 -136l-4 -186v-11z" />
    <glyph glyph-name="f_b" unicode="fb" horiz-adv-x="1777" 
d="M840 0v1253q0 26 -20 70q-20 45 -43 75q-25 30 -73 54t-106 23q-58 0 -78 -26t-20 -83v-240h196v-45h-196v-1044h114v-37h-540v37h82v1044h-90v45h90v9q0 377 436 376q307 0 418 -174q98 39 129 158h45v-463h4q72 111 233 111q238 0 238 -264v-537q1 -184 -105 -271
t-288 -87q-270 0 -381 168h-4v-152h-41zM1311 98v848q0 78 -62 78q-33 0 -49 -24t-16 -52v-854q0 -74 64 -74t63 78z" />
    <glyph glyph-name="f_h" unicode="fh" horiz-adv-x="1781" 
d="M840 37v1216q0 26 -20 70q-20 45 -43 75q-25 30 -73 54t-106 23q-58 0 -78 -26t-20 -83v-240h196v-45h-196v-1044h114v-37h-540v37h82v1044h-90v45h90v9q0 377 436 376q307 0 418 -174q98 39 129 158h45v-463h4q72 111 233 111q119 -1 170 -63t51 -185v-858h82v-37h-426
v958q0 66 -49 66q-31 0 -48 -24t-17 -52v-948h-426v37h82z" />
    <glyph glyph-name="f_j" unicode="fj" horiz-adv-x="1265" 
d="M1118 1126v-1122q0 -188 -80 -280t-264 -93h-156v37h23q73 0 103 39t30 119v1255h-274v-1044h98v-37h-524v37h82v1044h-90v45h90v9q0 193 110 285t307 91q129 0 241 -44q60 -25 96 -73t36 -118v-31h-282v141q0 43 -16 66t-58 23q-90 0 -90 -113v-236h618z" />
    <glyph glyph-name="f_k" unicode="fk" horiz-adv-x="1785" 
d="M840 37v1216q0 26 -20 70q-20 45 -43 75q-25 30 -73 54t-106 23q-58 0 -78 -26t-20 -83v-240h196v-45h-196v-1044h114v-37h-540v37h82v1044h-90v45h90v9q0 377 436 376q307 0 418 -174q98 39 129 158h45v-795h61l324 390h-119v36h270v-36h-86l-327 -390h18q154 0 215 -42
t62 -189v-344q0 -68 40 -68q57 0 58 101v235h41v-233q0 -100 -49 -138t-152 -38q-258 0 -258 206v383q0 90 -76 91h-22v-627h61v-37h-487v37h82z" />
    <glyph glyph-name="f_t" unicode="ft" horiz-adv-x="1363" 
d="M803 1274v-49h-221v207q0 43 -37 43q-45 0 -45 -56v-293h291q250 0 274 222h53v-222h201v-45h-201v-907q0 -36 3 -60t23 -44t54 -21q100 0 100 162v248h41v-256q0 -125 -62 -172q-61 -47 -201 -47t-221 61t-81 236v800h-274v-1044h114v-37h-540v37h82v1044h-90v45h90v50
q0 172 93 254t257 81q297 1 297 -237z" />
    <glyph glyph-name="f_iacute" unicode="f&#xed;" horiz-adv-x="1298" 
d="M1225 1368l-348 -151l-17 16l291 237zM803 1274v-49h-221v207q0 43 -37 43q-45 0 -45 -56v-293h643v-1089h82v-37h-500v37h74v1044h-299v-1044h98v-37h-524v37h82v1044h-90v45h90v50q0 172 93 254t257 81q297 1 297 -237z" />
    <glyph glyph-name="f_f_b" unicode="ffb" horiz-adv-x="2478" 
d="M1540 0v1253q0 25 -19 70t-43 75t-73 54t-107 23q-58 0 -78 -26q-19 -26 -20 -83v-240h197v-45h-197v-1044h115v-37h-541v37h82v1044h-356v-1044h114v-37h-540v37h82v1044h-90v45h90v29q0 162 93 239q93 76 276 76t249 -108q29 -47 29 -115v-22h-221v168q0 43 -37 43
q-45 0 -45 -56v-254h356v9q0 377 436 376q307 0 418 -174q98 39 129 158h45v-463h4q72 111 234 111q238 0 237 -264v-537q0 -184 -105 -271t-288 -87q-270 0 -381 168h-4v-152h-41zM2011 98v848q0 78 -61 78q-33 0 -49 -24t-17 -52v-854q0 -74 64 -74t63 78z" />
    <glyph glyph-name="f_f_h" unicode="ffh" horiz-adv-x="2482" 
d="M1540 37v1216q0 25 -19 70t-43 75t-73 54t-107 23q-58 0 -78 -26q-19 -26 -20 -83v-240h197v-45h-197v-1044h115v-37h-541v37h82v1044h-356v-1044h114v-37h-540v37h82v1044h-90v45h90v29q0 162 93 239q93 76 276 76t249 -108q29 -47 29 -115v-22h-221v168q0 43 -37 43
q-45 0 -45 -56v-254h356v9q0 377 436 376q307 0 418 -174q98 39 129 158h45v-463h4q72 111 234 111q119 -1 170 -63t51 -185v-858h82v-37h-426v958q0 66 -49 66q-31 0 -48 -24t-18 -52v-948h-426v37h82z" />
    <glyph glyph-name="f_f_j" unicode="ffj" horiz-adv-x="1966" 
d="M1819 1126v-1122q0 -188 -80 -280t-264 -93h-156v37h22q74 0 104 39t30 119v1255h-275v-1044h98v-37h-524v37h82v1044h-356v-1044h114v-37h-540v37h82v1044h-90v45h90v29q0 162 93 239q93 76 276 76t249 -108q29 -47 29 -115v-22h-221v168q0 43 -37 43q-45 0 -45 -56
v-254h356v9q0 193 111 285t307 91q130 0 215 -34t122 -82q36 -49 36 -119v-31h-283v141q0 43 -15 66t-59 23q-90 0 -90 -113v-236h619z" />
    <glyph glyph-name="f_f_k" unicode="ffk" horiz-adv-x="2486" 
d="M1540 37v1216q0 25 -19 70t-43 75t-73 54t-107 23q-58 0 -78 -26q-19 -26 -20 -83v-240h197v-45h-197v-1044h115v-37h-541v37h82v1044h-356v-1044h114v-37h-540v37h82v1044h-90v45h90v29q0 162 93 239q93 76 276 76t249 -108q29 -47 29 -115v-22h-221v168q0 43 -37 43
q-45 0 -45 -56v-254h356v9q0 377 436 376q307 0 418 -174q98 39 129 158h45v-795h62l323 390h-119v36h271v-36h-86l-328 -390h18q153 0 215 -42t62 -189v-344q0 -68 41 -68q57 0 57 101v235h41v-233q0 -100 -49 -138t-151 -38q-258 0 -259 206v383q0 90 -75 91h-23v-627h62
v-37h-488v37h82z" />
    <glyph glyph-name="f_f_t" unicode="fft" horiz-adv-x="2064" 
d="M1503 1274v-49h-221v207q0 43 -37 43q-45 0 -45 -56v-293h291q250 0 274 222h54v-222h200v-45h-200v-907q0 -36 3 -60t22 -44t54 -21q100 0 101 162v248h41v-256q0 -125 -62 -172t-202 -47q-139 0 -221 61q-81 61 -80 236v800h-275v-1044h115v-37h-541v37h82v1044h-356
v-1044h114v-37h-540v37h82v1044h-90v45h90v29q0 162 93 239q93 76 276 76t249 -108q29 -47 29 -115v-22h-221v168q0 43 -37 43q-45 0 -45 -56v-254h356v50q0 172 93 254t257 81q297 1 297 -237z" />
    <glyph glyph-name="g_i" unicode="gi" horiz-adv-x="1736" 
d="M1550 1245h-282v141q0 43 -16 66t-58 23q-143 0 -214 -116t-71 -376v-283q0 -356 -397 -356h-197q-86 0 -86 -51q0 -23 15 -34t57 -11h371q156 0 234 -62t77 -202q0 -197 -122 -283t-302 -86q-96 0 -162 8q-175 21 -247 119q-43 57 -60 147v5h336v-23q0 -133 33 -176
t147 -43q217 0 217 186q0 76 -32 104q-33 28 -109 27h-217q-215 0 -277 48q-27 22 -48 65q-22 43 -21 106q0 193 219 193v4q-223 59 -223 315v84q0 184 105 272t292 87q258 0 340 -209h4v49q0 299 95 414t276 114q77 0 143 -13t123 -62t57 -129v-62zM1663 37v-37h-508v37h82
v1053h-82v36h426v-1089h82zM565 446v596q0 63 -53 64q-53 0 -53 -66v-596q0 -63 53 -63q53 -1 53 65z" />
    <glyph glyph-name="i_p" unicode="ip" horiz-adv-x="1753" 
d="M1286 180v766q0 78 -61 78q-33 0 -49 -23t-17 -53v-770q1 -32 17 -54t49 -22q61 0 61 78zM606 37v-37h-508v37h82v1053h-82v36h426v-1089h82zM733 1126h146q205 0 204 142q0 207 -385 207q-129 0 -167 -25t-37 -96v-109h-283v29q0 131 125 184t375 53q444 0 444 -299
v-186h4q70 117 238 117q238 0 237 -264v-631q0 -264 -237 -264q-162 0 -234 110h-4v-426h98v-37h-524v37h82v1422h-82v36z" />
    <glyph glyph-name="i_t" unicode="it" horiz-adv-x="1384" 
d="M1139 1212v-86h200v-45h-200v-907q0 -36 3 -60t22 -44t55 -21q100 0 100 162v248h41v-256q0 -125 -62 -172t-202 -47q-139 0 -220 61t-81 236v800h-82v45h149q205 0 205 142q0 207 -365 207q-128 0 -168 -25t-40 -96v-109h-283v29q0 131 127 184t377 53q424 0 424 -299z
M606 37v-37h-508v37h82v1053h-82v36h426v-1089h82z" />
    <glyph glyph-name="c_h" unicode="ch" horiz-adv-x="2064" 
d="M1413 1495h53v-463h4q72 111 234 111q119 -1 170 -63t51 -185v-858h82v-37h-426v958q0 66 -49 66q-31 0 -48 -24t-18 -52v-948h-426v37h82v1306q-96 0 -163 -40q-84 -52 -82 -234v-393h-291v366q0 63 -56 64q-59 0 -59 -76v-835q0 -158 150 -158q106 0 162 71t57 185v108
h45v-104q0 -313 -357 -313q-186 0 -298 83t-111 265v448q0 182 106 272t283 91q231 0 315 -176h4v106q0 121 45 206q26 49 92 79t129 33q63 2 115 2h95q63 0 87 25q23 26 23 77z" />
    <glyph glyph-name="c_k" unicode="ck" horiz-adv-x="2068" 
d="M1413 1495h53v-795h62l323 390h-118v36h270v-36h-86l-328 -390h19q154 0 215 -42t61 -189v-344q0 -68 41 -68q57 0 57 101v235h41v-233q0 -100 -49 -138t-151 -38q-258 0 -258 206v383q0 90 -76 91h-23v-627h62v-37h-488v37h82v1306q-96 0 -163 -40q-84 -52 -82 -234
v-393h-291v366q0 63 -56 64q-59 0 -59 -76v-835q0 -158 150 -158q106 0 162 71t57 185v108h45v-104q0 -313 -357 -313q-186 0 -298 83t-111 265v448q0 182 106 272t283 91q231 0 315 -176h4v106q0 121 45 206q26 49 92 79t129 33q63 2 115 2h95q63 0 87 25q23 26 23 77z" />
    <glyph glyph-name="c_t" unicode="ct" horiz-adv-x="1679" 
d="M1434 1126h200v-45h-200v-907q0 -36 3 -60t22 -44t54 -21q100 0 101 162v248h41v-256q-1 -125 -63 -172t-201 -47t-221 61q-81 61 -80 236v800h-82v45h174q104 0 148 62t44 135q0 152 -164 152q-164 1 -248 -105t-85 -301v-393h-291v366q0 63 -56 64q-59 0 -59 -76v-835
q0 -158 150 -158q106 0 162 71t57 185v108h45v-104q0 -313 -357 -313q-186 0 -298 83t-111 265v448q0 182 106 272t283 91q231 0 315 -176h4v106q-1 209 97 324t286 114q121 0 174 -52t54 -136l-4 -186v-11z" />
    <glyph glyph-name="s_h" unicode="sh" horiz-adv-x="2091" 
d="M827 946v127q0 199 102 260q94 60 258 60h142q63 -1 87 25t24 77h53v-463h4q72 111 234 111q119 -1 170 -63t51 -185v-858h82v-37h-426v958q0 66 -49 66q-31 0 -49 -24t-17 -52v-948h-426v37h82v1306q-113 0 -184 -41q-90 -54 -88 -233v-270h-316v233q0 74 -61 74
t-62 -78v-127q0 -47 10 -72t50 -43l241 -122q164 -86 164 -285v-66q0 -330 -387 -329q-143 0 -225 47t-115 149h-4v-196h-41v360h324v-250q0 -74 61 -74t62 76v156q0 49 -12 76t-52 47l-244 123q-139 70 -139 254v79q0 311 373 312q137 0 214 -46t105 -151h4z" />
    <glyph glyph-name="s_k" unicode="sk" horiz-adv-x="2095" 
d="M1149 37v1306q-113 0 -184 -41q-90 -54 -88 -233v-270h-316v233q0 74 -61 74t-62 -78v-127q0 -49 10 -73t50 -42l241 -122q164 -86 164 -285v-66q0 -330 -387 -329q-143 0 -225 47t-115 149h-4v-196h-41v360h324v-250q0 -74 61 -74t62 76v156q0 49 -12 76t-52 47
l-244 123q-139 70 -139 254v79q0 311 373 312q137 0 214 -46t105 -151h4v127q0 199 102 260q94 60 258 60h142q63 -1 87 25t24 77h53v-795h61l324 390h-119v36h271v-36h-86l-328 -390h18q154 0 215 -42t62 -189v-344q0 -68 41 -68q57 0 57 101v235h41v-233q0 -100 -49 -138
t-152 -38q-258 0 -258 206v383q0 90 -75 91h-23v-627h61v-37h-487v37h82z" />
    <glyph glyph-name="s_p" unicode="sp" horiz-adv-x="2078" 
d="M1481 1026h4q70 117 237 117q238 0 238 -264v-631q0 -264 -238 -264q-162 0 -233 110h-4v-426h98v-37h-524v37h82v1422h-82v36h166q197 0 196 187q0 162 -196 162q-197 -1 -273 -99t-75 -305v-272h-316v233q0 74 -61 74t-62 -78v-127q0 -51 10 -74t50 -41l241 -122
q164 -86 164 -285v-66q0 -330 -387 -329q-143 0 -225 47t-115 149h-4v-196h-41v360h324v-250q0 -74 61 -74t62 76v156q0 49 -12 76t-52 47l-244 123q-139 70 -139 254v79q0 311 373 312q137 0 214 -46t105 -151h4v129q0 219 87 328t294 108q277 1 277 -198l-4 -187v-100z
M1612 180v766q0 78 -62 78q-33 0 -49 -23t-16 -53v-770q0 -32 16 -54t49 -22q62 0 62 78z" />
    <glyph glyph-name="t_t" unicode="tt" horiz-adv-x="1429" 
d="M1405 459v-256q-1 -125 -63 -172t-201 -47t-220 61t-81 236v800h-357v-907q0 -36 3 -60q2 -24 22 -44t55 -21q100 0 101 162v207h41v-215q-1 -125 -63 -172t-201 -47t-221 61q-81 61 -81 236v800h-82v45h99q250 0 274 222h53v-222h373q250 0 274 222h54v-222h200v-45
h-200v-907q0 -36 3 -60t22 -44t55 -21q100 0 100 162v248h41z" />
    <glyph glyph-name="T_h" unicode="Th" horiz-adv-x="1951" 
d="M1300 1495h54v-463h4q72 111 233 111q119 -1 170 -63t51 -185v-858h82v-37h-426v958q0 66 -49 66q-31 0 -48 -24t-17 -52v-948h-426v37h82v1245h-336v-1245h98v-37h-565v37h98v1245h-219v-287h-45v377h1126q76 0 105 31q28 31 28 92z" />
    <glyph glyph-name="Tcaron_h" unicode="&#x164;h" horiz-adv-x="1951" 
d="M483 1556h4l222 103l16 -17l-221 -188h-37l-223 188l16 17zM1300 1495h54v-463h4q72 111 233 111q119 -1 170 -63t51 -185v-858h82v-37h-426v958q0 66 -49 66q-31 0 -48 -24t-17 -52v-948h-426v37h82v1245h-336v-1245h98v-37h-565v37h98v1245h-219v-287h-45v377h1126
q76 0 105 31q28 31 28 92z" />
    <glyph glyph-name="Tcommaaccent_h" unicode="&#x162;h" horiz-adv-x="1951" 
d="M488 -268q-50 0 -76 28t-27 70q0 41 32 69q32 27 79 27t83 -34q35 -34 35 -110t-64 -125q-64 -50 -171 -50v33q178 4 180 127h-4q-17 -35 -67 -35zM1300 1495h54v-463h4q72 111 233 111q119 -1 170 -63t51 -185v-858h82v-37h-426v958q0 66 -49 66q-31 0 -48 -24t-17 -52
v-948h-426v37h82v1245h-336v-1245h98v-37h-565v37h98v1245h-219v-287h-45v377h1126q76 0 105 31q28 31 28 92z" />
    <glyph glyph-name=".notdef" horiz-adv-x="757" 
d="M717 1495v-1720h-676v1720h676zM381 711l237 743h-479l238 -743h4zM672 -184v1638h-4l-265 -819l265 -819h4zM86 1454v-1638h4l264 819l-264 819h-4zM139 -184h479l-237 743h-4z" />
    <glyph glyph-name=".null" horiz-adv-x="0" 
 />
    <glyph glyph-name="nonmarkingreturn" horiz-adv-x="681" 
 />
    <glyph glyph-name="NULL" horiz-adv-x="16" 
 />
    <glyph glyph-name="NULL" horiz-adv-x="16" 
 />
    <glyph glyph-name="CR" unicode="&#xd;" horiz-adv-x="655" 
 />
    <glyph glyph-name="space" unicode=" " horiz-adv-x="491" 
 />
    <glyph glyph-name="exclam" unicode="!" horiz-adv-x="749" 
d="M545 1204q0 -37 -29 -147l-139 -500v-172h-41v172l-139 500q-31 100 -29 147q0 84 51 134t137 50t138 -50t51 -134zM485 113q0 -55 -36 -93q-37 -36 -93 -36t-93 36q-36 36 -36 92q0 58 36 92t92 34t93 -35t37 -90z" />
    <glyph glyph-name="quotedbl" unicode="&#x22;" horiz-adv-x="901" 
d="M737 1282q0 -46 -12 -78q-13 -32 -23 -58t-12 -32l-63 -164v-73h-37v73l-62 158q-51 127 -50 180t33 89t97 36q129 0 129 -131zM422 1282q0 -51 -19 -96t-28 -72l-64 -164v-73h-37v73l-61 158q-51 127 -50 180t33 89t97 36q129 0 129 -131z" />
    <glyph glyph-name="numbersign" unicode="#" horiz-adv-x="1081" 
d="M442 905l-57 -307h254l57 307h-254zM688 598h168l-45 -238h-168l-68 -360h-49l68 360h-254l-68 -360h-49l68 360h-168l45 238h168l57 307h-168l45 238h168l43 229h49l-43 -229h254l43 229h50l-43 -229h167l-45 -238h-168z" />
    <glyph glyph-name="dollar" unicode="$" 
d="M455 1198v-145q0 -82 59 -121v356q-59 -12 -59 -90zM610 174v162q0 49 -11 78t-48 55v-387q59 10 59 92zM934 479v-80q0 -344 -379 -354v-164h-45v164q-279 6 -342 205h-4v-205h-41v393h332v-268q0 -78 59 -88v410l-209 129q-158 96 -158 297v77q0 326 363 332v164h45
v-164q262 -10 313 -205h4v205h41v-377h-303v252q0 78 -59 86v-379l219 -135q164 -100 164 -295z" />
    <glyph glyph-name="percent" unicode="%" horiz-adv-x="1492" 
d="M1370 524v-297q0 -243 -272 -243t-273 231v293q1 246 273 246t272 -230zM840 1372h49l-221 -1372h-50zM668 1069v-297q0 -244 -272 -244t-273 232v293q1 245 273 245t272 -229zM1141 63v613q0 49 -43 49t-43 -51v-613q0 -49 43 -49t43 51zM438 608v613q0 49 -43 49
t-43 -51v-613q0 -49 43 -49t43 51z" />
    <glyph glyph-name="ampersand" unicode="&#x26;" horiz-adv-x="1331" 
d="M422 582v-377q0 -84 31 -126t106 -42q116 0 182 135l-299 479q-20 -14 -20 -69zM1274 37v-37h-426l-78 127q-49 -80 -116 -112t-169 -31q-362 0 -362 303v86q0 141 68 220q69 79 229 95l-39 62q-66 104 -88 164q-23 60 -23 147v33q0 160 109 228t258 67t228 -47t126 -142
h4v189h41v-418h-323v321q0 59 -51 60q-55 0 -56 -72v-182q0 -56 10 -81q28 -73 86 -161l230 -373l125 303h-107v37h275v-37h-111l-151 -352l245 -397h66z" />
    <glyph glyph-name="quotesingle" unicode="'" horiz-adv-x="483" 
d="M381 1282q0 -51 -19 -96t-28 -72l-64 -164v-73h-37v73l-61 158q-51 127 -50 180t33 89t97 36q129 0 129 -131z" />
    <glyph glyph-name="parenleft" unicode="(" horiz-adv-x="720" 
d="M160 624q0 768 463 826v-41q-89 -12 -135 -51t-46 -125v-1217q0 -86 46 -125t135 -51v-41q-463 57 -463 825z" />
    <glyph glyph-name="parenright" unicode=")" horiz-adv-x="720" 
d="M561 625q0 -768 -463 -826v41q90 12 135 51t46 125v1217q1 86 -45 125t-136 51v41q463 -57 463 -825z" />
    <glyph glyph-name="asterisk" unicode="*" horiz-adv-x="1134" 
d="M995 1163q0 -111 -166 -110q-90 0 -215 16l-28 -6l20 -23l131 -79q137 -86 140 -160q0 -49 -38 -83t-83 -34q-92 0 -138 184l-36 156l-15 25l-14 -25l-37 -152q-12 -52 -22 -82t-41 -68t-75 -38t-82 34t-38 81q0 78 135 159l135 82l21 23l-29 6q-197 -16 -213 -16
q-168 0 -168 110q0 47 28 85t84 38t157 -86l120 -104l27 -11l-2 29l-59 143q-39 93 -39 141t28 81q29 33 86 32q111 0 111 -116q0 -41 -37 -133l-61 -148l-2 -29l26 11l117 102q99 86 157 86t86 -37t29 -84z" />
    <glyph glyph-name="plus" unicode="+" horiz-adv-x="618" 
d="M334 600v-231h-49v231h-232v49h232v232h49v-232h231v-49h-231z" />
    <glyph glyph-name="comma" unicode="," horiz-adv-x="583" 
d="M440 74q0 -125 -90 -202t-227 -77v37q109 0 185 62t75 167h-4q-16 -66 -100 -65q-53 0 -90 36q-35 36 -35 93t40 93t102 36t102 -48q42 -48 42 -132z" />
    <glyph glyph-name="hyphen" unicode="-" horiz-adv-x="628" 
d="M502 723v-102h-383v102h383z" />
    <glyph glyph-name="period" unicode="." horiz-adv-x="585" 
d="M422 121q0 -59 -40 -98t-98 -39t-98 38q-39 38 -39 99t37 97q36 36 98 36t101 -37t39 -96z" />
    <glyph glyph-name="slash" unicode="/" horiz-adv-x="335" 
d="M250 1454h53l-250 -1659h-53z" />
    <glyph glyph-name="zero" unicode="0" horiz-adv-x="1105" 
d="M983 1026v-659q0 -383 -430 -383t-430 362v655q0 199 114 293q115 94 315 94t316 -86t115 -276zM618 100v1176q0 76 -66 76t-65 -80v-1176q-1 -76 65 -76t66 80z" />
    <glyph glyph-name="one" unicode="1" horiz-adv-x="798" 
d="M705 37v-37h-578v37h111v1077h-111v37h94q135 0 215 53t96 193h62v-1360h111z" />
    <glyph glyph-name="two" unicode="2" horiz-adv-x="1101" 
d="M967 561v-561h-852v319q0 98 27 138q28 39 139 114q14 14 24 19l107 74q18 12 61 40t52 36q48 48 53 89q6 42 6 93v356q0 74 -62 74t-63 -72v-408h-328v193q0 324 391 324q422 0 422 -345v-124q0 -129 -40 -186q-24 -34 -54 -62q-41 -39 -256 -97l-215 -57
q-133 -36 -175 -64t-42 -102v-4h764v213h41z" />
    <glyph glyph-name="three" unicode="3" horiz-adv-x="1064" 
d="M950 420v-60q0 -377 -438 -376q-389 0 -389 319v148h328v-357q0 -74 61 -74q74 0 74 84v469q0 68 -28 99t-93 30h-105v37h111q59 0 83 30t24 91v422q0 70 -60 70t-59 -70v-319h-312v118q0 307 369 308q412 0 412 -336v-37q0 -146 -80 -210t-223 -79v-4q153 -15 239 -81
t86 -222z" />
    <glyph glyph-name="four" unicode="4" horiz-adv-x="1105" 
d="M995 627v-434h-41v167h-135v-323h94v-37h-565v37h115v323h-402v25l328 987h430v-921h135v176h41zM463 451v884h-29l-291 -884h320z" />
    <glyph glyph-name="five" unicode="5" horiz-adv-x="1089" 
d="M958 543v-183q0 -377 -438 -376q-389 0 -389 319v139h328v-348q0 -74 61 -74q74 0 74 84v551q0 72 -28 102t-91 29q-117 0 -191 -82t-75 -143h-43v811h735v-475h-41v143h-647v-360h4q106 166 367 166q374 0 374 -303z" />
    <glyph glyph-name="six" unicode="6" horiz-adv-x="1101" 
d="M967 526v-168q0 -374 -422 -374t-422 370v633q0 205 119 303t321 99q354 0 355 -299v-136h-312v332q0 66 -55 66q-72 0 -72 -90v-578h4q76 115 238 115q131 0 189 -69t57 -204zM606 98v504q0 78 -61 78q-33 0 -49 -24t-17 -52v-510q-1 -74 63 -74t64 78z" />
    <glyph glyph-name="seven" unicode="7" horiz-adv-x="942" 
d="M897 1372v-24l-426 -1311h111v-37h-471v37h106l469 848l45 139h-604v-209h-41v557h811z" />
    <glyph glyph-name="eight" unicode="8" horiz-adv-x="1097" 
d="M979 399v-55q0 -360 -430 -360t-430 340v53q0 163 83 237t234 88v5q-139 15 -217 79t-78 207v51q0 344 408 344t407 -325v-47q0 -281 -294 -309v-5q150 -14 234 -80t83 -223zM606 788v496q0 68 -57 68t-57 -72v-494q0 -63 57 -63q57 -1 57 65zM614 96v520q0 70 -63 70
q-68 0 -68 -72v-520q-1 -74 65 -74t66 76z" />
    <glyph glyph-name="nine" unicode="9" horiz-adv-x="1101" 
d="M979 1018v-625q0 -209 -120 -309t-327 -100q-365 0 -364 305v145h328v-348q0 -66 55 -66q72 0 72 91v594h-5q-74 -115 -237 -115q-131 0 -188 68t-58 204v152q0 375 422 375t422 -371zM623 784v494q1 74 -63 74t-64 -78v-488q0 -78 61 -77q33 0 49 23t17 52z" />
    <glyph glyph-name="colon" unicode=":" horiz-adv-x="598" 
d="M434 805q0 -59 -40 -98t-98 -39t-97 38t-39 99t37 97t98 36t100 -37t39 -96zM434 121q0 -59 -40 -98t-98 -39t-97 38t-39 99t37 97t98 36t100 -37t39 -96z" />
    <glyph glyph-name="semicolon" unicode=";" horiz-adv-x="595" 
d="M446 805q0 -59 -40 -98t-98 -39t-97 38t-39 99t37 97t98 36t100 -37t39 -96zM135 -205v37q109 0 185 62t75 167h-4q-16 -66 -100 -65q-53 0 -89 36t-36 93t40 93t102 36t103 -48q42 -48 42 -132q1 -125 -91 -202t-227 -77z" />
    <glyph glyph-name="less" unicode="&#x3c;" horiz-adv-x="614" 
d="M121 627v-4l440 -136v-53l-520 164v53l520 164v-53z" />
    <glyph glyph-name="equal" unicode="=" horiz-adv-x="626" 
d="M573 731v-49h-520v49h520zM573 567v-49h-520v49h520z" />
    <glyph glyph-name="greater" unicode="&#x3e;" horiz-adv-x="614" 
d="M494 623v4l-441 135v53l520 -164v-53l-520 -164v53z" />
    <glyph glyph-name="question" unicode="?" horiz-adv-x="1019" 
d="M494 113q0 -55 -37 -93t-93 -36q-56 0 -93 36q-35 36 -35 92q0 58 35 92q36 34 92 34q55 0 93 -35t38 -90zM897 1044v-38q0 -133 -37 -211t-158 -146l-321 -178v-111h-41v439l109 78q71 51 83 81t13 132v198q0 63 -56 64q-51 0 -51 -62v-344h-299v141q0 301 355 302
q184 -1 294 -85t109 -260z" />
    <glyph glyph-name="at" unicode="@" horiz-adv-x="1798" 
d="M1667 643q0 -229 -92 -375t-277 -147q-96 0 -172 44t-98 130h-4q-70 -176 -264 -176q-231 0 -232 276v422q0 346 381 346q181 0 285 -81t104 -255v-524q0 -77 12 -105t54 -28q122 0 186 143t64 355q0 319 -188 499q-188 181 -518 181q-332 0 -528 -205t-196 -551
t203 -543t557 -196q270 0 496 100v-45q-219 -96 -498 -96q-371 0 -591 208t-220 568q0 362 214 581q215 219 567 219t554 -193q202 -194 201 -552zM971 313v748q0 66 -56 65q-33 0 -44 -17t-11 -52v-750q0 -70 49 -69q29 0 45 23t17 52z" />
    <glyph glyph-name="A" unicode="A" horiz-adv-x="970" 
d="M967 37v-37h-557v37h94l-60 475h-241l-64 -475h94v-37h-233v37h78l178 1298h-100v37h657v-37h-100l176 -1298h78zM209 565h227l-96 770h-29z" />
    <glyph glyph-name="B" unicode="B" horiz-adv-x="1171" 
d="M1057 451v-119q0 -332 -383 -332h-580v37h90v1298h-90v37h549q352 0 352 -291v-133q0 -213 -237 -235v-4q135 -3 217 -67t82 -191zM651 801v463q0 72 -71 71h-27v-612h27q71 0 71 78zM680 119v499q0 68 -68 68h-59v-649h51q76 0 76 82z" />
    <glyph glyph-name="C" unicode="C" horiz-adv-x="1060" 
d="M983 487v-153q0 -350 -397 -350q-205 0 -328 91t-123 292v624q0 201 113 299t313 99q293 0 357 -205h4v205h45v-500h-328v393q0 70 -61 70q-66 0 -66 -84v-1053q0 -96 36 -135t122 -39q132 0 198 79t66 216v151h49z" />
    <glyph glyph-name="D" unicode="D" horiz-adv-x="1179" 
d="M1061 1010v-625q0 -201 -119 -293t-326 -92h-526v37h90v1298h-90v37h526q203 0 324 -84t121 -278zM684 123v1132q0 80 -80 80h-55v-1298h55q80 0 80 86z" />
    <glyph glyph-name="E" unicode="E" 
d="M991 369v-369h-897v37h90v1298h-90v37h856v-311h-45v221h-352v-539h258v181h45v-422h-45v180h-258v-592h393v279h45z" />
    <glyph glyph-name="F" unicode="F" horiz-adv-x="966" 
d="M930 1372v-319h-45v237h-344v-547h250v181h45v-447h-45v205h-250v-645h123v-37h-582v37h90v1298h-90v37h848z" />
    <glyph glyph-name="G" unicode="G" horiz-adv-x="1118" 
d="M995 659v-675h-45v213h-4q-72 -213 -381 -213q-438 0 -438 376v613q0 207 117 311t323 105q299 0 363 -205h4v205h45v-476h-328v359q0 80 -71 80q-76 0 -76 -97v-1126q0 -109 86 -109q78 0 78 91v495h-95v53h422z" />
    <glyph glyph-name="H" unicode="H" horiz-adv-x="1232" 
d="M1135 37v-37h-459v686h-127v-686h-459v37h90v1298h-90v37h459v-633h127v633h459v-37h-91v-1298h91z" />
    <glyph glyph-name="I" unicode="I" horiz-adv-x="729" 
d="M623 37v-37h-549v37h90v1298h-90v37h549v-37h-91v-1298h91z" />
    <glyph glyph-name="J" unicode="J" horiz-adv-x="970" 
d="M922 1372v-37h-91v-977q1 -188 -111 -281t-300 -93q-291 0 -334 204h-4v-204h-45v585h311v-485q0 -63 55 -64q59 0 60 76v1239h-115v37h574z" />
    <glyph glyph-name="K" unicode="K" horiz-adv-x="1220" 
d="M1180 393v-215q0 -114 -50 -154t-169 -40q-208 0 -268 117q-26 52 -25 130v418q0 80 -80 80h-27v-692h74v-37h-533v37h91v1298h-91v37h553v-37h-94v-569h57l316 569h-119v37h279v-37h-95l-319 -569h12q186 0 266 -65t78 -199v-377q0 -68 41 -68q57 0 58 101v235h45z" />
    <glyph glyph-name="L" unicode="L" horiz-adv-x="950" 
d="M905 401v-401h-823v37h90v1298h-90v37h582v-37h-123v-1245h319v311h45z" />
    <glyph glyph-name="M" unicode="M" horiz-adv-x="1523" 
d="M1434 37v-37h-537v37h98v1298h-28l-148 -1335h-438l-148 1335h-28v-1298h98v-37h-233v37h82v1298h-82v37h618v-37h-94l143 -1298h29l143 1298h-94v37h619v-37h-82v-1298h82z" />
    <glyph glyph-name="N" unicode="N" horiz-adv-x="1130" 
d="M1061 1372v-37h-84v-1335h-465l-287 1335h-28v-1298h98v-37h-234v37h82v1298h-82v37h547l287 -1335h29v1298h-99v37h236z" />
    <glyph glyph-name="O" unicode="O" horiz-adv-x="1142" 
d="M1016 1014v-633q0 -397 -447 -397q-203 0 -323 89t-119 285v629q0 401 448 402q201 0 321 -89t120 -286zM639 104v1170q0 78 -68 78t-67 -84v-1170q0 -78 68 -78t67 84z" />
    <glyph glyph-name="P" unicode="P" horiz-adv-x="1122" 
d="M1053 1020v-295q0 -352 -402 -352h-106v-336h123v-37h-582v37h90v1298h-90v37h541q426 0 426 -352zM676 496v759q0 80 -78 80h-53v-925h53q78 0 78 86z" />
    <glyph glyph-name="Q" unicode="Q" horiz-adv-x="1142" 
d="M1016 1014v-621q0 -328 -309 -385v-110q0 -129 34 -188q35 -58 160 -58h19v-37h-17q-145 0 -225 11t-140 52t-81 115q-20 74 -21 203v10q-309 55 -309 365v616q0 401 448 402q201 0 321 -89t120 -286zM639 104v1170q0 78 -68 78t-67 -84v-1170q0 -78 68 -78t67 84z" />
    <glyph glyph-name="R" unicode="R" horiz-adv-x="1228" 
d="M1192 377v-199q0 -110 -51 -152t-170 -42q-291 0 -291 237v397q0 68 -68 68h-55v-649h90v-37h-549v37h90v1298h-90v37h535q367 0 366 -301v-57q0 -137 -56 -208t-189 -93v-4q125 1 210 -53t85 -173v-358q0 -42 9 -55q9 -12 27 -13q61 0 62 101v219h45zM664 801v463
q0 72 -72 71h-35v-612h35q72 0 72 78z" />
    <glyph glyph-name="S" unicode="S" horiz-adv-x="1085" 
d="M156 907v127q0 188 104 272t305 83q143 1 233 -51t111 -187h4v238h45v-426h-335v307q0 82 -68 82t-68 -86v-172q-1 -55 13 -83t59 -57l225 -147q102 -59 148 -138t47 -196v-123q0 -194 -110 -280t-328 -86t-308 118q-37 51 -49 127h-4v-245h-45v442h357v-324
q0 -82 68 -82t67 86v195q0 59 -15 94q-14 35 -61 62l-250 147q-145 86 -145 303z" />
    <glyph glyph-name="T" unicode="T" horiz-adv-x="991" 
d="M938 1372v-377h-45v287h-219v-1245h98v-37h-565v37h98v1245h-219v-287h-45v377h897z" />
    <glyph glyph-name="U" unicode="U" horiz-adv-x="1032" 
d="M999 1372v-37h-81v-1007q0 -344 -312 -344q-199 0 -318 65q-141 76 -141 305v981h-90v37h561v-37h-102v-1210q0 -61 28 -83t87 -22q131 0 180 82t49 226v1007h-119v37h258z" />
    <glyph glyph-name="V" unicode="V" horiz-adv-x="897" 
d="M918 1372v-37h-78l-156 -1335h-453l-153 1335h-78v37h557v-37h-94l139 -1298h29l147 1298h-94v37h234z" />
    <glyph glyph-name="W" unicode="W" horiz-adv-x="1449" 
d="M1458 1372v-37h-80l-151 -1335h-420l-74 778h-4l-72 -778h-419l-152 1335h-78v37h510v-37h-78l138 -1298h28l96 1042l-24 256h-62v37h510v-37h-94l115 -1298h29l143 1298h-94v37h233z" />
    <glyph glyph-name="X" unicode="X" horiz-adv-x="929" 
d="M913 37v-37h-544v37h90l-156 661h-4l-135 -661h90v-37h-229v37h77l156 737l-139 561h-78v37h545v-37h-90l143 -600h4l115 600h-90v37h229v-37h-78l-133 -680l150 -618h77z" />
    <glyph glyph-name="Y" unicode="Y" horiz-adv-x="856" 
d="M885 1372v-37h-78l-180 -784v-514h90v-37h-549v37h90v514l-188 784h-78v37h557v-37h-94l143 -639h4l143 639h-94v37h234z" />
    <glyph glyph-name="Z" unicode="Z" horiz-adv-x="872" 
d="M799 422v-422h-738v25l336 1265h-254v-282h-45v364h693v-24l-336 -1266h299v340h45z" />
    <glyph glyph-name="bracketleft" unicode="[" horiz-adv-x="688" 
d="M573 -147v-37h-393v1618h393v-37h-139v-1544h139z" />
    <glyph glyph-name="backslash" unicode="\" horiz-adv-x="417" 
d="M57 1454h54l249 -1659h-53z" />
    <glyph glyph-name="bracketright" unicode="]" horiz-adv-x="688" 
d="M115 1397v37h393v-1618h-393v37h139v1544h-139z" />
    <glyph glyph-name="asciicircum" unicode="^" horiz-adv-x="948" 
d="M664 1372l272 -815h-49l-258 778h-21l-260 -778h-213l279 815h250z" />
    <glyph glyph-name="underscore" unicode="_" horiz-adv-x="745" 
d="M700 -102v-66h-655v66h655z" />
    <glyph glyph-name="grave" unicode="`" 
d="M653 1217l-348 151l74 102l291 -237z" />
    <glyph glyph-name="a" unicode="a" horiz-adv-x="1097" 
d="M1057 377v-217q0 -100 -50 -138q-49 -38 -149 -38t-159 35q-58 36 -81 128h-4q-68 -164 -274 -163q-117 0 -171 58t-54 183v86q0 145 44 205t171 88l125 29q67 14 93 41t25 71v289q0 72 -59 72q-80 0 -80 -96v-265h-287v398h41v-185h5q86 184 358 185q180 0 273 -68
t94 -227v-723q0 -68 40 -68q57 0 58 101v219h41zM573 170v469h-4q-18 -23 -58 -37t-52 -30t-13 -52v-348q0 -78 62 -78q33 0 49 22t16 54z" />
    <glyph glyph-name="b" unicode="b" horiz-adv-x="1069" 
d="M950 879v-537q0 -184 -105 -271t-288 -87q-270 0 -381 168h-4v-152h-41v1458h-82v37h426v-463h4q72 111 234 111q237 0 237 -264zM602 98v848q0 78 -61 78q-33 0 -49 -24t-17 -52v-854q-1 -74 63 -74t64 78z" />
    <glyph glyph-name="c" unicode="c" horiz-adv-x="966" 
d="M885 401v-104q0 -313 -357 -313q-186 0 -298 83t-111 265v448q0 182 106 272t283 91q244 0 323 -168h5v168h41v-467h-291v366q0 63 -56 64q-59 0 -59 -76v-835q0 -158 150 -158q106 0 162 71t57 185v108h45z" />
    <glyph glyph-name="d" unicode="d" horiz-adv-x="1081" 
d="M1020 37v-37h-422v94h-4q-72 -111 -238 -110q-238 0 -237 264v631q0 264 237 264q166 0 234 -107h4v422h-98v37h442v-1458h82zM594 178v770q0 32 -16 54t-50 22q-61 0 -61 -78v-766q0 -78 61 -78q34 0 50 22t16 54z" />
    <glyph glyph-name="e" unicode="e" horiz-adv-x="1019" 
d="M913 401v-79q0 -338 -383 -338q-408 0 -407 348v459q0 180 104 266q105 86 285 86t286 -78t107 -252v-235h-430v-383q0 -158 152 -158q115 0 178 80t63 200v84h45zM475 627h131v405q0 74 -66 74t-65 -78v-401z" />
    <glyph glyph-name="f" unicode="f" horiz-adv-x="757" 
d="M156 1126v29q0 182 104 269t291 87q244 0 311 -143q23 -47 23 -108v-35h-262v184q0 66 -56 66q-68 0 -67 -84v-265h295v-45h-295v-1044h114v-37h-540v37h82v1044h-90v45h90z" />
    <glyph glyph-name="g" unicode="g" 
d="M1028 1245v-241q-63 0 -91 -20t-28 -81v-203q0 -356 -397 -356h-197q-86 0 -86 -51q0 -23 15 -34t57 -11h371q156 0 234 -62t77 -202q0 -197 -122 -283t-302 -86q-96 0 -162 8q-175 21 -247 119q-43 57 -60 147v5h336v-23q0 -133 33 -176t147 -43q217 0 217 186
q0 76 -32 104q-33 28 -109 27h-217q-215 0 -277 48q-27 22 -48 65q-22 43 -21 106q0 193 219 193v4q-223 59 -223 315v84q0 184 105 272t292 87q270 0 352 -209h4v133q0 86 36 132t124 46zM565 446v596q0 63 -53 64q-53 0 -53 -66v-596q0 -63 53 -63q53 -1 53 65z" />
    <glyph glyph-name="h" unicode="h" horiz-adv-x="1097" 
d="M1040 37v-37h-426v958q0 66 -49 66q-31 0 -48 -24t-17 -52v-948h-426v37h82v1421h-82v37h426v-463h4q72 111 233 111q119 -1 170 -63t51 -185v-858h82z" />
    <glyph glyph-name="i" unicode="i" horiz-adv-x="679" 
d="M352 1524q60 0 98 -36t38 -95t-39 -98q-39 -38 -97 -38t-97 37q-38 38 -38 98t38 96t97 36zM606 37v-37h-508v37h82v1053h-82v36h426v-1089h82z" />
    <glyph glyph-name="j" unicode="j" horiz-adv-x="679" 
d="M360 1524q60 0 98 -36t38 -95t-39 -97t-97 -39q-58 0 -97 37q-38 38 -38 98t38 96t97 36zM532 1126v-1122q0 -188 -80 -280t-264 -93h-155v37h22q74 0 104 39t29 119v1264h-82v36h426z" />
    <glyph glyph-name="k" unicode="k" horiz-adv-x="1118" 
d="M1073 393v-233q0 -100 -49 -138t-152 -38q-258 0 -258 206v383q0 90 -75 91h-23v-627h62v-37h-488v37h82v1421h-82v37h426v-795h62l323 390h-119v36h271v-36h-86l-328 -390h18q154 0 215 -42t62 -189v-344q0 -68 41 -68q57 0 57 101v235h41z" />
    <glyph glyph-name="l" unicode="l" horiz-adv-x="602" 
d="M483 37h82v-37h-508v37h82v1421h-82v37h426v-1458z" />
    <glyph glyph-name="m" unicode="m" horiz-adv-x="1568" 
d="M1503 37v-37h-426v958q0 66 -45 66q-31 0 -48 -23t-17 -53v-948h-344v958q0 66 -45 66q-30 0 -48 -23t-18 -53v-948h-426v37h82v1053h-82v36h422v-100h4q68 117 236 117t204 -123h4q68 123 248 123q119 -1 168 -63t49 -185v-858h82z" />
    <glyph glyph-name="n" unicode="n" horiz-adv-x="1110" 
d="M164 37v1053h-82v36h422v-100h4q70 117 237 117q119 -1 170 -63t52 -185v-858h82v-37h-426v958q0 66 -50 66q-31 0 -48 -24t-17 -52v-948h-426v37h82z" />
    <glyph glyph-name="o" unicode="o" 
d="M942 795v-443q0 -368 -414 -368t-413 348v438q0 190 109 282q110 91 308 91q410 0 410 -348zM590 96v938q0 72 -62 72t-61 -76v-938q-1 -72 61 -72t62 76z" />
    <glyph glyph-name="p" unicode="p" horiz-adv-x="1077" 
d="M610 180v766q0 78 -61 78q-33 0 -49 -23t-17 -53v-770q1 -32 17 -54t49 -22q61 0 61 78zM958 879v-631q0 -264 -237 -264q-162 0 -234 110h-4v-426h99v-37h-525v37h82v1422h-82v36h422v-100h4q70 117 238 117q237 0 237 -264z" />
    <glyph glyph-name="q" unicode="q" horiz-adv-x="1077" 
d="M1020 -332v-37h-524v37h98v426h-4q-72 -111 -234 -110q-238 0 -237 264v536q0 358 377 359q293 0 397 -197h4v180h41v-1458h82zM594 178v854q0 74 -64 74t-63 -78v-848q0 -78 61 -78q34 0 50 24t16 52z" />
    <glyph glyph-name="r" unicode="r" horiz-adv-x="995" 
d="M934 920v-285h-324v323q0 66 -47 66q-29 0 -42 -20t-13 -43v-924h115v-37h-541v37h82v1053h-82v36h422v-94h4q70 111 225 111q111 0 156 -54t45 -169z" />
    <glyph glyph-name="s" unicode="s" horiz-adv-x="1009" 
d="M903 379v-66q0 -330 -387 -329q-143 0 -225 47t-115 149h-4v-196h-41v360h324v-250q0 -74 61 -74t62 76v156q0 49 -12 76t-52 47l-244 123q-139 70 -139 254v79q0 311 373 312q139 0 219 -43t108 -146h5v189h41v-344h-316v233q0 74 -61 74t-62 -78v-127q0 -47 10 -72
t50 -43l241 -122q164 -86 164 -285z" />
    <glyph glyph-name="t" unicode="t" horiz-adv-x="729" 
d="M705 459v-256q-1 -125 -63 -172t-201 -47t-221 61q-81 61 -81 236v800h-82v45h99q250 0 274 222h53v-222h201v-45h-201v-907q0 -36 3 -60q2 -24 22 -44t55 -21q100 0 101 162v248h41z" />
    <glyph glyph-name="u" unicode="u" horiz-adv-x="1073" 
d="M598 1126h344v-1089h82v-37h-422v98h-4q-74 -115 -238 -114q-119 0 -170 62t-51 185v859h-82v36h426v-958q0 -66 49 -66q31 0 49 24q17 24 17 52v948z" />
    <glyph glyph-name="v" unicode="v" horiz-adv-x="888" 
d="M885 1126v-36h-74l-152 -1090h-421l-152 1090h-74v36h520v-36h-86l136 -1053h28l144 1053h-86v36h217z" />
    <glyph glyph-name="w" unicode="w" horiz-adv-x="1411" 
d="M1399 1126v-36h-74l-131 -1090h-393l-90 690h-4l-89 -690h-393l-131 1090h-74v36h465v-36h-61l119 -1053h28l111 858l-25 195h-61v36h477v-36h-86l131 -1053h29l123 1053h-86v36h215z" />
    <glyph glyph-name="x" unicode="x" horiz-adv-x="880" 
d="M856 37v-37h-512v37h86l-147 530h-4l-115 -530h86v-37h-217v37h73l136 604l-119 449h-74v36h508v-36h-82l123 -486h4l107 486h-82v36h213v-36h-74l-127 -560l143 -493h74z" />
    <glyph glyph-name="y" unicode="y" horiz-adv-x="884" 
d="M897 1126v-36h-74l-166 -1192q-13 -90 -37 -144q-45 -100 -174 -115q-51 -7 -143 -8h-172v213h330q77 0 107 22t40 91l6 43h-364l-152 1090h-73v36h520v-36h-86l135 -1053h29l143 1053h-86v36h217z" />
    <glyph glyph-name="z" unicode="z" horiz-adv-x="827" 
d="M766 1126v-20l-342 -1040h285v290h41v-356h-701v20l342 1041h-264v-242h-41v307h680z" />
    <glyph glyph-name="braceleft" unicode="{" horiz-adv-x="729" 
d="M606 -164v-37h-49q-414 0 -414 181q0 76 76 184l94 135q63 92 63 163q0 72 -55 108q-56 36 -128 36h-95v37h95q72 0 128 37q56 36 56 108t-64 162l-94 135q-74 106 -74 185q0 180 412 180h49v-37h-41q-83 0 -107 -34t-24 -138v-274q0 -172 -16 -211q-16 -38 -32 -64
q-30 -48 -112 -65v-4q81 -21 113 -72q33 -51 40 -108q7 -58 7 -160v-275q0 -104 23 -138t104 -34h45z" />
    <glyph glyph-name="bar" unicode="|" horiz-adv-x="417" 
d="M233 1454v-1659h-49v1659h49z" />
    <glyph glyph-name="braceright" unicode="}" horiz-adv-x="729" 
d="M123 1413v37h49q414 0 414 -180q0 -74 -76 -185l-94 -135q-68 -92 -66 -163t58 -107t129 -37h94v-37h-94q-72 0 -128 -37q-57 -37 -57 -109t64 -161l94 -135q74 -106 74 -184q0 -180 -412 -181h-49v37h41q84 0 108 34t23 138v275q0 171 16 210q17 39 33 63q30 45 111 67
v4q-83 17 -114 71q-32 54 -39 111q-7 58 -7 158v274q0 104 -23 138t-104 34h-45z" />
    <glyph glyph-name="asciitilde" unicode="~" horiz-adv-x="1064" 
d="M901 784v-166q0 -80 -41 -122t-119 -43q-31 0 -71 10l-297 82q-72 20 -94 20q-66 0 -66 -67v-45h-49v165q0 166 160 166q31 0 71 -10l301 -82q72 -20 90 -20q66 0 66 67v45h49z" />
    <glyph glyph-name="exclamdown" unicode="&#xa1;" horiz-adv-x="749" 
d="M373 741h41v-172l139 -499q29 -111 29 -148q0 -84 -52 -134t-137 -50q-86 0 -137 50t-51 136q-2 45 28 146l140 499v172zM264 1014q0 55 37 92t93 37t92 -36t36 -93t-36 -91t-92 -34t-93 35t-37 90z" />
    <glyph glyph-name="cent" unicode="&#xa2;" horiz-adv-x="1019" 
d="M463 465q0 -92 47 -133v874q-47 -10 -47 -82v-659zM885 643v-84q0 -307 -338 -313v-262h-37v262q-178 4 -287 88t-108 264v281q0 182 108 274q109 92 283 92h4v205h37v-207q205 -16 284 -174h5v176h41v-446h-283v338q0 61 -47 69v-897q31 -10 71 -10q109 0 165 72t57 184
v88h45z" />
    <glyph glyph-name="sterling" unicode="&#xa3;" horiz-adv-x="1142" 
d="M1012 586v-586h-901v352q31 8 49 22q30 23 33 134v205h-82v41h82v256q-1 194 111 286t306 93q268 0 332 -185h4v185h41v-467h-307v362q0 68 -57 68q-66 0 -66 -80v-518h270v-41h-270v-13q0 -198 -94 -266q-51 -37 -113 -54t-168 -28v-4h789v238h41z" />
    <glyph glyph-name="currency" unicode="&#xa4;" horiz-adv-x="1089" 
d="M242 718q0 118 75 200l-112 112l37 37l114 -115q80 62 189 62t188 -62l115 115l37 -37l-113 -112q74 -84 74 -200t-60 -194l99 -100l-37 -37l-98 96q-82 -75 -203 -75t-209 75l-96 -96l-37 37l96 98q-59 78 -59 196zM793 714q0 114 -69 182q-70 68 -180 69
q-110 0 -180 -72q-70 -71 -69 -183q0 -112 69 -183q70 -71 182 -71t180 72t67 186z" />
    <glyph glyph-name="yen" unicode="&#xa5;" horiz-adv-x="987" 
d="M848 324v-41h-174v-246h86v-37h-529v37h86v246h-174v41h174v102h-174v41h174v84l-182 784h-74v37h535v-37h-90l137 -659h4l150 659h-90v37h227v-37h-76l-184 -784v-84h174v-41h-174v-102h174z" />
    <glyph glyph-name="brokenbar" unicode="&#xa6;" horiz-adv-x="409" 
d="M229 1454v-723h-49v723h49zM229 567v-772h-49v772h49z" />
    <glyph glyph-name="section" unicode="&#xa7;" horiz-adv-x="1101" 
d="M971 543v-70q0 -166 -86 -248v-4q70 -82 69 -221v-29q0 -356 -420 -356t-419 348v41h354v-270q0 -80 67 -80t66 82v168q0 53 -12 81t-58 52l-243 131q-168 90 -168 293v90q0 160 88 244v4q-63 86 -64 205v49q0 336 379 336q182 0 291 -80t109 -258v-33h-340v252
q0 80 -67 80t-66 -84v-138q0 -46 12 -74t53 -50l279 -154q176 -96 176 -307zM893 344q0 53 -68 88l-592 324q-35 -25 -35 -77t68 -87l592 -326q35 25 35 78z" />
    <glyph glyph-name="dieresis" unicode="&#xa8;" 
d="M770 1367q0 -42 -29 -70q-29 -27 -69 -27t-69 28q-28 28 -28 70q0 43 28 69q28 25 69 25q42 0 70 -26t28 -69zM481 1367q-1 -42 -29 -70q-28 -27 -69 -27t-69 28t-27 70q0 43 27 69q28 25 69 25t70 -26q28 -27 28 -69z" />
    <glyph glyph-name="copyright" unicode="&#xa9;" horiz-adv-x="1624" 
d="M1489 694q1 -315 -189 -513q-190 -197 -491 -197t-487 196t-186 514t182 506q184 188 492 188t494 -189q186 -190 185 -505zM1440 694q0 299 -171 476q-171 178 -461 178t-457 -174t-167 -476t171 -488q171 -185 453 -185t457 185t175 484zM1106 575v-102
q0 -236 -268 -235q-139 0 -224 61q-84 61 -84 197v387q0 254 275 254q190 0 229 -131h4v131h37v-336h-203v256q0 47 -42 47t-42 -57v-654q0 -59 24 -85t92 -26t113 51q44 50 44 138v104h45z" />
    <glyph glyph-name="ordfeminine" unicode="&#xaa;" horiz-adv-x="749" 
d="M248 588q-80 0 -117 38t-37 119v54q0 90 33 132t113 58l82 19q76 16 75 69v180q0 45 -32 46q-47 0 -48 -60v-168h-204v258h37v-123h4q59 123 225 123q258 0 258 -190v-463q0 -41 22 -41q33 0 33 61v144h37v-142q0 -66 -35 -90t-108 -24q-127 0 -156 86h-4
q-45 -86 -178 -86zM397 707v294h-4q-5 -9 -37 -18q-31 -10 -30 -49v-225q0 -47 36 -47t35 45z" />
    <glyph glyph-name="guillemotleft" unicode="&#xab;" horiz-adv-x="913" 
d="M586 625l164 -426h-37l-320 426l320 426h37zM307 625l164 -426h-37l-319 426l319 426h37z" />
    <glyph glyph-name="logicalnot" unicode="&#xac;" horiz-adv-x="813" 
d="M485 274v326h-403v49h616v-375h-213z" />
    <glyph glyph-name="registered" unicode="&#xae;" horiz-adv-x="1624" 
d="M1489 693q1 -314 -189 -512q-190 -197 -491 -197t-487 196t-186 515q0 317 182 505q184 188 490 188t494 -190q188 -191 187 -505zM1440 694q0 299 -171 476q-171 178 -461 178t-457 -174t-167 -476t171 -488q171 -185 453 -185t457 185t175 484zM1210 502v-133
q0 -74 -34 -103t-113 -28q-195 0 -195 159v213q0 43 -43 43h-37v-370h60v-33h-367v33h66v809h-66v32h363q236 0 235 -192v-64q0 -88 -39 -133t-125 -59v-4q79 0 137 -35t58 -109v-192q0 -39 25 -39q39 0 39 63v142h36zM858 735v312q0 45 -47 45h-23v-406h23q47 0 47 49z" />
    <glyph glyph-name="macron" unicode="&#xaf;" 
d="M774 1348v-66h-491v66h491z" />
    <glyph glyph-name="degree" unicode="&#xb0;" horiz-adv-x="753" 
d="M557 1319q0 -86 -57 -141q-56 -56 -140 -56t-140 56t-56 142q0 87 56 139t139 52t141 -53t57 -139zM508 1319q0 65 -42 105t-106 40t-106 -40q-41 -40 -41 -106t41 -108q41 -41 104 -41t107 42q43 42 43 108z" />
    <glyph glyph-name="plusminus" unicode="&#xb1;" horiz-adv-x="618" 
d="M334 600v-170h-49v170h-232v49h232v232h49v-232h231v-49h-231zM565 362v-49h-512v49h512z" />
    <glyph glyph-name="two.superior" unicode="&#xb2;" horiz-adv-x="788" 
d="M674 961v-363h-580v207q0 81 50 120q19 15 79 54l103 68q55 37 68 63t14 80v225q0 45 -36 45t-36 -43v-260h-232v125q0 209 277 209t276 -223v-80q0 -57 -13 -94t-49 -62t-70 -36t-103 -29l-143 -37q-82 -20 -112 -38t-32 -63v-4h502v136h37z" />
    <glyph glyph-name="three.superior" unicode="&#xb3;" horiz-adv-x="759" 
d="M666 868v-37q0 -244 -297 -243q-266 0 -267 207v96h230v-227q0 -45 37 -46q43 0 43 52v295q0 82 -76 82h-76v30h80q66 0 66 76v264q0 43 -34 43t-34 -43v-203h-219v78q0 199 252 199q281 0 280 -217v-23q0 -159 -188 -186v-4q203 -18 203 -193z" />
    <glyph glyph-name="acute" unicode="&#xb4;" 
d="M752 1368l-349 -151l-16 16l291 237z" />
    <glyph glyph-name="mu" unicode="&#xb5;" horiz-adv-x="1163" 
d="M391 -6v-4l125 -322h98v-37h-540v37h82v1422h-82v36h426v-958q0 -66 49 -66q31 0 48 24t17 52v948h344v-1001q0 -68 41 -68q57 0 58 101v219h41v-217q0 -100 -50 -138t-150 -38t-160 32q-58 33 -79 125h-4q-76 -147 -256 -147h-8z" />
    <glyph glyph-name="paragraph" unicode="&#xb6;" horiz-adv-x="933" 
d="M860 -332v-37h-414v37h123v815h-24q-430 0 -430 363v262q0 199 113 293q114 94 317 94h315v-37h-82v-1790h82zM614 -332h119v1790h-119v-1790z" />
    <glyph glyph-name="periodcentered" unicode="&#xb7;" horiz-adv-x="487" 
d="M242 754q64 0 108 -40q43 -40 43 -106t-43 -108t-106 -41q-63 0 -107 42q-43 41 -43 107t42 106t106 40z" />
    <glyph glyph-name="cedilla" unicode="&#xb8;" 
d="M686 -207v-20q0 -158 -168 -158q-150 0 -149 141v11h37v-11q0 -109 92 -108q74 0 73 108v39q0 94 -65 94q-55 0 -86 -67h-43v178h41v-131h4q41 61 115 61q149 0 149 -137z" />
    <glyph glyph-name="one.superior" unicode="&#xb9;" horiz-adv-x="555" 
d="M481 629v-31h-375v31h68v678h-68v30h64q86 0 136 35t61 123h59v-866h55z" />
    <glyph glyph-name="ordmasculine" unicode="&#xba;" horiz-adv-x="751" 
d="M657 1108v-283q1 -237 -281 -237t-282 225v281q0 240 282 240t281 -226zM410 664v593q0 45 -35 46q-35 0 -35 -48v-593q0 -43 35 -44q35 1 35 46z" />
    <glyph glyph-name="guillemotright" unicode="&#xbb;" horiz-adv-x="913" 
d="M328 625l-164 426h37l319 -426l-319 -426h-37zM606 625l-164 426h37l320 -426l-320 -426h-37z" />
    <glyph glyph-name="onequarter" unicode="&#xbc;" horiz-adv-x="1366" 
d="M1276 406v-283h-37v108h-80v-200h64v-31h-394v31h78v200h-268v17l211 635h309v-590h80v113h37zM907 293v559h-20l-185 -559h205zM481 477v-31h-375v31h68v678h-68v31h64q86 0 136 35t61 122h59v-866h55zM696 1372h49l-221 -1372h-49z" />
    <glyph glyph-name="onehalf" unicode="&#xbd;" horiz-adv-x="1400" 
d="M1286 362v-362h-579v207q0 82 50 120q19 15 79 54l102 68q55 37 68 59q14 29 14 84v225q0 45 -36 45t-36 -43v-260h-231v125q0 209 266 209q287 0 287 -223v-80q0 -112 -63 -156q-35 -25 -69 -36t-104 -29l-143 -37q-82 -20 -112 -38t-31 -63v-4h501v135h37zM481 477v-31
h-375v31h68v678h-68v31h64q86 0 136 35t61 122h59v-866h55zM696 1372h49l-221 -1372h-49z" />
    <glyph glyph-name="threequarters" unicode="&#xbe;" horiz-adv-x="1538" 
d="M666 717v-37q0 -244 -297 -244q-266 0 -267 207v96h230v-227q0 -45 37 -45q43 0 43 51v295q0 82 -76 82h-76v31h80q66 0 66 75v265q0 43 -34 43t-34 -43v-203h-219v78q0 199 252 198q281 0 280 -217v-22q0 -160 -188 -187v-4q203 -18 203 -192zM1448 406v-283h-37v108
h-80v-200h64v-31h-394v31h78v200h-268v17l211 635h309v-590h80v113h37zM1079 293v559h-20l-185 -559h205zM868 1372h50l-222 -1372h-49z" />
    <glyph glyph-name="questiondown" unicode="&#xbf;" horiz-adv-x="1019" 
d="M123 82v39q0 135 36 212t158 144l322 178v111h41v-438l-109 -78q-72 -51 -84 -82t-12 -131v-199q0 -63 53 -63t54 61v344h299v-141q0 -301 -355 -301q-184 0 -294 84q-109 84 -109 260zM526 1014q0 55 37 92t93 37t92 -36t36 -93t-36 -91t-92 -34t-93 35t-37 90z" />
    <glyph glyph-name="Agrave" unicode="&#xc0;" horiz-adv-x="970" 
d="M682 1462l-403 74l51 115l364 -170zM967 37v-37h-557v37h94l-60 475h-241l-64 -475h94v-37h-233v37h78l178 1298h-100v37h657v-37h-100l176 -1298h78zM209 565h227l-96 770h-29z" />
    <glyph glyph-name="Aacute" unicode="&#xc1;" horiz-adv-x="970" 
d="M694 1536l-403 -74l-12 19l364 170zM967 37v-37h-557v37h94l-60 475h-241l-64 -475h94v-37h-233v37h78l178 1298h-100v37h657v-37h-100l176 -1298h78zM209 565h227l-96 770h-29z" />
    <glyph glyph-name="Acircumflex" unicode="&#xc2;" horiz-adv-x="970" 
d="M489 1548h-4l-223 -102l-16 16l223 189h37l221 -189l-16 -16zM967 37v-37h-557v37h94l-60 475h-241l-64 -475h94v-37h-233v37h78l178 1298h-100v37h657v-37h-100l176 -1298h78zM209 565h227l-96 770h-29z" />
    <glyph glyph-name="Atilde" unicode="&#xc3;" horiz-adv-x="970" 
d="M584 1470q-57 0 -115 35l-66 39q-33 18 -63 19q-59 0 -74 -60l-6 -24l-24 6l10 39q31 121 141 121q51 0 115 -35l65 -39q27 -19 75 -19t63 60l6 24l24 -6l-10 -39q-31 -121 -141 -121zM967 37v-37h-557v37h94l-60 475h-241l-64 -475h94v-37h-233v37h78l178 1298h-100v37
h657v-37h-100l176 -1298h78zM209 565h227l-96 770h-29z" />
    <glyph glyph-name="Adieresis" unicode="&#xc4;" horiz-adv-x="970" 
d="M756 1551q0 -39 -29 -67t-68 -28t-67 28t-27 68q0 40 28 67q27 26 67 26t68 -27t28 -67zM406 1551q0 -39 -29 -67t-68 -28t-67 28t-27 68q0 40 28 67q29 26 67 26t67 -27t29 -67zM967 37v-37h-557v37h94l-60 475h-241l-64 -475h94v-37h-233v37h78l178 1298h-100v37h657
v-37h-100l176 -1298h78zM209 565h227l-96 770h-29z" />
    <glyph glyph-name="Aring" unicode="&#xc5;" horiz-adv-x="970" 
d="M657 1618q0 -76 -50 -124t-124 -48t-122 47t-48 124t48 123t122 46t124 -46t50 -122zM559 1565v106q0 47 -14 71q-13 24 -59 24t-60 -26q-14 -24 -14 -73v-106q0 -47 14 -71t59 -24t60 25q14 25 14 74zM967 37v-37h-557v37h94l-60 475h-241l-64 -475h94v-37h-233v37h78
l178 1298h-100v37h657v-37h-100l176 -1298h78zM209 565h227l-96 770h-29z" />
    <glyph glyph-name="AE" unicode="&#xc6;" horiz-adv-x="1331" 
d="M1262 369v-369h-877v37h111v434h-281l-125 -434h94v-37h-233v37h78l381 1298h-101v37h912v-311h-45v229h-312v-547h217v181h45v-422h-45v180h-217v-600h353v287h45zM496 524v811h-29l-236 -811h265z" />
    <glyph glyph-name="Ccedilla" unicode="&#xc7;" horiz-adv-x="1060" 
d="M135 367v624q0 201 113 299t313 99q293 0 357 -205h4v205h45v-500h-328v393q0 70 -61 70q-66 0 -66 -84v-1053q0 -96 36 -135t122 -39q132 0 198 79t66 216v151h49v-153q0 -350 -397 -350q-64 0 -121 9v-124h4q41 61 115 61q149 0 149 -137v-20q0 -158 -168 -158
q-150 0 -149 141v11h37v-11q0 -109 92 -108q74 0 73 108v39q0 94 -65 94q-55 0 -86 -67h-43v178h3q-292 66 -292 367z" />
    <glyph glyph-name="Egrave" unicode="&#xc8;" 
d="M725 1462l-403 74l51 115l364 -170zM991 369v-369h-897v37h90v1298h-90v37h856v-311h-45v221h-352v-539h258v181h45v-422h-45v180h-258v-592h393v279h45z" />
    <glyph glyph-name="Eacute" unicode="&#xc9;" 
d="M758 1536l-404 -74l-12 19l365 170zM991 369v-369h-897v37h90v1298h-90v37h856v-311h-45v221h-352v-539h258v181h45v-422h-45v180h-258v-592h393v279h45z" />
    <glyph glyph-name="Ecircumflex" unicode="&#xca;" 
d="M553 1548h-4l-223 -102l-17 16l223 189h37l222 -189l-17 -16zM991 369v-369h-897v37h90v1298h-90v37h856v-311h-45v221h-352v-539h258v181h45v-422h-45v180h-258v-592h393v279h45z" />
    <glyph glyph-name="Edieresis" unicode="&#xcb;" 
d="M724 1645q40 0 68 -27t27 -67q-1 -39 -29 -67t-67 -28t-67 28t-28 68t28 67q28 26 68 26zM373 1645q39 0 67 -27t29 -67q0 -39 -29 -67q-30 -28 -68 -28t-66 28t-28 68t28 67q28 26 67 26zM991 369v-369h-897v37h90v1298h-90v37h856v-311h-45v221h-352v-539h258v181h45
v-422h-45v180h-258v-592h393v279h45z" />
    <glyph glyph-name="Igrave" unicode="&#xcc;" horiz-adv-x="729" 
d="M541 1462l-404 74l51 115l365 -170zM623 37v-37h-549v37h90v1298h-90v37h549v-37h-91v-1298h91z" />
    <glyph glyph-name="Iacute" unicode="&#xcd;" horiz-adv-x="729" 
d="M590 1536l-404 -74l-12 19l449 170zM623 37v-37h-549v37h90v1298h-90v37h549v-37h-91v-1298h91z" />
    <glyph glyph-name="Icircumflex" unicode="&#xce;" horiz-adv-x="729" 
d="M352 1548h-4l-223 -102l-16 16l223 189h37l221 -189l-17 -16zM623 37v-37h-549v37h90v1298h-90v37h549v-37h-91v-1298h91z" />
    <glyph glyph-name="Idieresis" unicode="&#xcf;" horiz-adv-x="729" 
d="M524 1645q40 0 66 -27q28 -27 28 -67q0 -39 -28 -67t-68 -28q-38 0 -66 28t-28 68t28 67q28 26 68 26zM172 1645q40 0 68 -27t28 -67q0 -39 -28 -67t-68 -28q-39 0 -67 28q-27 28 -27 68t27 67q28 26 67 26zM623 37v-37h-549v37h90v1298h-90v37h549v-37h-91v-1298h91z
" />
    <glyph glyph-name="Eth" unicode="&#xd0;" horiz-adv-x="1191" 
d="M692 123v1132q0 80 -80 80h-55v-686h80v-49h-80v-563h55q80 0 80 86zM1069 1010v-625q0 -201 -119 -293t-325 -92h-527v37h90v563h-106v49h106v686h-90v37h527q203 0 323 -84t121 -278z" />
    <glyph glyph-name="Ntilde" unicode="&#xd1;" horiz-adv-x="1130" 
d="M694 1470q-57 0 -114 35l-66 39q-33 18 -63 19q-59 0 -74 -60l-6 -24l-25 6l10 39q31 121 142 121q51 0 114 -35l66 -39q26 -19 74 -19t63 60l6 24l25 -6l-10 -39q-31 -121 -142 -121zM1061 1372v-37h-84v-1335h-465l-287 1335h-28v-1298h98v-37h-234v37h82v1298h-82v37
h547l287 -1335h29v1298h-99v37h236z" />
    <glyph glyph-name="Ograve" unicode="&#xd2;" horiz-adv-x="1142" 
d="M766 1462l-404 74l52 115l364 -170zM1016 1014v-633q0 -397 -447 -397q-203 0 -323 89t-119 285v629q0 401 448 402q201 0 321 -89t120 -286zM639 104v1170q0 78 -68 78t-67 -84v-1170q0 -78 68 -78t67 84z" />
    <glyph glyph-name="Oacute" unicode="&#xd3;" horiz-adv-x="1142" 
d="M791 1536l-404 -74l-12 19l364 170zM1016 1014v-633q0 -397 -447 -397q-203 0 -323 89t-119 285v629q0 401 448 402q201 0 321 -89t120 -286zM639 104v1170q0 78 -68 78t-67 -84v-1170q0 -78 68 -78t67 84z" />
    <glyph glyph-name="Ocircumflex" unicode="&#xd4;" horiz-adv-x="1142" 
d="M573 1548h-4l-223 -102l-16 16l223 189h37l221 -189l-16 -16zM1016 1014v-633q0 -397 -447 -397q-203 0 -323 89t-119 285v629q0 401 448 402q201 0 321 -89t120 -286zM639 104v1170q0 78 -68 78t-67 -84v-1170q0 -78 68 -78t67 84z" />
    <glyph glyph-name="Otilde" unicode="&#xd5;" horiz-adv-x="1142" 
d="M670 1470q-57 0 -115 35l-66 39q-33 18 -63 19q-59 0 -74 -60l-6 -24l-24 6l10 39q31 121 141 121q51 0 115 -35l65 -39q27 -19 75 -19t63 60l6 24l24 -6l-10 -39q-31 -121 -141 -121zM1016 1014v-633q0 -397 -447 -397q-203 0 -323 89t-119 285v629q0 401 448 402
q201 0 321 -89t120 -286zM639 104v1170q0 78 -68 78t-67 -84v-1170q0 -78 68 -78t67 84z" />
    <glyph glyph-name="Odieresis" unicode="&#xd6;" horiz-adv-x="1142" 
d="M842 1551q0 -39 -29 -67t-68 -28t-67 28t-27 68q0 40 28 67q27 26 67 26t68 -27t28 -67zM492 1551q0 -39 -29 -67t-68 -28t-67 28t-27 68q0 40 28 67q29 26 67 26t67 -27t29 -67zM1016 1014v-633q0 -397 -447 -397q-203 0 -323 89t-119 285v629q0 401 448 402
q201 0 321 -89t120 -286zM639 104v1170q0 78 -68 78t-67 -84v-1170q0 -78 68 -78t67 84z" />
    <glyph glyph-name="multiply" unicode="&#xd7;" horiz-adv-x="589" 
d="M328 625l209 -209l-33 -33l-209 209l-209 -209l-33 33l209 209l-209 209l33 32l209 -209l209 209l33 -32z" />
    <glyph glyph-name="Oslash" unicode="&#xd8;" horiz-adv-x="1150" 
d="M508 1268v-705l135 406v305q1 78 -67 78t-68 -84zM643 104v705l-135 -406v-305q0 -78 68 -78t67 84zM1020 1014v-633q0 -397 -447 -397q-106 0 -196 24l-29 -86h-53l35 105q-199 84 -199 331v629q0 401 449 402q109 0 194 -27l29 88h53l-35 -104q199 -88 199 -332z" />
    <glyph glyph-name="Ugrave" unicode="&#xd9;" horiz-adv-x="1032" 
d="M713 1462l-404 74l51 115l365 -170zM999 1372v-37h-81v-1007q0 -344 -312 -344q-199 0 -318 65q-141 76 -141 305v981h-90v37h561v-37h-102v-1210q0 -61 28 -83t87 -22q131 0 180 82t49 226v1007h-119v37h258z" />
    <glyph glyph-name="Uacute" unicode="&#xda;" horiz-adv-x="1032" 
d="M786 1536l-403 -74l-12 19l364 170zM999 1372v-37h-81v-1007q0 -344 -312 -344q-199 0 -318 65q-141 76 -141 305v981h-90v37h561v-37h-102v-1210q0 -61 28 -83t87 -22q131 0 180 82t49 226v1007h-119v37h258z" />
    <glyph glyph-name="Ucircumflex" unicode="&#xdb;" horiz-adv-x="1032" 
d="M582 1548h-4l-224 -102l-16 16l223 189h37l221 -189l-16 -16zM999 1372v-37h-81v-1007q0 -344 -312 -344q-199 0 -318 65q-141 76 -141 305v981h-90v37h561v-37h-102v-1210q0 -61 28 -83t87 -22q131 0 180 82t49 226v1007h-119v37h258z" />
    <glyph glyph-name="Udieresis" unicode="&#xdc;" horiz-adv-x="1032" 
d="M755 1645q39 0 67 -27t28 -67q0 -39 -29 -67t-67 -28t-67 28q-28 28 -28 68t28 67q28 26 68 26zM500 1551q0 -39 -29 -67t-68 -28t-67 28t-27 68q0 40 28 67q29 26 67 26t67 -27t29 -67zM999 1372v-37h-81v-1007q0 -344 -312 -344q-199 0 -318 65q-141 76 -141 305v981
h-90v37h561v-37h-102v-1210q0 -61 28 -83t87 -22q131 0 180 82t49 226v1007h-119v37h258z" />
    <glyph glyph-name="Yacute" unicode="&#xdd;" horiz-adv-x="856" 
d="M700 1536l-403 -74l-12 19l364 170zM885 1372v-37h-78l-180 -784v-514h90v-37h-549v37h90v514l-188 784h-78v37h557v-37h-94l143 -639h4l143 639h-94v37h234z" />
    <glyph glyph-name="Thorn" unicode="&#xde;" horiz-adv-x="1191" 
d="M1065 819v-266q0 -352 -401 -352h-107v-164h123v-37h-582v37h90v1298h-90v37h582v-37h-123v-164h82q426 0 426 -352zM688 324v731q0 80 -78 80h-53v-897h53q78 0 78 86z" />
    <glyph glyph-name="germandbls" unicode="&#xdf;" horiz-adv-x="1212" 
d="M1090 592v-256q0 -182 -100 -267t-257 -85q-77 0 -113 28t-36 107v233h43v-211q0 -59 10 -79t45 -21q55 0 55 82v622q0 68 -25 97q-26 29 -91 28h-56v45h6q41 0 60 25q18 25 18 92l-2 383q0 59 -53 60q-61 0 -62 -78v-1397h-426v37h82v833h-98v45h98v207q0 389 430 389
q367 0 367 -274v-57q0 -142 -76 -200t-219 -73v-4q43 -4 53 -6t55 -8t100 -26q56 -19 74 -33t45 -38q29 -24 51 -76t22 -124z" />
    <glyph glyph-name="agrave" unicode="&#xe0;" horiz-adv-x="1097" 
d="M1057 377v-217q0 -100 -50 -138q-49 -38 -149 -38t-159 35q-58 36 -81 128h-4q-68 -164 -274 -163q-117 0 -171 58t-54 183v86q0 145 44 205t171 88l125 29q67 14 93 41t25 71v289q0 72 -59 72q-80 0 -80 -96v-265h-287v398h41v-185h5q86 184 358 185q180 0 273 -68
t94 -227v-723q0 -68 40 -68q57 0 58 101v219h41zM573 170v469h-4q-18 -23 -58 -37t-52 -30t-13 -52v-348q0 -78 62 -78q33 0 49 22t16 54zM715 1217l-348 151l73 102l291 -237z" />
    <glyph glyph-name="aacute" unicode="&#xe1;" horiz-adv-x="1097" 
d="M752 1368l-349 -151l-16 16l291 237zM1057 377v-217q0 -100 -50 -138q-49 -38 -149 -38t-159 35q-58 36 -81 128h-4q-68 -164 -274 -163q-117 0 -171 58t-54 183v86q0 145 44 205t171 88l125 29q67 14 93 41t25 71v289q0 72 -59 72q-80 0 -80 -96v-265h-287v398h41v-185
h5q86 184 358 185q180 0 273 -68t94 -227v-723q0 -68 40 -68q57 0 58 101v219h41zM573 170v469h-4q-18 -23 -58 -37t-52 -30t-13 -52v-348q0 -78 62 -78q33 0 49 22t16 54z" />
    <glyph glyph-name="acircumflex" unicode="&#xe2;" horiz-adv-x="1097" 
d="M1057 377v-217q0 -100 -50 -138q-49 -38 -149 -38t-159 35q-58 36 -81 128h-4q-68 -164 -274 -163q-117 0 -171 58t-54 183v86q0 145 44 205t171 88l125 29q67 14 93 41t25 71v289q0 72 -59 72q-80 0 -80 -96v-265h-287v398h41v-185h5q86 184 358 185q180 0 273 -68
t94 -227v-723q0 -68 40 -68q57 0 58 101v219h41zM573 170v469h-4q-18 -23 -58 -37t-52 -30t-13 -52v-348q0 -78 62 -78q33 0 49 22t16 54zM551 1348h-4l-207 -136l-16 17l206 241h37l205 -241l-16 -17z" />
    <glyph glyph-name="atilde" unicode="&#xe3;" horiz-adv-x="1097" 
d="M639 1257q-51 0 -104 35l-62 39q-27 18 -61 19q-53 0 -66 -56l-6 -28l-23 6l9 39q25 121 133 121q51 0 104 -35l62 -39q27 -18 61 -19q53 0 66 56l6 28l22 -6l-8 -39q-25 -121 -133 -121zM1057 377v-217q0 -100 -50 -138q-49 -38 -149 -38t-159 35q-58 36 -81 128h-4
q-68 -164 -274 -163q-117 0 -171 58t-54 183v86q0 145 44 205t171 88l125 29q67 14 93 41t25 71v289q0 72 -59 72q-80 0 -80 -96v-265h-287v398h41v-185h5q86 184 358 185q180 0 273 -68t94 -227v-723q0 -68 40 -68q57 0 58 101v219h41zM573 170v469h-4q-18 -23 -58 -37
t-52 -30t-13 -52v-348q0 -78 62 -78q33 0 49 22t16 54z" />
    <glyph glyph-name="adieresis" unicode="&#xe4;" horiz-adv-x="1097" 
d="M1057 377v-217q0 -100 -50 -138q-49 -38 -149 -38t-159 35q-58 36 -81 128h-4q-68 -164 -274 -163q-117 0 -171 58t-54 183v86q0 145 44 205t171 88l125 29q67 14 93 41t25 71v289q0 72 -59 72q-80 0 -80 -96v-265h-287v398h41v-185h5q86 184 358 185q180 0 273 -68
t94 -227v-723q0 -68 40 -68q57 0 58 101v219h41zM573 170v469h-4q-18 -23 -58 -37t-52 -30t-13 -52v-348q0 -78 62 -78q33 0 49 22t16 54zM791 1367q0 -42 -29 -70q-29 -27 -70 -27q-40 0 -68 28t-28 70q0 43 28 69q28 25 68 25t70 -26q29 -26 29 -69zM502 1367
q0 -42 -29 -70q-29 -27 -70 -27t-69 28t-27 70q0 43 28 69q29 25 69 25t69 -26t29 -69z" />
    <glyph glyph-name="aring" unicode="&#xe5;" horiz-adv-x="1097" 
d="M721 1393q0 -76 -50 -124t-124 -48t-122 47t-48 124q0 76 48 122t122 46t124 -45q50 -46 50 -122zM623 1339v107q-1 47 -15 71q-14 23 -59 23t-60 -24q-14 -25 -14 -74v-107q0 -47 14 -71q13 -24 59 -23t60 25t15 73zM1057 377v-217q0 -100 -50 -138q-49 -38 -149 -38
t-159 35q-58 36 -81 128h-4q-68 -164 -274 -163q-117 0 -171 58t-54 183v86q0 145 44 205t171 88l125 29q67 14 93 41t25 71v289q0 72 -59 72q-80 0 -80 -96v-265h-287v398h41v-185h5q86 184 358 185q180 0 273 -68t94 -227v-723q0 -68 40 -68q57 0 58 101v219h41zM573 170
v469h-4q-18 -23 -58 -37t-52 -30t-13 -52v-348q0 -78 62 -78q33 0 49 22t16 54z" />
    <glyph glyph-name="ae" unicode="&#xe6;" horiz-adv-x="1470" 
d="M1360 401v-79q0 -182 -100 -260t-295 -78q-143 0 -227 43q-83 43 -113 145h-4q-17 -108 -77 -148t-186 -40t-183 54q-56 54 -56 187v86q0 143 45 203t170 90l125 29q119 27 119 112v289q0 72 -60 72q-80 0 -80 -96v-265h-286v398h41v-185h4q43 98 145 142t229 43
q127 0 191 -82h4q68 82 226 82t259 -83q100 -83 101 -247v-235h-430v-383q0 -158 151 -158q115 0 178 80t64 200v84h45zM922 627h131v405q0 74 -66 74t-65 -78v-401zM578 170v469h-5q-18 -23 -58 -37t-52 -30t-12 -52v-348q0 -78 61 -78q34 0 50 22t16 54z" />
    <glyph glyph-name="ccedilla" unicode="&#xe7;" horiz-adv-x="966" 
d="M119 780q0 182 106 272t283 91q244 0 323 -168h5v168h41v-467h-291v366q0 63 -56 64q-59 0 -59 -76v-835q0 -158 150 -158q106 0 162 71t57 185v108h45v-104q0 -313 -357 -313q-52 0 -98 6v-121h4q41 61 115 61q149 0 149 -137v-20q0 -158 -168 -158q-150 0 -149 141v11
h37v-11q0 -109 92 -108q74 0 74 108v39q0 94 -66 94q-55 0 -86 -67h-43v175q-272 58 -270 335v448z" />
    <glyph glyph-name="egrave" unicode="&#xe8;" horiz-adv-x="1019" 
d="M913 401v-79q0 -338 -383 -338q-408 0 -407 348v459q0 180 104 266q105 86 285 86t286 -78t107 -252v-235h-430v-383q0 -158 152 -158q115 0 178 80t63 200v84h45zM475 627h131v405q0 74 -66 74t-65 -78v-401zM676 1217l-348 151l73 102l291 -237z" />
    <glyph glyph-name="eacute" unicode="&#xe9;" horiz-adv-x="1019" 
d="M756 1368l-348 -151l-17 16l291 237zM913 401v-79q0 -338 -383 -338q-408 0 -407 348v459q0 180 104 266q105 86 285 86t286 -78t107 -252v-235h-430v-383q0 -158 152 -158q115 0 178 80t63 200v84h45zM475 627h131v405q0 74 -66 74t-65 -78v-401z" />
    <glyph glyph-name="ecircumflex" unicode="&#xea;" horiz-adv-x="1019" 
d="M913 401v-79q0 -338 -383 -338q-408 0 -407 348v459q0 180 104 266q105 86 285 86t286 -78t107 -252v-235h-430v-383q0 -158 152 -158q115 0 178 80t63 200v84h45zM475 627h131v405q0 74 -66 74t-65 -78v-401zM535 1348h-5l-206 -136l-17 17l207 241h37l205 -241l-17 -17
z" />
    <glyph glyph-name="edieresis" unicode="&#xeb;" horiz-adv-x="1019" 
d="M754 1367q0 -42 -29 -70q-29 -27 -70 -27t-69 28t-27 70q0 43 28 69q29 25 69 25t69 -26t29 -69zM465 1367q0 -42 -29 -70q-30 -27 -70 -27t-68 28t-28 70q0 43 28 69q28 25 69 25t69 -26t29 -69zM913 401v-79q0 -338 -383 -338q-408 0 -407 348v459q0 180 104 266
q105 86 285 86t286 -78t107 -252v-235h-430v-383q0 -158 152 -158q115 0 178 80t63 200v84h45zM475 627h131v405q0 74 -66 74t-65 -78v-401z" />
    <glyph glyph-name="igrave" unicode="&#xec;" horiz-adv-x="679" 
d="M606 37v-37h-508v37h82v1053h-82v36h426v-1089h82zM506 1217l-348 151l73 102l291 -237z" />
    <glyph glyph-name="iacute" unicode="&#xed;" horiz-adv-x="679" 
d="M563 1368l-348 -151l-16 16l290 237zM606 37v-37h-508v37h82v1053h-82v36h426v-1089h82z" />
    <glyph glyph-name="icircumflex" unicode="&#xee;" horiz-adv-x="679" 
d="M344 1348h-4l-207 -136l-16 17l207 241h36l205 -241l-16 -17zM606 37v-37h-508v37h82v1053h-82v36h426v-1089h82z" />
    <glyph glyph-name="idieresis" unicode="&#xef;" horiz-adv-x="679" 
d="M606 37v-37h-508v37h82v1053h-82v36h426v-1089h82zM582 1367q0 -42 -29 -70q-29 -27 -70 -27t-69 28t-27 70q0 43 28 69q29 25 69 25t69 -26t29 -69zM293 1367q0 -42 -29 -70q-30 -27 -70 -27t-68 28t-28 70q0 43 28 69q28 25 69 25t69 -26t29 -69z" />
    <glyph glyph-name="eth" unicode="&#xf0;" horiz-adv-x="1087" 
d="M598 94v854q0 28 -16 52t-50 24q-61 0 -61 -78v-848q-1 -78 63 -78t64 74zM942 700v-346q0 -198 -99 -284t-294 -86q-426 0 -426 374v512q0 135 57 204t199 69t215 -109h4v121q0 100 -10 152l-252 -88v49l239 84q-20 51 -71 79t-152 44v36q223 -29 348 -116l242 84v-49
l-199 -70q199 -180 199 -660z" />
    <glyph glyph-name="ntilde" unicode="&#xf1;" horiz-adv-x="1110" 
d="M164 37v1053h-82v36h422v-100h4q70 117 237 117q119 -1 170 -63t52 -185v-858h82v-37h-426v958q0 66 -50 66q-31 0 -48 -24t-17 -52v-948h-426v37h82zM645 1257q-51 0 -104 35l-62 39q-27 18 -61 19q-53 0 -66 -56l-6 -28l-22 6l8 39q25 121 133 121q51 0 104 -35l62 -39
q27 -18 61 -19q53 0 66 56l6 28l22 -6l-8 -39q-25 -121 -133 -121z" />
    <glyph glyph-name="ograve" unicode="&#xf2;" 
d="M942 795v-443q0 -368 -414 -368t-413 348v438q0 190 109 282q110 91 308 91q410 0 410 -348zM590 96v938q0 72 -62 72t-61 -76v-938q-1 -72 61 -72t62 76zM694 1217l-348 151l74 102l291 -237z" />
    <glyph glyph-name="oacute" unicode="&#xf3;" 
d="M752 1368l-349 -151l-16 16l291 237zM942 795v-443q0 -368 -414 -368t-413 348v438q0 190 109 282q110 91 308 91q410 0 410 -348zM590 96v938q0 72 -62 72t-61 -76v-938q-1 -72 61 -72t62 76z" />
    <glyph glyph-name="ocircumflex" unicode="&#xf4;" 
d="M942 795v-443q0 -368 -414 -368t-413 348v438q0 190 109 282q110 91 308 91q410 0 410 -348zM590 96v938q0 72 -62 72t-61 -76v-938q-1 -72 61 -72t62 76zM530 1348h-4l-207 -136l-16 17l207 241h37l205 -241l-17 -17z" />
    <glyph glyph-name="otilde" unicode="&#xf5;" 
d="M618 1257q-51 0 -104 35l-61 39q-27 19 -71 19t-56 -56l-7 -28l-22 6l8 39q25 121 133 121q51 0 105 -35l61 -39q27 -18 71 -18t56 55l6 28l23 -6l-8 -39q-25 -121 -134 -121zM942 795v-443q0 -368 -414 -368t-413 348v438q0 190 109 282q110 91 308 91q410 0 410 -348z
M590 96v938q0 72 -62 72t-61 -76v-938q-1 -72 61 -72t62 76z" />
    <glyph glyph-name="odieresis" unicode="&#xf6;" 
d="M942 795v-443q0 -368 -414 -368t-413 348v438q0 190 109 282q110 91 308 91q410 0 410 -348zM590 96v938q0 72 -62 72t-61 -76v-938q-1 -72 61 -72t62 76zM770 1367q0 -42 -29 -70q-29 -27 -69 -27t-69 28q-28 28 -28 70q0 43 28 69q28 25 69 25q42 0 70 -26t28 -69z
M481 1367q-1 -42 -29 -70q-28 -27 -69 -27t-69 28t-27 70q0 43 27 69q28 25 69 25t70 -26q28 -27 28 -69z" />
    <glyph glyph-name="divide" unicode="&#xf7;" horiz-adv-x="618" 
d="M432 910q0 -54 -35 -88t-88 -34t-88 34t-35 89t33 87t88 32t90 -33t35 -87zM565 649v-49h-512v49h512zM432 339q0 -54 -35 -87t-90 -33t-88 32t-33 87t35 89t88 34t88 -34t35 -88z" />
    <glyph glyph-name="oslash" unicode="&#xf8;" horiz-adv-x="1064" 
d="M471 1030v-573l123 352v225q0 72 -62 72t-61 -76zM594 96v574l-123 -353v-225q-1 -72 61 -72t62 76zM946 795v-443q0 -369 -416 -368q-92 0 -170 18l-26 -80h-49l32 94q-199 74 -198 316v438q0 190 109 282q110 91 309 91q92 0 165 -21l29 82h49l-32 -96
q198 -75 198 -313z" />
    <glyph glyph-name="ugrave" unicode="&#xf9;" horiz-adv-x="1073" 
d="M598 1126h344v-1089h82v-37h-422v98h-4q-74 -115 -238 -114q-119 0 -170 62t-51 185v859h-82v36h426v-958q0 -66 49 -66q31 0 49 24q17 24 17 52v948zM682 1217l-348 151l74 102l290 -237z" />
    <glyph glyph-name="uacute" unicode="&#xfa;" horiz-adv-x="1073" 
d="M780 1368l-348 -151l-16 16l291 237zM598 1126h344v-1089h82v-37h-422v98h-4q-74 -115 -238 -114q-119 0 -170 62t-51 185v859h-82v36h426v-958q0 -66 49 -66q31 0 49 24q17 24 17 52v948z" />
    <glyph glyph-name="ucircumflex" unicode="&#xfb;" horiz-adv-x="1073" 
d="M598 1126h344v-1089h82v-37h-422v98h-4q-74 -115 -238 -114q-119 0 -170 62t-51 185v859h-82v36h426v-958q0 -66 49 -66q31 0 49 24q17 24 17 52v948zM539 1348h-4l-207 -136l-17 17l207 241h37l205 -241l-17 -17z" />
    <glyph glyph-name="udieresis" unicode="&#xfc;" horiz-adv-x="1073" 
d="M598 1126h344v-1089h82v-37h-422v98h-4q-74 -115 -238 -114q-119 0 -170 62t-51 185v859h-82v36h426v-958q0 -66 49 -66q31 0 49 24q17 24 17 52v948zM786 1367q0 -42 -28 -70q-28 -27 -70 -27q-40 0 -68 28t-28 70q0 43 28 69q28 25 68 25t70 -26q28 -27 28 -69z
M498 1367q0 -42 -29 -70q-29 -27 -70 -27t-69 28t-27 70q0 43 28 69q29 25 69 25t69 -26t29 -69z" />
    <glyph glyph-name="yacute" unicode="&#xfd;" horiz-adv-x="884" 
d="M897 1126v-36h-74l-166 -1192q-13 -90 -37 -144q-45 -100 -174 -115q-51 -7 -143 -8h-172v213h330q77 0 107 22t40 91l6 43h-364l-152 1090h-73v36h520v-36h-86l135 -1053h29l143 1053h-86v36h217zM731 1368l-348 -151l-16 16l290 237z" />
    <glyph glyph-name="thorn" unicode="&#xfe;" horiz-adv-x="1097" 
d="M983 879v-631q0 -264 -238 -264q-162 0 -233 110h-4v-426h98v-37h-524v37h82v1790h-82v37h426v-463h4q72 111 233 111q238 0 238 -264zM635 180v766q0 78 -62 78q-33 0 -49 -23t-16 -53v-770q0 -32 16 -54t49 -22q62 0 62 78z" />
    <glyph glyph-name="ydieresis" unicode="&#xff;" horiz-adv-x="884" 
d="M897 1126v-36h-74l-166 -1192q-13 -90 -37 -144q-45 -100 -174 -115q-51 -7 -143 -8h-172v213h330q77 0 107 22t40 91l6 43h-364l-152 1090h-73v36h520v-36h-86l135 -1053h29l143 1053h-86v36h217zM748 1367q0 -42 -29 -70q-29 -27 -70 -27t-69 28t-27 70q0 43 28 69
q29 25 69 25t69 -26t29 -69zM459 1367q0 -42 -29 -70q-29 -27 -70 -27q-40 0 -68 28t-28 70q0 43 28 69q28 25 68 25t70 -26q29 -26 29 -69z" />
    <glyph glyph-name="Amacron" unicode="&#x100;" horiz-adv-x="970" 
d="M748 1573v-66h-525v66h525zM967 37v-37h-557v37h94l-60 475h-241l-64 -475h94v-37h-233v37h78l178 1298h-100v37h657v-37h-100l176 -1298h78zM209 565h227l-96 770h-29z" />
    <glyph glyph-name="amacron" unicode="&#x101;" horiz-adv-x="1097" 
d="M1057 377v-217q0 -100 -50 -138q-49 -38 -149 -38t-159 35q-58 36 -81 128h-4q-68 -164 -274 -163q-117 0 -171 58t-54 183v86q0 145 44 205t171 88l125 29q67 14 93 41t25 71v289q0 72 -59 72q-80 0 -80 -96v-265h-287v398h41v-185h5q86 184 358 185q180 0 273 -68
t94 -227v-723q0 -68 40 -68q57 0 58 101v219h41zM573 170v469h-4q-18 -23 -58 -37t-52 -30t-13 -52v-348q0 -78 62 -78q33 0 49 22t16 54zM795 1348v-66h-492v66h492z" />
    <glyph glyph-name="Abreve" unicode="&#x102;" horiz-adv-x="970" 
d="M485 1540q172 0 201 111h27q-13 -89 -69 -141t-158 -52t-159 52q-56 52 -69 141h27q28 -111 200 -111zM967 37v-37h-557v37h94l-60 475h-241l-64 -475h94v-37h-233v37h78l178 1298h-100v37h657v-37h-100l176 -1298h78zM209 565h227l-96 770h-29z" />
    <glyph glyph-name="abreve" unicode="&#x103;" horiz-adv-x="1097" 
d="M1057 377v-217q0 -100 -50 -138q-49 -38 -149 -38t-159 35q-58 36 -81 128h-4q-68 -164 -274 -163q-117 0 -171 58t-54 183v86q0 145 44 205t171 88l125 29q67 14 93 41t25 71v289q0 72 -59 72q-80 0 -80 -96v-265h-287v398h41v-185h5q86 184 358 185q180 0 273 -68
t94 -227v-723q0 -68 40 -68q57 0 58 101v219h41zM573 170v469h-4q-18 -23 -58 -37t-52 -30t-13 -52v-348q0 -78 62 -78q33 0 49 22t16 54zM549 1323q182 0 196 131h25q-4 -98 -58 -158t-163 -59q-109 0 -164 60t-57 157h24q4 -59 54 -95t143 -36z" />
    <glyph glyph-name="Aogonek" unicode="&#x104;" horiz-adv-x="970" 
d="M967 37v-37h-117l-53 -31q-135 -80 -135 -205t104 -124h12v-25h-24q-94 0 -161 34t-67 108t86 136t123 74l60 33h-385v37h94l-60 475h-241l-64 -475h94v-37h-233v37h78l178 1298h-100v37h657v-37h-100l176 -1298h78zM209 565h227l-96 770h-29z" />
    <glyph glyph-name="aogonek" unicode="&#x105;" horiz-adv-x="1097" 
d="M1057 377v-217q0 -100 -50 -138q-17 -13 -40 -22l-54 -31q-135 -80 -135 -205t105 -124h12v-25h-25q-94 0 -160 34t-67 108q0 74 86 136t123 74l32 18q-16 -1 -34 -1q-92 0 -151 35q-58 36 -81 128h-4q-68 -164 -274 -163q-117 0 -171 58t-54 183v86q0 145 44 205t171 88
l125 29q67 14 93 41t25 71v289q0 72 -59 72q-80 0 -80 -96v-265h-287v398h41v-185h5q86 184 358 185q180 0 273 -68t94 -227v-723q0 -68 40 -68q57 0 58 101v219h41zM573 170v469h-4q-18 -23 -58 -37t-52 -30t-13 -52v-348q0 -78 62 -78q33 0 49 22t16 54z" />
    <glyph glyph-name="Cacute" unicode="&#x106;" horiz-adv-x="1060" 
d="M739 1536l-403 -74l-12 19l364 170zM983 487v-153q0 -350 -397 -350q-205 0 -328 91t-123 292v624q0 201 113 299t313 99q293 0 357 -205h4v205h45v-500h-328v393q0 70 -61 70q-66 0 -66 -84v-1053q0 -96 36 -135t122 -39q132 0 198 79t66 216v151h49z" />
    <glyph glyph-name="cacute" unicode="&#x107;" horiz-adv-x="966" 
d="M885 401v-104q0 -313 -357 -313q-186 0 -298 83t-111 265v448q0 182 106 272t283 91q244 0 323 -168h5v168h41v-467h-291v366q0 63 -56 64q-59 0 -59 -76v-835q0 -158 150 -158q106 0 162 71t57 185v108h45zM727 1368l-348 -151l-17 16l291 237z" />
    <glyph glyph-name="Ccircumflex" unicode="&#x108;" horiz-adv-x="1060" 
d="M578 1548h-5l-223 -102l-16 16l223 189h37l221 -189l-16 -16zM983 487v-153q0 -350 -397 -350q-205 0 -328 91t-123 292v624q0 201 113 299t313 99q293 0 357 -205h4v205h45v-500h-328v393q0 70 -61 70q-66 0 -66 -84v-1053q0 -96 36 -135t122 -39q132 0 198 79t66 216
v151h49z" />
    <glyph glyph-name="ccircumflex" unicode="&#x109;" horiz-adv-x="966" 
d="M885 401v-104q0 -313 -357 -313q-186 0 -298 83t-111 265v448q0 182 106 272t283 91q244 0 323 -168h5v168h41v-467h-291v366q0 63 -56 64q-59 0 -59 -76v-835q0 -158 150 -158q106 0 162 71t57 185v108h45zM530 1348h-4l-207 -136l-16 17l207 241h37l205 -241l-17 -17z
" />
    <glyph glyph-name="Cdotaccent" unicode="&#x10a;" horiz-adv-x="1060" 
d="M672 1561q0 -43 -30 -73t-72 -30t-72 29t-29 73q0 44 29 72q30 28 72 27q42 1 72 -27t30 -71zM983 487v-153q0 -350 -397 -350q-205 0 -328 91t-123 292v624q0 201 113 299t313 99q293 0 357 -205h4v205h45v-500h-328v393q0 70 -61 70q-66 0 -66 -84v-1053q0 -96 36 -135
t122 -39q132 0 198 79t66 216v151h49z" />
    <glyph glyph-name="cdotaccent" unicode="&#x10b;" horiz-adv-x="966" 
d="M885 401v-104q0 -313 -357 -313q-186 0 -298 83t-111 265v448q0 182 106 272t283 91q244 0 323 -168h5v168h41v-467h-291v366q0 63 -56 64q-59 0 -59 -76v-835q0 -158 150 -158q106 0 162 71t57 185v108h45zM633 1359q0 -44 -32 -75t-75 -31q-44 0 -74 31t-30 76t31 74
q31 28 73 28t75 -30q32 -30 32 -73z" />
    <glyph glyph-name="Ccaron" unicode="&#x10c;" horiz-adv-x="1060" 
d="M569 1556h4l222 103l16 -17l-221 -188h-37l-223 188l16 17zM983 487v-153q0 -350 -397 -350q-205 0 -328 91t-123 292v624q0 201 113 299t313 99q293 0 357 -205h4v205h45v-500h-328v393q0 70 -61 70q-66 0 -66 -84v-1053q0 -96 36 -135t122 -39q132 0 198 79t66 216v151
h49z" />
    <glyph glyph-name="ccaron" unicode="&#x10d;" horiz-adv-x="966" 
d="M885 401v-104q0 -313 -357 -313q-186 0 -298 83t-111 265v448q0 182 106 272t283 91q244 0 323 -168h5v168h41v-467h-291v366q0 63 -56 64q-59 0 -59 -76v-835q0 -158 150 -158q106 0 162 71t57 185v108h45zM524 1335h4l205 135l17 -16l-205 -242h-37l-207 242l16 16z
" />
    <glyph glyph-name="Dcaron" unicode="&#x10e;" horiz-adv-x="1097" 
d="M569 1556h4l222 103l16 -17l-221 -188h-37l-223 188l16 17zM1061 1010v-625q0 -201 -119 -293t-326 -92h-526v37h90v1298h-90v37h526q203 0 324 -84t121 -278zM684 123v1132q0 80 -80 80h-55v-1298h55q80 0 80 86z" />
    <glyph glyph-name="dcaron" unicode="&#x10f;" horiz-adv-x="1097" 
d="M1237 1370q0 -74 -61 -122t-166 -48v25q180 4 180 147h-4q-12 -47 -64 -47t-80 28q-26 29 -26 67t31 65t75 27t80 -34q35 -34 35 -108zM1020 37v-37h-422v94h-4q-72 -111 -238 -110q-238 0 -237 264v631q0 264 237 264q166 0 234 -107h4v422h-98v37h442v-1458h82z
M594 178v770q0 32 -16 54t-50 22q-61 0 -61 -78v-766q0 -78 61 -78q34 0 50 22t16 54z" />
    <glyph glyph-name="Dcroat" unicode="&#x110;" horiz-adv-x="1191" 
d="M692 123v1132q0 80 -80 80h-55v-686h80v-49h-80v-563h55q80 0 80 86zM1069 1010v-625q0 -201 -119 -293t-325 -92h-527v37h90v563h-106v49h106v686h-90v37h527q203 0 323 -84t121 -278z" />
    <glyph glyph-name="dcroat" unicode="&#x111;" horiz-adv-x="1024" 
d="M594 178v770q0 32 -16 54t-50 22q-61 0 -61 -78v-766q0 -78 61 -78q34 0 50 22t16 54zM1020 37v-37h-422v94h-4q-72 -111 -238 -110q-238 0 -237 264v631q0 264 237 264q166 0 234 -107h4v221h-156v50h156v151h-98v37h442v-188h98v-50h-98v-1220h82z" />
    <glyph glyph-name="Emacron" unicode="&#x112;" 
d="M825 1573v-66h-524v66h524zM991 369v-369h-897v37h90v1298h-90v37h856v-311h-45v221h-352v-539h258v181h45v-422h-45v180h-258v-592h393v279h45z" />
    <glyph glyph-name="emacron" unicode="&#x113;" horiz-adv-x="1019" 
d="M913 401v-79q0 -338 -383 -338q-408 0 -407 348v459q0 180 104 266q105 86 285 86t286 -78t107 -252v-235h-430v-383q0 -158 152 -158q115 0 178 80t63 200v84h45zM475 627h131v405q0 74 -66 74t-65 -78v-401zM774 1348v-66h-491v66h491z" />
    <glyph glyph-name="Ebreve" unicode="&#x114;" 
d="M551 1540q172 0 201 111h26q-12 -89 -68 -141t-158 -52t-160 52q-56 52 -68 141h26q29 -111 201 -111zM991 369v-369h-897v37h90v1298h-90v37h856v-311h-45v221h-352v-539h258v181h45v-422h-45v180h-258v-592h393v279h45z" />
    <glyph glyph-name="ebreve" unicode="&#x115;" horiz-adv-x="1019" 
d="M913 401v-79q0 -338 -383 -338q-408 0 -407 348v459q0 180 104 266q105 86 285 86t286 -78t107 -252v-235h-430v-383q0 -158 152 -158q115 0 178 80t63 200v84h45zM475 627h131v405q0 74 -66 74t-65 -78v-401zM528 1323q182 0 197 131h25q-4 -98 -58 -158t-164 -59
q-110 0 -164 60t-57 157h25q4 -59 53 -95t143 -36z" />
    <glyph glyph-name="Edotaccent" unicode="&#x116;" 
d="M631 1561q0 -43 -30 -73t-72 -30q-41 0 -71 29t-30 73t29 72t71 27q42 1 73 -27q30 -28 30 -71zM991 369v-369h-897v37h90v1298h-90v37h856v-311h-45v221h-352v-539h258v181h45v-422h-45v180h-258v-592h393v279h45z" />
    <glyph glyph-name="edotaccent" unicode="&#x117;" horiz-adv-x="1019" 
d="M913 401v-79q0 -338 -383 -338q-408 0 -407 348v459q0 180 104 266q105 86 285 86t286 -78t107 -252v-235h-430v-383q0 -158 152 -158q115 0 178 80t63 200v84h45zM475 627h131v405q0 74 -66 74t-65 -78v-401zM633 1359q0 -44 -32 -75t-75 -31q-44 0 -74 31t-30 76t31 74
q31 28 73 28t75 -30q32 -30 32 -73z" />
    <glyph glyph-name="Eogonek" unicode="&#x118;" 
d="M991 369v-369h-82l-53 -31q-135 -80 -135 -205t104 -124h13v-25h-25q-94 0 -161 34q-66 34 -66 108t86 136t123 74l59 33h-760v37h90v1298h-90v37h856v-311h-45v221h-352v-539h258v181h45v-422h-45v180h-258v-592h393v279h45z" />
    <glyph glyph-name="eogonek" unicode="&#x119;" horiz-adv-x="1019" 
d="M913 401v-79q0 -264 -234 -322l-52 -31q-135 -80 -135 -205t104 -124h12v-25h-24q-94 0 -161 34t-67 108t86 136t123 74l36 20q-33 -3 -71 -3q-408 0 -407 348v459q0 180 104 266q105 86 285 86t286 -78t107 -252v-235h-430v-383q0 -158 152 -158q115 0 178 80t63 200v84
h45zM475 627h131v405q0 74 -66 74t-65 -78v-401z" />
    <glyph glyph-name="Ecaron" unicode="&#x11a;" 
d="M586 1556h4l221 103l16 -17l-221 -188h-37l-223 188l16 17zM991 369v-369h-897v37h90v1298h-90v37h856v-311h-45v221h-352v-539h258v181h45v-422h-45v180h-258v-592h393v279h45z" />
    <glyph glyph-name="ecaron" unicode="&#x11b;" horiz-adv-x="1019" 
d="M913 401v-79q0 -338 -383 -338q-408 0 -407 348v459q0 180 104 266q105 86 285 86t286 -78t107 -252v-235h-430v-383q0 -158 152 -158q115 0 178 80t63 200v84h45zM475 627h131v405q0 74 -66 74t-65 -78v-401zM526 1335h4l205 135l17 -16l-205 -242h-37l-207 242l16 16z
" />
    <glyph glyph-name="Gcircumflex" unicode="&#x11c;" horiz-adv-x="1118" 
d="M573 1548h-4l-223 -102l-16 16l223 189h37l221 -189l-16 -16zM995 659v-675h-45v213h-4q-72 -213 -381 -213q-438 0 -438 376v613q0 207 117 311t323 105q299 0 363 -205h4v205h45v-476h-328v359q0 80 -71 80q-76 0 -76 -97v-1126q0 -109 86 -109q78 0 78 91v495h-95v53
h422z" />
    <glyph glyph-name="gcircumflex" unicode="&#x11d;" 
d="M1028 1245v-241q-63 0 -91 -20t-28 -81v-203q0 -356 -397 -356h-197q-86 0 -86 -51q0 -23 15 -34t57 -11h371q156 0 234 -62t77 -202q0 -197 -122 -283t-302 -86q-96 0 -162 8q-175 21 -247 119q-43 57 -60 147v5h336v-23q0 -133 33 -176t147 -43q217 0 217 186
q0 76 -32 104q-33 28 -109 27h-217q-215 0 -277 48q-27 22 -48 65q-22 43 -21 106q0 193 219 193v4q-223 59 -223 315v84q0 184 105 272t292 87q270 0 352 -209h4v133q0 86 36 132t124 46zM565 446v596q0 63 -53 64q-53 0 -53 -66v-596q0 -63 53 -63q53 -1 53 65zM514 1348
h-4l-207 -136l-16 17l207 241h36l205 -241l-16 -17z" />
    <glyph glyph-name="Gbreve" unicode="&#x11e;" horiz-adv-x="1118" 
d="M559 1540q172 0 201 111h26q-12 -89 -68 -141t-158 -52t-160 52q-56 52 -68 141h26q29 -111 201 -111zM995 659v-675h-45v213h-4q-72 -213 -381 -213q-438 0 -438 376v613q0 207 117 311t323 105q299 0 363 -205h4v205h45v-476h-328v359q0 80 -71 80q-76 0 -76 -97v-1126
q0 -109 86 -109q78 0 78 91v495h-95v53h422z" />
    <glyph glyph-name="gbreve" unicode="&#x11f;" 
d="M1028 1245v-241q-63 0 -91 -20t-28 -81v-203q0 -356 -397 -356h-197q-86 0 -86 -51q0 -23 15 -34t57 -11h371q156 0 234 -62t77 -202q0 -197 -122 -283t-302 -86q-96 0 -162 8q-175 21 -247 119q-43 57 -60 147v5h336v-23q0 -133 33 -176t147 -43q217 0 217 186
q0 76 -32 104q-33 28 -109 27h-217q-215 0 -277 48q-27 22 -48 65q-22 43 -21 106q0 193 219 193v4q-223 59 -223 315v84q0 184 105 272t292 87q270 0 352 -209h4v133q0 86 36 132t124 46zM565 446v596q0 63 -53 64q-53 0 -53 -66v-596q0 -63 53 -63q53 -1 53 65zM512 1323
q182 0 197 131h24q-4 -98 -58 -158t-163 -59q-109 0 -164 60t-57 157h24q3 -59 53 -95t144 -36z" />
    <glyph glyph-name="Gdotaccent" unicode="&#x120;" horiz-adv-x="1118" 
d="M672 1561q0 -43 -30 -73t-72 -30t-72 29t-29 73q0 44 29 72q30 28 72 27q42 1 72 -27t30 -71zM995 659v-675h-45v213h-4q-72 -213 -381 -213q-438 0 -438 376v613q0 207 117 311t323 105q299 0 363 -205h4v205h45v-476h-328v359q0 80 -71 80q-76 0 -76 -97v-1126
q0 -109 86 -109q78 0 78 91v495h-95v53h422z" />
    <glyph glyph-name="gdotaccent" unicode="&#x121;" 
d="M1028 1245v-241q-63 0 -91 -20t-28 -81v-203q0 -356 -397 -356h-197q-86 0 -86 -51q0 -23 15 -34t57 -11h371q156 0 234 -62t77 -202q0 -197 -122 -283t-302 -86q-96 0 -162 8q-175 21 -247 119q-43 57 -60 147v5h336v-23q0 -133 33 -176t147 -43q217 0 217 186
q0 76 -32 104q-33 28 -109 27h-217q-215 0 -277 48q-27 22 -48 65q-22 43 -21 106q0 193 219 193v4q-223 59 -223 315v84q0 184 105 272t292 87q270 0 352 -209h4v133q0 86 36 132t124 46zM565 446v596q0 63 -53 64q-53 0 -53 -66v-596q0 -63 53 -63q53 -1 53 65zM625 1359
q0 -44 -32 -75t-75 -31t-74 31t-30 76q0 45 30 74q31 28 74 28t75 -30t32 -73z" />
    <glyph glyph-name="Gcommaaccent" unicode="&#x122;" horiz-adv-x="1118" 
d="M551 -268q-49 0 -76 28t-27 70q0 41 32 69q32 27 79 27t83 -34t36 -110t-65 -125q-65 -50 -171 -50v33q179 4 181 127h-5q-18 -35 -67 -35zM995 659v-675h-45v213h-4q-72 -213 -381 -213q-438 0 -438 376v613q0 207 117 311t323 105q299 0 363 -205h4v205h45v-476h-328
v359q0 80 -71 80q-76 0 -76 -97v-1126q0 -109 86 -109q78 0 78 91v495h-95v53h422z" />
    <glyph glyph-name="gcommaaccent" unicode="&#x123;" 
d="M538 1436q48 0 76 -29t27 -70q0 -41 -32 -69t-79 -27q-47 0 -83 34q-35 33 -35 109t64 126q65 50 171 51v-33q-178 -4 -180 -127h4q19 35 67 35zM1028 1245v-241q-63 0 -91 -20t-28 -81v-203q0 -356 -397 -356h-197q-86 0 -86 -51q0 -23 15 -34t57 -11h371q156 0 234 -62
t77 -202q0 -197 -122 -283t-302 -86q-96 0 -162 8q-175 21 -247 119q-43 57 -60 147v5h336v-23q0 -133 33 -176t147 -43q217 0 217 186q0 76 -32 104q-33 28 -109 27h-217q-215 0 -277 48q-27 22 -48 65q-22 43 -21 106q0 193 219 193v4q-223 59 -223 315v84q0 184 105 272
t292 87q270 0 352 -209h4v133q0 86 36 132t124 46zM565 446v596q0 63 -53 64q-53 0 -53 -66v-596q0 -63 53 -63q53 -1 53 65z" />
    <glyph glyph-name="Hcircumflex" unicode="&#x124;" horiz-adv-x="1232" 
d="M618 1548h-4l-223 -102l-16 16l223 189h37l221 -189l-16 -16zM1135 37v-37h-459v686h-127v-686h-459v37h90v1298h-90v37h459v-633h127v633h459v-37h-91v-1298h91z" />
    <glyph glyph-name="hcircumflex" unicode="&#x125;" horiz-adv-x="1097" 
d="M1040 37v-37h-426v958q0 66 -49 66q-31 0 -48 -24t-17 -52v-948h-426v37h82v1421h-82v37h426v-463h4q72 111 233 111q119 -1 170 -63t51 -185v-858h82zM319 1716h-4l-206 -135l-17 16l207 242h37l205 -242l-17 -16z" />
    <glyph glyph-name="Hbar" unicode="&#x126;" horiz-adv-x="1232" 
d="M553 739h127v256h-127v-256zM1139 37v-37h-459v686h-127v-686h-459v37h90v958h-118v49h118v291h-90v37h459v-328h127v328h459v-37h-90v-291h118v-49h-118v-958h90z" />
    <glyph glyph-name="hbar" unicode="&#x127;" horiz-adv-x="1097" 
d="M1040 37v-37h-426v958q0 66 -49 66q-31 0 -48 -24t-17 -52v-948h-426v37h82v1220h-99v50h99v151h-82v37h426v-188h155v-50h-155v-225h4q72 111 233 111q119 -1 170 -63t51 -185v-858h82z" />
    <glyph glyph-name="Itilde" unicode="&#x128;" horiz-adv-x="729" 
d="M449 1470q-57 0 -115 35l-66 39q-33 18 -63 19q-59 0 -74 -60l-6 -24l-25 6l11 39q31 121 141 121q51 0 115 -35l65 -39q27 -19 75 -19t62 60l6 24l25 -6l-10 -39q-31 -121 -141 -121zM623 37v-37h-549v37h90v1298h-90v37h549v-37h-91v-1298h91z" />
    <glyph glyph-name="itilde" unicode="&#x129;" horiz-adv-x="679" 
d="M606 37v-37h-508v37h82v1053h-82v36h426v-1089h82zM430 1257q-51 0 -104 35l-62 39q-27 18 -61 19q-53 0 -66 -56l-6 -28l-22 6l8 39q25 121 133 121q51 0 104 -35l62 -39q27 -18 61 -19q53 0 66 56l6 28l22 -6l-8 -39q-25 -121 -133 -121z" />
    <glyph glyph-name="Imacron" unicode="&#x12a;" horiz-adv-x="729" 
d="M608 1573v-66h-524v66h524zM623 37v-37h-549v37h90v1298h-90v37h549v-37h-91v-1298h91z" />
    <glyph glyph-name="imacron" unicode="&#x12b;" horiz-adv-x="679" 
d="M606 37v-37h-508v37h82v1053h-82v36h426v-1089h82zM586 1348v-66h-492v66h492z" />
    <glyph glyph-name="Iogonek" unicode="&#x12e;" horiz-adv-x="729" 
d="M623 37v-37h-123l-54 -31q-135 -80 -135 -205t105 -124h12v-25h-25q-95 0 -161 34t-66 108t86 136t123 74l59 33h-370v37h90v1298h-90v37h549v-37h-91v-1298h91z" />
    <glyph glyph-name="iogonek" unicode="&#x12f;" horiz-adv-x="679" 
d="M352 1524q60 0 98 -36t38 -95t-39 -98q-39 -38 -97 -38t-97 37q-38 38 -38 98t38 96t97 36zM606 37v-37h-121l-53 -31q-135 -80 -135 -205t104 -124h13v-25h-25q-94 0 -161 34q-66 34 -66 108t86 136t123 74l59 33h-332v37h82v1053h-82v36h426v-1089h82z" />
    <glyph glyph-name="Idotaccent" unicode="&#x130;" horiz-adv-x="729" 
d="M449 1561q0 -43 -30 -73t-73 -30t-72 29q-28 29 -28 73t28 72t72 27q43 1 73 -27t30 -71zM623 37v-37h-549v37h90v1298h-90v37h549v-37h-91v-1298h91z" />
    <glyph glyph-name="dotlessi" unicode="&#x131;" horiz-adv-x="679" 
d="M606 37v-37h-508v37h82v1053h-82v36h426v-1089h82z" />
    <glyph glyph-name="IJ" unicode="&#x132;" horiz-adv-x="1630" 
d="M1581 1372v-37h-90v-977q0 -188 -112 -281t-300 -93q-291 0 -334 204h-4v-204h-45v585h312v-485q0 -63 55 -64q59 0 59 76v1239h-114v37h573zM623 37v-37h-549v37h90v1298h-90v37h549v-37h-91v-1298h91z" />
    <glyph glyph-name="ij" unicode="&#x133;" horiz-adv-x="1347" 
d="M1028 1524q59 0 97 -36t38 -95t-39 -97t-97 -39q-58 0 -96 37q-38 38 -38 98t38 96t97 36zM1200 1126v-1122q0 -188 -80 -280t-264 -93h-156v37h23q73 0 103 39t30 119v1264h-82v36h426zM352 1524q60 0 98 -36t38 -95t-39 -98q-39 -38 -97 -38t-97 37q-38 38 -38 98
t38 96t97 36zM606 37v-37h-508v37h82v1053h-82v36h426v-1089h82z" />
    <glyph glyph-name="Jcircumflex" unicode="&#x134;" horiz-adv-x="970" 
d="M651 1548h-4l-223 -102l-16 16l223 189h37l221 -189l-17 -16zM922 1372v-37h-91v-977q1 -188 -111 -281t-300 -93q-291 0 -334 204h-4v-204h-45v585h311v-485q0 -63 55 -64q59 0 60 76v1239h-115v37h574z" />
    <glyph glyph-name="jcircumflex" unicode="&#x135;" horiz-adv-x="679" 
d="M352 1348h-4l-207 -136l-16 17l207 241h37l204 -241l-16 -17zM532 1126v-1122q0 -188 -80 -280t-264 -93h-155v37h22q74 0 104 39t29 119v1264h-82v36h426z" />
    <glyph glyph-name="Kcommaaccent" unicode="&#x136;" horiz-adv-x="1220" 
d="M622 -268q-50 0 -76 28t-26 70q0 41 32 69q32 27 79 27t83 -34t36 -110t-65 -125q-65 -50 -171 -50v33q178 4 180 127h-4q-18 -35 -68 -35zM1180 393v-215q0 -114 -50 -154t-169 -40q-208 0 -268 117q-26 52 -25 130v418q0 80 -80 80h-27v-692h74v-37h-533v37h91v1298
h-91v37h553v-37h-94v-569h57l316 569h-119v37h279v-37h-95l-319 -569h12q186 0 266 -65t78 -199v-377q0 -68 41 -68q57 0 58 101v235h45z" />
    <glyph glyph-name="kcommaaccent" unicode="&#x137;" horiz-adv-x="1118" 
d="M551 -268q-49 0 -76 28t-27 70q0 41 32 69q32 27 79 27t83 -34t36 -110t-65 -125q-65 -50 -171 -50v33q179 4 181 127h-5q-18 -35 -67 -35zM1073 393v-233q0 -100 -49 -138t-152 -38q-258 0 -258 206v383q0 90 -75 91h-23v-627h62v-37h-488v37h82v1421h-82v37h426v-795
h62l323 390h-119v36h271v-36h-86l-328 -390h18q154 0 215 -42t62 -189v-344q0 -68 41 -68q57 0 57 101v235h41z" />
    <glyph glyph-name="kgreenlandic" unicode="&#x138;" horiz-adv-x="1118" 
d="M1073 393v-233q0 -100 -49 -138t-152 -38q-258 0 -258 206v383q0 90 -75 91h-23v-627h62v-37h-488v37h82v1053h-82v36h426v-426h62l323 390h-119v36h271v-36h-86l-328 -390h18q154 0 215 -42t62 -189v-344q0 -68 41 -68q57 0 57 101v235h41z" />
    <glyph glyph-name="Lacute" unicode="&#x139;" horiz-adv-x="950" 
d="M598 1536l-403 -74l-13 19l365 170zM905 401v-401h-823v37h90v1298h-90v37h582v-37h-123v-1245h319v311h45z" />
    <glyph glyph-name="lacute" unicode="&#x13a;" horiz-adv-x="602" 
d="M483 37h82v-37h-508v37h82v1421h-82v37h426v-1458zM522 1737l-348 -152l-16 17l291 237z" />
    <glyph glyph-name="Lcommaaccent" unicode="&#x13b;" horiz-adv-x="950" 
d="M488 -268q-50 0 -76 28t-27 70q0 41 32 69q32 27 79 27t83 -34q35 -34 35 -110t-64 -125q-64 -50 -171 -50v33q178 4 180 127h-4q-17 -35 -67 -35zM905 401v-401h-823v37h90v1298h-90v37h582v-37h-123v-1245h319v311h45z" />
    <glyph glyph-name="lcommaaccent" unicode="&#x13c;" horiz-adv-x="602" 
d="M293 -268q-49 0 -76 28t-27 70q0 41 32 69q32 27 79 27t83 -34t36 -110t-65 -125q-65 -50 -171 -50v33q179 4 181 127h-5q-18 -35 -67 -35zM483 37h82v-37h-508v37h82v1421h-82v37h426v-1458z" />
    <glyph glyph-name="Lcaron" unicode="&#x13d;" horiz-adv-x="950" 
d="M930 1248q0 -74 -62 -122t-166 -49v25q180 4 181 147h-4q-13 -47 -65 -47t-79 28t-27 66t31 66q31 27 76 27t80 -33q35 -34 35 -108zM905 401v-401h-823v37h90v1298h-90v37h582v-37h-123v-1245h319v311h45z" />
    <glyph glyph-name="lcaron" unicode="&#x13e;" horiz-adv-x="630" 
d="M795 1370q1 -74 -61 -122t-167 -48v25q180 4 181 147h-5q-12 -47 -64 -47t-79 28q-27 29 -27 67t31 65t76 27t80 -34t35 -108zM483 37h82v-37h-508v37h82v1421h-82v37h426v-1458z" />
    <glyph glyph-name="Ldot" unicode="&#x13f;" horiz-adv-x="950" 
d="M905 401v-401h-823v37h90v1298h-90v37h582v-37h-123v-1245h319v311h45zM758 754q64 0 108 -40q43 -40 43 -106t-43 -108t-106 -41q-63 0 -107 42q-43 41 -43 107t42 106t106 40z" />
    <glyph glyph-name="ldot" unicode="&#x140;" horiz-adv-x="851" 
d="M582 608q0 66 42 106t106 40t108 -40t43 -106q0 -66 -43 -108q-42 -42 -106 -41q-64 0 -107 42q-43 41 -43 107zM483 37h82v-37h-508v37h82v1421h-82v37h426v-1458z" />
    <glyph glyph-name="Lslash" unicode="&#x141;" horiz-adv-x="1005" 
d="M940 401v-401h-823v37h90v442l-141 -65v49l141 65v807h-90v37h581v-37h-123v-635l283 134v-50l-283 -133v-561h320v311h45z" />
    <glyph glyph-name="lslash" unicode="&#x142;" horiz-adv-x="655" 
d="M166 1458h-82v37h426v-768l141 68v-50l-141 -67v-641h82v-37h-508v37h82v481l-141 -65v49l141 65v891z" />
    <glyph glyph-name="Nacute" unicode="&#x143;" horiz-adv-x="1130" 
d="M831 1536l-403 -74l-12 19l364 170zM1061 1372v-37h-84v-1335h-465l-287 1335h-28v-1298h98v-37h-234v37h82v1298h-82v37h547l287 -1335h29v1298h-99v37h236z" />
    <glyph glyph-name="nacute" unicode="&#x144;" horiz-adv-x="1110" 
d="M164 37v1053h-82v36h422v-100h4q70 117 237 117q119 -1 170 -63t52 -185v-858h82v-37h-426v958q0 66 -50 66q-31 0 -48 -24t-17 -52v-948h-426v37h82zM834 1368l-349 -151l-16 16l291 237z" />
    <glyph glyph-name="Ncommaaccent" unicode="&#x145;" horiz-adv-x="1130" 
d="M558 -268q-50 0 -77 28t-27 70q0 41 32 69q32 27 79 27t83 -34t36 -110t-64 -125q-64 -50 -171 -50v33q178 4 180 127h-4q-17 -35 -67 -35zM1061 1372v-37h-84v-1335h-465l-287 1335h-28v-1298h98v-37h-234v37h82v1298h-82v37h547l287 -1335h29v1298h-99v37h236z" />
    <glyph glyph-name="ncommaaccent" unicode="&#x146;" horiz-adv-x="1110" 
d="M547 -268q-49 0 -76 28t-27 70q0 41 32 69q32 27 79 27t83 -34t36 -110t-65 -125q-65 -50 -171 -50v33q178 4 180 127h-4q-18 -35 -67 -35zM164 37v1053h-82v36h422v-100h4q70 117 237 117q119 -1 170 -63t52 -185v-858h82v-37h-426v958q0 66 -50 66q-31 0 -48 -24
t-17 -52v-948h-426v37h82z" />
    <glyph glyph-name="Ncaron" unicode="&#x147;" horiz-adv-x="1130" 
d="M586 1556h4l221 103l16 -17l-221 -188h-37l-223 188l16 17zM1061 1372v-37h-84v-1335h-465l-287 1335h-28v-1298h98v-37h-234v37h82v1298h-82v37h547l287 -1335h29v1298h-99v37h236z" />
    <glyph glyph-name="ncaron" unicode="&#x148;" horiz-adv-x="1110" 
d="M164 37v1053h-82v36h422v-100h4q70 117 237 117q119 -1 170 -63t52 -185v-858h82v-37h-426v958q0 66 -50 66q-31 0 -48 -24t-17 -52v-948h-426v37h82zM567 1335h4l205 135l17 -16l-205 -242h-37l-207 242l16 16z" />
    <glyph glyph-name="napostrophe" unicode="&#x149;" horiz-adv-x="1110" 
d="M320 1313q-50 1 -76 29t-27 69q0 41 32 69t79 28t83 -34q35 -34 35 -110t-64 -126t-171 -50v33q178 4 180 127h-4q-17 -35 -67 -35zM164 37v1053h-82v36h422v-100h4q70 117 237 117q119 -1 170 -63t52 -185v-858h82v-37h-426v958q0 66 -50 66q-31 0 -48 -24t-17 -52v-948
h-426v37h82z" />
    <glyph glyph-name="Omacron" unicode="&#x14c;" horiz-adv-x="1142" 
d="M834 1573v-66h-525v66h525zM1016 1014v-633q0 -397 -447 -397q-203 0 -323 89t-119 285v629q0 401 448 402q201 0 321 -89t120 -286zM639 104v1170q0 78 -68 78t-67 -84v-1170q0 -78 68 -78t67 84z" />
    <glyph glyph-name="omacron" unicode="&#x14d;" 
d="M942 795v-443q0 -368 -414 -368t-413 348v438q0 190 109 282q110 91 308 91q410 0 410 -348zM590 96v938q0 72 -62 72t-61 -76v-938q-1 -72 61 -72t62 76zM774 1348v-66h-491v66h491z" />
    <glyph glyph-name="Obreve" unicode="&#x14e;" horiz-adv-x="1142" 
d="M571 1540q172 0 201 111h27q-13 -89 -69 -141t-158 -52t-159 52q-56 52 -69 141h27q28 -111 200 -111zM1016 1014v-633q0 -397 -447 -397q-203 0 -323 89t-119 285v629q0 401 448 402q201 0 321 -89t120 -286zM639 104v1170q0 78 -68 78t-67 -84v-1170q0 -78 68 -78
t67 84z" />
    <glyph glyph-name="obreve" unicode="&#x14f;" 
d="M942 795v-443q0 -368 -414 -368t-413 348v438q0 190 109 282q110 91 308 91q410 0 410 -348zM590 96v938q0 72 -62 72t-61 -76v-938q-1 -72 61 -72t62 76zM528 1323q182 0 197 131h25q-4 -98 -58 -158t-164 -59q-110 0 -164 60t-57 157h25q4 -59 53 -95t143 -36z" />
    <glyph glyph-name="Ohungarumlaut" unicode="&#x150;" horiz-adv-x="1142" 
d="M969 1544l-355 -102l-12 18l307 191zM662 1544l-355 -102l-12 18l307 191zM1016 1014v-633q0 -397 -447 -397q-203 0 -323 89t-119 285v629q0 401 448 402q201 0 321 -89t120 -286zM639 104v1170q0 78 -68 78t-67 -84v-1170q0 -78 68 -78t67 84z" />
    <glyph glyph-name="ohungarumlaut" unicode="&#x151;" 
d="M942 795v-443q0 -368 -414 -368t-413 348v438q0 190 109 282q110 91 308 91q410 0 410 -348zM590 96v938q0 72 -62 72t-61 -76v-938q-1 -72 61 -72t62 76zM655 1376l-303 -159l-16 16l246 237zM885 1376l-303 -159l-17 16l250 237z" />
    <glyph glyph-name="OE" unicode="&#x152;" horiz-adv-x="1486" 
d="M1417 369v-369h-626v57h-5q-74 -73 -244 -73t-291 89q-120 89 -120 285v629q0 205 117 303t317 99q143 0 221 -66h5v49h585v-311h-45v229h-311v-547h217v181h45v-422h-45v180h-217v-600h352v287h45zM643 104v1170q0 78 -68 78t-67 -84v-1170q0 -78 68 -78t67 84z" />
    <glyph glyph-name="oe" unicode="&#x153;" horiz-adv-x="1495" 
d="M1384 401v-79q0 -338 -374 -338q-158 0 -240 65h-4q-80 -66 -240 -65q-408 0 -407 348v438q0 188 109 281q110 92 280 92t258 -66h4q84 66 240 66t260 -79q106 -79 106 -251v-235h-430v-383q0 -158 152 -158q115 0 178 80t63 200v84h45zM946 627h131v405q1 74 -65 74
t-66 -78v-401zM594 96v938q0 72 -62 72t-61 -76v-938q-1 -72 61 -72t62 76z" />
    <glyph glyph-name="Racute" unicode="&#x154;" horiz-adv-x="1228" 
d="M821 1536l-403 -74l-12 19l364 170zM1192 377v-199q0 -110 -51 -152t-170 -42q-291 0 -291 237v397q0 68 -68 68h-55v-649h90v-37h-549v37h90v1298h-90v37h535q367 0 366 -301v-57q0 -137 -56 -208t-189 -93v-4q125 1 210 -53t85 -173v-358q0 -42 9 -55q9 -12 27 -13
q61 0 62 101v219h45zM664 801v463q0 72 -72 71h-35v-612h35q72 0 72 78z" />
    <glyph glyph-name="racute" unicode="&#x155;" horiz-adv-x="995" 
d="M934 920v-285h-324v323q0 66 -47 66q-29 0 -42 -20t-13 -43v-924h115v-37h-541v37h82v1053h-82v36h422v-94h4q70 111 225 111q111 0 156 -54t45 -169zM731 1368l-348 -151l-16 16l290 237z" />
    <glyph glyph-name="Rcommaaccent" unicode="&#x156;" horiz-adv-x="1228" 
d="M604 -268q-50 0 -76 28t-26 70q0 41 32 69q32 27 78 27t83 -34q36 -34 36 -110q-1 -76 -65 -125q-64 -50 -170 -50v33q178 4 180 127h-4q-18 -35 -68 -35zM1192 377v-199q0 -110 -51 -152t-170 -42q-291 0 -291 237v397q0 68 -68 68h-55v-649h90v-37h-549v37h90v1298h-90
v37h535q367 0 366 -301v-57q0 -137 -56 -208t-189 -93v-4q125 1 210 -53t85 -173v-358q0 -42 9 -55q9 -12 27 -13q61 0 62 101v219h45zM664 801v463q0 72 -72 71h-35v-612h35q72 0 72 78z" />
    <glyph glyph-name="rcommaaccent" unicode="&#x157;" horiz-adv-x="995" 
d="M332 -268q-49 0 -76 28t-27 70q0 41 32 69q32 27 79 27t83 -34t36 -110t-65 -125q-65 -50 -171 -50v33q178 4 180 127h-4q-18 -35 -67 -35zM934 920v-285h-324v323q0 66 -47 66q-29 0 -42 -20t-13 -43v-924h115v-37h-541v37h82v1053h-82v36h422v-94h4q70 111 225 111
q111 0 156 -54t45 -169z" />
    <glyph glyph-name="Rcaron" unicode="&#x158;" horiz-adv-x="1228" 
d="M569 1556h4l222 103l16 -17l-221 -188h-37l-223 188l16 17zM1192 377v-199q0 -110 -51 -152t-170 -42q-291 0 -291 237v397q0 68 -68 68h-55v-649h90v-37h-549v37h90v1298h-90v37h535q367 0 366 -301v-57q0 -137 -56 -208t-189 -93v-4q125 1 210 -53t85 -173v-358
q0 -42 9 -55q9 -12 27 -13q61 0 62 101v219h45zM664 801v463q0 72 -72 71h-35v-612h35q72 0 72 78z" />
    <glyph glyph-name="rcaron" unicode="&#x159;" horiz-adv-x="995" 
d="M934 920v-285h-324v323q0 66 -47 66q-29 0 -42 -20t-13 -43v-924h115v-37h-541v37h82v1053h-82v36h422v-94h4q70 111 225 111q111 0 156 -54t45 -169zM526 1335h4l205 135l17 -16l-205 -242h-37l-207 242l16 16z" />
    <glyph glyph-name="Sacute" unicode="&#x15a;" horiz-adv-x="1085" 
d="M840 1536l-404 -74l-12 19l364 170zM156 907v127q0 188 104 272t305 83q143 1 233 -51t111 -187h4v238h45v-426h-335v307q0 82 -68 82t-68 -86v-172q-1 -55 13 -83t59 -57l225 -147q102 -59 148 -138t47 -196v-123q0 -194 -110 -280t-328 -86t-308 118q-37 51 -49 127h-4
v-245h-45v442h357v-324q0 -82 68 -82t67 86v195q0 59 -15 94q-14 35 -61 62l-250 147q-145 86 -145 303z" />
    <glyph glyph-name="sacute" unicode="&#x15b;" horiz-adv-x="1009" 
d="M903 379v-66q0 -330 -387 -329q-143 0 -225 47t-115 149h-4v-196h-41v360h324v-250q0 -74 61 -74t62 76v156q0 49 -12 76t-52 47l-244 123q-139 70 -139 254v79q0 311 373 312q139 0 219 -43t108 -146h5v189h41v-344h-316v233q0 74 -61 74t-62 -78v-127q0 -47 10 -72
t50 -43l241 -122q164 -86 164 -285zM752 1368l-349 -151l-16 16l291 237z" />
    <glyph glyph-name="Scircumflex" unicode="&#x15c;" horiz-adv-x="1085" 
d="M565 1548h-4l-223 -102l-16 16l223 189h37l221 -189l-17 -16zM156 907v127q0 188 104 272t305 83q143 1 233 -51t111 -187h4v238h45v-426h-335v307q0 82 -68 82t-68 -86v-172q-1 -55 13 -83t59 -57l225 -147q102 -59 148 -138t47 -196v-123q0 -194 -110 -280t-328 -86
t-308 118q-37 51 -49 127h-4v-245h-45v442h357v-324q0 -82 68 -82t67 86v195q0 59 -15 94q-14 35 -61 62l-250 147q-145 86 -145 303z" />
    <glyph glyph-name="scircumflex" unicode="&#x15d;" horiz-adv-x="1009" 
d="M903 379v-66q0 -330 -387 -329q-143 0 -225 47t-115 149h-4v-196h-41v360h324v-250q0 -74 61 -74t62 76v156q0 49 -12 76t-52 47l-244 123q-139 70 -139 254v79q0 311 373 312q139 0 219 -43t108 -146h5v189h41v-344h-316v233q0 74 -61 74t-62 -78v-127q0 -47 10 -72
t50 -43l241 -122q164 -86 164 -285zM508 1348h-4l-207 -136l-16 17l206 241h37l205 -241l-16 -17z" />
    <glyph glyph-name="Scedilla" unicode="&#x15e;" horiz-adv-x="1085" 
d="M156 907v127q0 188 104 272t305 83q143 1 233 -51t111 -187h4v238h45v-426h-335v307q0 82 -68 82t-68 -86v-172q-1 -55 13 -83t59 -57l225 -147q102 -59 148 -138t47 -196v-123q0 -194 -110 -280t-314 -86q-28 0 -53 1v-116h4q41 61 115 61q149 0 149 -137v-20
q0 -158 -168 -158q-150 0 -149 141v11h36v-11q0 -109 93 -108q74 0 73 108v39q0 94 -65 94q-55 0 -86 -67h-43v167q-159 23 -228 113q-37 51 -49 127h-4v-245h-45v442h357v-324q0 -82 68 -82t67 86v195q0 59 -15 94q-14 35 -61 62l-250 147q-145 86 -145 303z" />
    <glyph glyph-name="scedilla" unicode="&#x15f;" horiz-adv-x="1009" 
d="M172 180v-196h-41v360h324v-250q0 -74 61 -74t62 76v156q0 49 -12 76t-52 47l-244 123q-139 70 -139 254v79q0 311 373 312q139 0 219 -43t108 -146h5v189h41v-344h-316v233q0 74 -61 74t-62 -78v-127q0 -47 10 -72t50 -43l241 -122q164 -86 164 -285v-66
q0 -330 -387 -329q-56 0 -102 7v-122h4q41 61 115 61q149 0 149 -137v-20q0 -158 -168 -158q-150 0 -149 141v11h36v-11q0 -109 93 -108q74 0 73 108v39q0 94 -65 94q-55 0 -86 -67h-43v177q-151 39 -197 181h-4z" />
    <glyph glyph-name="Scaron" unicode="&#x160;" horiz-adv-x="1085" 
d="M569 1556h4l222 103l16 -17l-221 -188h-37l-223 188l16 17zM156 907v127q0 188 104 272t305 83q143 1 233 -51t111 -187h4v238h45v-426h-335v307q0 82 -68 82t-68 -86v-172q-1 -55 13 -83t59 -57l225 -147q102 -59 148 -138t47 -196v-123q0 -194 -110 -280t-328 -86
t-308 118q-37 51 -49 127h-4v-245h-45v442h357v-324q0 -82 68 -82t67 86v195q0 59 -15 94q-14 35 -61 62l-250 147q-145 86 -145 303z" />
    <glyph glyph-name="scaron" unicode="&#x161;" horiz-adv-x="1009" 
d="M903 379v-66q0 -330 -387 -329q-143 0 -225 47t-115 149h-4v-196h-41v360h324v-250q0 -74 61 -74t62 76v156q0 49 -12 76t-52 47l-244 123q-139 70 -139 254v79q0 311 373 312q139 0 219 -43t108 -146h5v189h41v-344h-316v233q0 74 -61 74t-62 -78v-127q0 -47 10 -72
t50 -43l241 -122q164 -86 164 -285zM504 1335h4l205 135l16 -16l-205 -242h-37l-206 242l16 16z" />
    <glyph glyph-name="Tcommaaccent" unicode="&#x162;" horiz-adv-x="991" 
d="M488 -268q-50 0 -76 28t-27 70q0 41 32 69q32 27 79 27t83 -34q35 -34 35 -110t-64 -125q-64 -50 -171 -50v33q178 4 180 127h-4q-17 -35 -67 -35zM938 1372v-377h-45v287h-219v-1245h98v-37h-565v37h98v1245h-219v-287h-45v377h897z" />
    <glyph glyph-name="tcommaaccent" unicode="&#x163;" horiz-adv-x="729" 
d="M356 -268q-50 0 -76 28t-26 70q0 41 32 69q32 27 78 27t83 -34q36 -34 36 -110q-1 -76 -65 -125q-64 -50 -170 -50v33q178 4 180 127h-4q-18 -35 -68 -35zM705 459v-256q-1 -125 -63 -172t-201 -47t-221 61q-81 61 -81 236v800h-82v45h99q250 0 274 222h53v-222h201v-45
h-201v-907q0 -36 3 -60q2 -24 22 -44t55 -21q100 0 101 162v248h41z" />
    <glyph glyph-name="Tcaron" unicode="&#x164;" horiz-adv-x="991" 
d="M938 1372v-377h-45v287h-219v-1245h98v-37h-565v37h98v1245h-219v-287h-45v377h897zM483 1556h4l222 103l16 -17l-221 -188h-37l-223 188l16 17z" />
    <glyph glyph-name="tcaron" unicode="&#x165;" horiz-adv-x="733" 
d="M848 1370q0 -74 -62 -122t-165 -48v25q180 4 180 147h-4q-13 -47 -65 -47t-79 28q-27 29 -27 67t31 65t76 27t80 -34t35 -108zM705 459v-256q-1 -125 -63 -172t-201 -47t-221 61q-81 61 -81 236v800h-82v45h99q250 0 274 222h53v-222h201v-45h-201v-907q0 -36 3 -60
q2 -24 22 -44t55 -21q100 0 101 162v248h41z" />
    <glyph glyph-name="Tbar" unicode="&#x166;" horiz-adv-x="1007" 
d="M946 1372v-377h-45v287h-219v-442h182v-49h-182v-754h98v-37h-565v37h98v754h-182v49h182v442h-219v-287h-45v377h897z" />
    <glyph glyph-name="tbar" unicode="&#x167;" horiz-adv-x="737" 
d="M709 459v-256q-1 -125 -63 -172t-201 -47t-221 61q-81 61 -81 236v442h-82v49h82v309h-82v45h99q250 0 274 222h53v-222h201v-45h-201v-309h160v-49h-160v-549q0 -36 3 -60q2 -24 22 -44t55 -21q100 0 101 162v248h41z" />
    <glyph glyph-name="Utilde" unicode="&#x168;" horiz-adv-x="1032" 
d="M690 1470q-57 0 -115 35l-65 39q-33 18 -64 19q-59 0 -73 -60l-6 -24l-25 6l10 39q31 121 142 121q51 0 114 -35l66 -39q26 -19 74 -19t63 60l6 24l25 -6l-11 -39q-31 -121 -141 -121zM999 1372v-37h-81v-1007q0 -344 -312 -344q-199 0 -318 65q-141 76 -141 305v981h-90
v37h561v-37h-102v-1210q0 -61 28 -83t87 -22q131 0 180 82t49 226v1007h-119v37h258z" />
    <glyph glyph-name="utilde" unicode="&#x169;" horiz-adv-x="1073" 
d="M598 1126h344v-1089h82v-37h-422v98h-4q-74 -115 -238 -114q-119 0 -170 62t-51 185v859h-82v36h426v-958q0 -66 49 -66q31 0 49 24q17 24 17 52v948zM647 1257q-51 0 -104 35l-62 39q-27 18 -61 19q-53 0 -66 -56l-6 -28l-22 6l8 39q25 121 133 121q51 0 104 -35l62 -39
q27 -18 61 -19q53 0 66 56l6 28l22 -6l-8 -39q-25 -121 -133 -121z" />
    <glyph glyph-name="Umacron" unicode="&#x16a;" horiz-adv-x="1032" 
d="M799 1573v-66h-525v66h525zM999 1372v-37h-81v-1007q0 -344 -312 -344q-199 0 -318 65q-141 76 -141 305v981h-90v37h561v-37h-102v-1210q0 -61 28 -83t87 -22q131 0 180 82t49 226v1007h-119v37h258z" />
    <glyph glyph-name="umacron" unicode="&#x16b;" horiz-adv-x="1073" 
d="M598 1126h344v-1089h82v-37h-422v98h-4q-74 -115 -238 -114q-119 0 -170 62t-51 185v859h-82v36h426v-958q0 -66 49 -66q31 0 49 24q17 24 17 52v948zM782 1348v-66h-491v66h491z" />
    <glyph glyph-name="Ubreve" unicode="&#x16c;" horiz-adv-x="1032" 
d="M557 1540q172 0 201 111h26q-12 -89 -68 -141t-158 -52t-160 52q-56 52 -68 141h26q29 -111 201 -111zM999 1372v-37h-81v-1007q0 -344 -312 -344q-199 0 -318 65q-141 76 -141 305v981h-90v37h561v-37h-102v-1210q0 -61 28 -83t87 -22q131 0 180 82t49 226v1007h-119v37
h258z" />
    <glyph glyph-name="ubreve" unicode="&#x16d;" horiz-adv-x="1073" 
d="M598 1126h344v-1089h82v-37h-422v98h-4q-74 -115 -238 -114q-119 0 -170 62t-51 185v859h-82v36h426v-958q0 -66 49 -66q31 0 49 24q17 24 17 52v948zM537 1323q182 0 196 131h25q-4 -98 -58 -158t-164 -59q-108 0 -163 60t-58 157h25q4 -59 54 -95t143 -36z" />
    <glyph glyph-name="Uring" unicode="&#x16e;" horiz-adv-x="1032" 
d="M756 1618q0 -76 -50 -124t-124 -48t-122 47t-48 124t48 123t122 46t124 -46t50 -122zM657 1565v106q0 47 -14 71t-59 24t-60 -25q-14 -25 -14 -74v-106q0 -47 14 -71t60 -24t59 25q14 25 14 74zM999 1372v-37h-81v-1007q0 -344 -312 -344q-199 0 -318 65
q-141 76 -141 305v981h-90v37h561v-37h-102v-1210q0 -61 28 -83t87 -22q131 0 180 82t49 226v1007h-119v37h258z" />
    <glyph glyph-name="uring" unicode="&#x16f;" horiz-adv-x="1073" 
d="M598 1126h344v-1089h82v-37h-422v98h-4q-74 -115 -238 -114q-119 0 -170 62t-51 185v859h-82v36h426v-958q0 -66 49 -66q31 0 49 24q17 24 17 52v948zM709 1393q-1 -76 -51 -124t-124 -48t-121 47q-48 47 -48 124q0 76 48 122t122 46t124 -45q50 -46 50 -122zM610 1339
v107q0 47 -14 71q-14 23 -59 23t-60 -24q-14 -25 -14 -74v-107q0 -47 14 -71q13 -24 59 -23t60 25t14 73z" />
    <glyph glyph-name="Uhungarumlaut" unicode="&#x170;" horiz-adv-x="1032" 
d="M989 1544l-354 -102l-12 18l307 191zM682 1544l-354 -102l-13 18l308 191zM999 1372v-37h-81v-1007q0 -344 -312 -344q-199 0 -318 65q-141 76 -141 305v981h-90v37h561v-37h-102v-1210q0 -61 28 -83t87 -22q131 0 180 82t49 226v1007h-119v37h258z" />
    <glyph glyph-name="uhungarumlaut" unicode="&#x171;" horiz-adv-x="1073" 
d="M598 1126h344v-1089h82v-37h-422v98h-4q-74 -115 -238 -114q-119 0 -170 62t-51 185v859h-82v36h426v-958q0 -66 49 -66q31 0 49 24q17 24 17 52v948zM672 1376l-303 -159l-17 16l246 237zM901 1376l-303 -159l-16 16l249 237z" />
    <glyph glyph-name="Uogonek" unicode="&#x172;" horiz-adv-x="1032" 
d="M999 1372v-37h-81v-1007q0 -269 -191 -328l-53 -31q-135 -80 -135 -205t104 -124h12v-25h-24q-94 0 -161 34t-67 108t82 133t127 77l33 18q-19 -1 -79 -1q-159 0 -278 65q-141 76 -141 305v981h-90v37h561v-37h-102v-1210q0 -61 28 -83t87 -22q131 0 180 82t49 226v1007
h-119v37h258z" />
    <glyph glyph-name="uogonek" unicode="&#x173;" horiz-adv-x="1073" 
d="M598 1126h344v-1089h82v-37h-121l-53 -31q-135 -80 -135 -205t104 -124h12v-25h-24q-94 0 -161 34q-66 34 -66 108t83 134q83 59 125 76l60 33h-246v98h-4q-74 -115 -238 -114q-119 0 -170 62t-51 185v859h-82v36h426v-958q0 -66 49 -66q31 0 49 24q17 24 17 52v948z" />
    <glyph glyph-name="Wcircumflex" unicode="&#x174;" horiz-adv-x="1449" 
d="M866 1548h-4l-223 -102l-16 16l223 189h37l221 -189l-17 -16zM1458 1372v-37h-80l-151 -1335h-420l-74 778h-4l-72 -778h-419l-152 1335h-78v37h510v-37h-78l138 -1298h28l96 1042l-24 256h-62v37h510v-37h-94l115 -1298h29l143 1298h-94v37h233z" />
    <glyph glyph-name="wcircumflex" unicode="&#x175;" horiz-adv-x="1411" 
d="M1399 1126v-36h-74l-131 -1090h-393l-90 690h-4l-89 -690h-393l-131 1090h-74v36h465v-36h-61l119 -1053h28l111 858l-25 195h-61v36h477v-36h-86l131 -1053h29l123 1053h-86v36h215zM788 1348h-4l-206 -136l-17 17l207 241h37l205 -241l-17 -17z" />
    <glyph glyph-name="Ycircumflex" unicode="&#x176;" horiz-adv-x="856" 
d="M492 1548h-5l-223 -102l-16 16l223 189h37l221 -189l-16 -16zM885 1372v-37h-78l-180 -784v-514h90v-37h-549v37h90v514l-188 784h-78v37h557v-37h-94l143 -639h4l143 639h-94v37h234z" />
    <glyph glyph-name="ycircumflex" unicode="&#x177;" horiz-adv-x="884" 
d="M897 1126v-36h-74l-166 -1192q-13 -90 -37 -144q-45 -100 -174 -115q-51 -7 -143 -8h-172v213h330q77 0 107 22t40 91l6 43h-364l-152 1090h-73v36h520v-36h-86l135 -1053h29l143 1053h-86v36h217zM506 1348h-4l-207 -136l-16 17l206 241h37l205 -241l-16 -17z" />
    <glyph glyph-name="Ydieresis" unicode="&#x178;" horiz-adv-x="856" 
d="M665 1645q39 0 67 -27t28 -67q0 -39 -29 -67t-67 -28t-67 28q-28 28 -28 68t28 67q28 26 68 26zM410 1551q0 -39 -29 -67t-68 -28t-67 28t-27 68q0 40 28 67q29 26 67 26t67 -27t29 -67zM885 1372v-37h-78l-180 -784v-514h90v-37h-549v37h90v514l-188 784h-78v37h557v-37
h-94l143 -639h4l143 639h-94v37h234z" />
    <glyph glyph-name="Zacute" unicode="&#x179;" horiz-adv-x="872" 
d="M727 1536l-403 -74l-13 19l365 170zM799 422v-422h-738v25l336 1265h-254v-282h-45v364h693v-24l-336 -1266h299v340h45z" />
    <glyph glyph-name="zacute" unicode="&#x17a;" horiz-adv-x="827" 
d="M766 1126v-20l-342 -1040h285v290h41v-356h-701v20l342 1041h-264v-242h-41v307h680zM657 1368l-348 -151l-16 16l291 237z" />
    <glyph glyph-name="Zdotaccent" unicode="&#x17b;" horiz-adv-x="872" 
d="M561 1561q0 -43 -30 -73q-29 -30 -71 -30t-72 29t-30 73t29 72t72 27q43 1 73 -27t29 -71zM799 422v-422h-738v25l336 1265h-254v-282h-45v364h693v-24l-336 -1266h299v340h45z" />
    <glyph glyph-name="zdotaccent" unicode="&#x17c;" horiz-adv-x="827" 
d="M766 1126v-20l-342 -1040h285v290h41v-356h-701v20l342 1041h-264v-242h-41v307h680zM543 1359q0 -44 -32 -75t-75 -31t-74 31t-30 76q0 45 30 74q31 28 74 28t75 -30t32 -73z" />
    <glyph glyph-name="Zcaron" unicode="&#x17d;" horiz-adv-x="872" 
d="M451 1556h4l221 103l16 -17l-221 -188h-37l-223 188l16 17zM799 422v-422h-738v25l336 1265h-254v-282h-45v364h693v-24l-336 -1266h299v340h45z" />
    <glyph glyph-name="zcaron" unicode="&#x17e;" horiz-adv-x="827" 
d="M766 1126v-20l-342 -1040h285v290h41v-356h-701v20l342 1041h-264v-242h-41v307h680zM440 1335h4l205 135l17 -16l-205 -242h-37l-207 242l16 16z" />
    <glyph glyph-name="florin" unicode="&#x192;" horiz-adv-x="1073" 
d="M958 627h-243l55 -86q72 -111 94 -167t25 -151v-125q-1 -172 -101 -256t-274 -84q-250 0 -297 168h-4v-168h-41v451h279v-371q0 -43 36 -43q45 0 45 55v285q0 84 -45 156l-215 336h-174v37h152l-6 10q-76 117 -76 250v125q0 172 100 256t275 84q250 0 297 -168h4v168h41
v-451h-279v371q0 43 -37 43q-45 0 -45 -56v-284q0 -88 45 -158l121 -190h268v-37z" />
    <glyph glyph-name="Scommaaccent" unicode="&#x218;" horiz-adv-x="1085" 
d="M543 -268q-49 0 -76 28t-27 70q0 41 32 69q32 27 79 27t83 -34t36 -110t-65 -125q-65 -50 -171 -50v33q178 4 180 127h-4q-18 -35 -67 -35zM156 907v127q0 188 104 272t305 83q143 1 233 -51t111 -187h4v238h45v-426h-335v307q0 82 -68 82t-68 -86v-172q-1 -55 13 -83
t59 -57l225 -147q102 -59 148 -138t47 -196v-123q0 -194 -110 -280t-328 -86t-308 118q-37 51 -49 127h-4v-245h-45v442h357v-324q0 -82 68 -82t67 86v195q0 59 -15 94q-14 35 -61 62l-250 147q-145 86 -145 303z" />
    <glyph glyph-name="scommaaccent" unicode="&#x219;" horiz-adv-x="1009" 
d="M496 -268q-50 0 -76 28t-27 70q0 41 32 69q32 27 79 27t83 -34t36 -110t-65 -125q-65 -50 -171 -50v33q178 4 180 127h-4q-17 -35 -67 -35zM903 379v-66q0 -330 -387 -329q-143 0 -225 47t-115 149h-4v-196h-41v360h324v-250q0 -74 61 -74t62 76v156q0 49 -12 76t-52 47
l-244 123q-139 70 -139 254v79q0 311 373 312q139 0 219 -43t108 -146h5v189h41v-344h-316v233q0 74 -61 74t-62 -78v-127q0 -47 10 -72t50 -43l241 -122q164 -86 164 -285z" />
    <glyph glyph-name="dotlessj" unicode="&#x237;" horiz-adv-x="679" 
d="M532 1126v-1122q0 -188 -80 -280t-264 -93h-155v37h22q74 0 104 39t29 119v1264h-82v36h426z" />
    <glyph glyph-name="circumflex" unicode="&#x2c6;" 
d="M530 1348h-4l-207 -136l-16 17l207 241h37l205 -241l-17 -17z" />
    <glyph glyph-name="caron" unicode="&#x2c7;" 
d="M526 1335h4l205 135l17 -16l-205 -242h-37l-207 242l16 16z" />
    <glyph glyph-name="breve" unicode="&#x2d8;" 
d="M528 1323q182 0 197 131h25q-4 -98 -58 -158t-164 -59q-110 0 -164 60t-57 157h25q4 -59 53 -95t143 -36z" />
    <glyph glyph-name="dotaccent" unicode="&#x2d9;" 
d="M633 1359q0 -44 -32 -75t-75 -31q-44 0 -74 31t-30 76t31 74q31 28 73 28t75 -30q32 -30 32 -73z" />
    <glyph glyph-name="ring" unicode="&#x2da;" 
d="M700 1393q0 -76 -50 -124t-124 -48t-122 47t-48 124q0 76 48 122t122 46t124 -45q50 -46 50 -122zM602 1339v107q0 47 -14 71q-14 23 -60 23t-59 -24q-14 -24 -14 -74v-107q0 -47 14 -71t59 -23q46 1 60 25t14 73z" />
    <glyph glyph-name="ogonek" unicode="&#x2db;" 
d="M502 -236q0 -125 104 -124h12v-25h-24q-94 0 -161 34t-67 108t84 134q83 59 125 76l60 33h55l-53 -31q-135 -80 -135 -205z" />
    <glyph glyph-name="tilde" unicode="&#x2dc;" 
d="M618 1257q-51 0 -104 35l-61 39q-27 19 -71 19t-56 -56l-7 -28l-22 6l8 39q25 121 133 121q51 0 105 -35l61 -39q27 -18 71 -18t56 55l6 28l23 -6l-8 -39q-25 -121 -134 -121z" />
    <glyph glyph-name="hungarumlaut" unicode="&#x2dd;" 
d="M655 1376l-303 -159l-16 16l246 237zM885 1376l-303 -159l-17 16l250 237z" />
    <glyph glyph-name="pi" unicode="&#x3c0;" horiz-adv-x="1089" 
d="M496 0h-426v37h82v1053h-82v36h950v-36h-82v-1053h82v-37h-426v1061h-98v-1061z" />
    <glyph glyph-name="Wgrave" unicode="&#x1e80;" horiz-adv-x="1449" 
d="M1001 1462l-403 74l51 115l365 -170zM1458 1372v-37h-80l-151 -1335h-420l-74 778h-4l-72 -778h-419l-152 1335h-78v37h510v-37h-78l138 -1298h28l96 1042l-24 256h-62v37h510v-37h-94l115 -1298h29l143 1298h-94v37h233z" />
    <glyph glyph-name="wgrave" unicode="&#x1e81;" horiz-adv-x="1411" 
d="M1399 1126v-36h-74l-131 -1090h-393l-90 690h-4l-89 -690h-393l-131 1090h-74v36h465v-36h-61l119 -1053h28l111 858l-25 195h-61v36h477v-36h-86l131 -1053h29l123 1053h-86v36h215zM911 1217l-348 151l74 102l291 -237z" />
    <glyph glyph-name="Wacute" unicode="&#x1e82;" horiz-adv-x="1449" 
d="M1055 1536l-404 -74l-12 19l365 170zM1458 1372v-37h-80l-151 -1335h-420l-74 778h-4l-72 -778h-419l-152 1335h-78v37h510v-37h-78l138 -1298h28l96 1042l-24 256h-62v37h510v-37h-94l115 -1298h29l143 1298h-94v37h233z" />
    <glyph glyph-name="wacute" unicode="&#x1e83;" horiz-adv-x="1411" 
d="M1399 1126v-36h-74l-131 -1090h-393l-90 690h-4l-89 -690h-393l-131 1090h-74v36h465v-36h-61l119 -1053h28l111 858l-25 195h-61v36h477v-36h-86l131 -1053h29l123 1053h-86v36h215zM1001 1368l-348 -151l-16 16l291 237z" />
    <glyph glyph-name="Wdieresis" unicode="&#x1e84;" horiz-adv-x="1449" 
d="M1098 1551q0 -39 -29 -67t-68 -28t-67 28t-27 68q0 40 28 67q27 26 67 26t68 -27t28 -67zM748 1551q0 -39 -29 -67t-68 -28t-67 28t-27 68q0 40 28 67q29 26 67 26t67 -27t29 -67zM1458 1372v-37h-80l-151 -1335h-420l-74 778h-4l-72 -778h-419l-152 1335h-78v37h510v-37
h-78l138 -1298h28l96 1042l-24 256h-62v37h510v-37h-94l115 -1298h29l143 1298h-94v37h233z" />
    <glyph glyph-name="wdieresis" unicode="&#x1e85;" horiz-adv-x="1411" 
d="M1399 1126v-36h-74l-131 -1090h-393l-90 690h-4l-89 -690h-393l-131 1090h-74v36h465v-36h-61l119 -1053h28l111 858l-25 195h-61v36h477v-36h-86l131 -1053h29l123 1053h-86v36h215zM1028 1367q0 -42 -29 -70q-29 -27 -69 -27t-69 28q-28 28 -27 70q0 43 27 69
q28 25 69 25q42 0 70 -26t28 -69zM739 1367q-1 -42 -29 -70q-28 -27 -69 -27t-69 28t-27 70q0 43 27 69q28 25 69 25t70 -26q28 -27 28 -69z" />
    <glyph glyph-name="endash" unicode="&#x2013;" horiz-adv-x="577" 
d="M545 653v-57h-512v57h512z" />
    <glyph glyph-name="emdash" unicode="&#x2014;" horiz-adv-x="1146" 
d="M1114 653v-57h-1081v57h1081z" />
    <glyph glyph-name="quoteleft" unicode="&#x2018;" horiz-adv-x="622" 
d="M500 1475v-37q-106 -2 -173 -54t-67 -151h4q23 66 103 65q53 0 87 -36t34 -90q0 -56 -38 -92q-36 -36 -98 -36t-104 46t-43 148q0 102 82 170t213 67z" />
    <glyph glyph-name="quoteright" unicode="&#x2019;" horiz-adv-x="624" 
d="M272 1458q60 0 104 -45t44 -149t-82 -170t-215 -66v37q104 0 173 52t69 153h-5q-23 -66 -102 -66q-53 0 -87 36t-34 91t38 91t97 36z" />
    <glyph glyph-name="quotesinglbase" unicode="&#x201a;" horiz-adv-x="624" 
d="M272 250q60 0 104 -45t44 -149t-82 -170q-82 -67 -215 -66v37q104 0 173 52t69 152h-5q-23 -66 -102 -65q-53 0 -87 36t-34 91t38 91t97 36z" />
    <glyph glyph-name="quotedblleft" unicode="&#x201c;" horiz-adv-x="964" 
d="M842 1475v-37q-104 0 -173 -52t-69 -153h4q23 66 103 65q53 0 87 -36t34 -90q0 -55 -38 -92q-38 -36 -98 -36t-103 46q-44 46 -44 148q0 104 82 170t215 67zM500 1475v-37q-106 -2 -173 -54t-67 -151h4q23 66 103 65q53 0 87 -36t34 -90q0 -56 -38 -92q-36 -36 -98 -36
t-104 46t-43 148q0 102 82 170t213 67z" />
    <glyph glyph-name="quotedblright" unicode="&#x201d;" horiz-adv-x="964" 
d="M760 1266q0 -102 -82 -170q-82 -66 -213 -68v37q106 2 173 53t67 152h-5q-23 -66 -102 -66q-53 0 -87 36t-34 91t37 91q36 36 98 36t105 -45t43 -147zM272 1458q60 0 104 -45t44 -149t-82 -170t-215 -66v37q104 0 173 52t69 153h-5q-23 -66 -102 -66q-53 0 -87 36t-34 91
t38 91t97 36z" />
    <glyph glyph-name="quotedblbase" unicode="&#x201e;" horiz-adv-x="964" 
d="M760 58q0 -102 -82 -170q-82 -67 -213 -68v37q106 2 173 53t67 151h-5q-23 -66 -102 -65q-53 0 -87 36t-34 91t37 91q36 36 98 36t105 -45t43 -147zM272 250q60 0 104 -45t44 -149t-82 -170q-82 -67 -215 -66v37q104 0 173 52t69 152h-5q-23 -66 -102 -65q-53 0 -87 36
t-34 91t38 91t97 36z" />
    <glyph glyph-name="dagger" unicode="&#x2020;" horiz-adv-x="999" 
d="M860 1327v-475h-41v125l-268 92h-29v-135l158 -164l-158 -672v-340h-45v340l-158 672l158 164v135h-28l-269 -92v-125h-41v475h41v-121l269 -100h28v37l-129 315h-102v37h508v-37h-103l-129 -315v-37h29l268 100v121h41z" />
    <glyph glyph-name="daggerdbl" unicode="&#x2021;" horiz-adv-x="1015" 
d="M868 410v-459h-41v121l-268 92h-29v-37l113 -315h111v-37h-492v37h111l112 315v37h-28l-269 -92v-121h-41v459h41v-125l269 -84h28v69l-141 365l141 364v70h-28l-269 -84v-125h-41v459h41v-121l269 -92h28v37l-112 315h-111v37h492v-37h-111l-113 -315v-37h29l268 92v121
h41v-459h-41v125l-268 84h-29v-70l142 -364l-142 -365v-69h29l268 84v125h41z" />
    <glyph glyph-name="bullet" unicode="&#x2022;" horiz-adv-x="684" 
d="M347 420q-87 0 -147 60t-61 150q1 89 55 141t143 52t148 -57q59 -58 59 -148t-54 -144q-56 -54 -143 -54z" />
    <glyph glyph-name="ellipsis" unicode="&#x2026;" horiz-adv-x="1544" 
d="M1339 117q0 -59 -37 -97q-38 -36 -96 -36t-95 36q-38 36 -38 96t37 95t96 35t96 -35t37 -94zM877 117q0 -59 -38 -97q-37 -38 -95 -36q-58 0 -96 36t-38 96t37 95t96 35t97 -35t37 -94zM414 117q0 -59 -38 -97t-95 -36q-57 0 -96 36q-38 36 -38 96t37 95q36 35 96 35
t97 -35t37 -94z" />
    <glyph glyph-name="perthousand" unicode="&#x2030;" horiz-adv-x="2123" 
d="M2001 524v-297q-1 -243 -273 -243t-272 231v293q0 246 272 246t273 -230zM1772 63v613q0 49 -43 49t-43 -51v-613q0 -49 43 -49t43 51zM1370 524v-297q0 -243 -272 -243t-273 231v293q1 246 273 246t272 -230zM840 1372h49l-221 -1372h-50zM668 1069v-297
q0 -244 -272 -244t-273 232v293q1 245 273 245t272 -229zM1141 63v613q0 49 -43 49t-43 -51v-613q0 -49 43 -49t43 51zM438 608v613q0 49 -43 49t-43 -51v-613q0 -49 43 -49t43 51z" />
    <glyph glyph-name="guilsinglleft" unicode="&#x2039;" horiz-adv-x="634" 
d="M307 625l164 -426h-37l-319 426l319 426h37z" />
    <glyph glyph-name="guilsinglright" unicode="&#x203a;" horiz-adv-x="634" 
d="M164 199l164 426l-164 426h37l319 -426l-319 -426h-37z" />
    <glyph glyph-name="fraction" unicode="&#x2044;" horiz-adv-x="622" 
d="M500 1372h57l-434 -1372h-57z" />
    <glyph glyph-name="zero.superior" unicode="&#x2070;" horiz-adv-x="790" 
d="M688 1257v-421q0 -248 -293 -248t-293 233v420q0 249 293 249t293 -233zM432 666v747q0 47 -37 47t-37 -49v-747q0 -45 35 -46q39 1 39 48z" />
    <glyph glyph-name="four.superior" unicode="&#x2074;" horiz-adv-x="768" 
d="M678 1004v-283h-37v108h-80v-200h64v-31h-394v31h78v200h-268v17l211 635h309v-590h80v113h37zM309 891v559h-20l-185 -559h205z" />
    <glyph glyph-name="five.superior" unicode="&#x2075;" horiz-adv-x="784" 
d="M674 948v-117q0 -244 -297 -243q-266 0 -266 207v90h229v-221q0 -45 37 -46q43 0 43 52v350q0 82 -75 82t-123 -52t-48 -94h-39v525h502v-310h-37v97h-422v-215h4q74 90 236 90q256 0 256 -195z" />
    <glyph glyph-name="six.superior" unicode="&#x2076;" horiz-adv-x="796" 
d="M354 1055h4q45 59 152 59q172 0 172 -176v-109q0 -241 -290 -241t-290 239v406q0 133 82 195t222 63q242 0 241 -193v-90h-219v211q0 41 -31 41q-43 0 -43 -57v-348zM428 991q0 49 -36 49t-38 -47v-329q0 -45 37 -46q37 1 37 48v325z" />
    <glyph glyph-name="seven.superior" unicode="&#x2077;" horiz-adv-x="653" 
d="M629 1481v-19l-264 -833h81v-31h-380v31h77l351 545l24 79h-403v-133h-37v361h551z" />
    <glyph glyph-name="eight.superior" unicode="&#x2078;" horiz-adv-x="782" 
d="M684 856v-35q0 -233 -293 -233t-293 219v35q0 176 197 209v4q-88 10 -135 51t-47 131v33q0 221 277 221t278 -211v-29q-1 -169 -181 -198v-4q93 -9 145 -53t52 -140zM422 1108v309q0 43 -32 43t-32 -45v-309q0 -39 32 -39t32 41zM428 664v329q-4 43 -39 43t-35 -45v-327
q0 -45 35 -46q39 1 39 46z" />
    <glyph glyph-name="nine.superior" unicode="&#x2079;" horiz-adv-x="796" 
d="M442 1034h-4q-45 -59 -151 -59q-172 0 -172 176v98q0 242 290 242t289 -240v-405q0 -134 -82 -196t-221 -62q-252 0 -252 192v101h230v-222q0 -41 30 -41q43 0 43 58v358zM369 1413v-315q0 -49 34 -49q18 0 29 14q10 14 10 33v319q0 45 -36 45t-37 -47z" />
    <glyph glyph-name="plus.superior" unicode="&#x207a;" horiz-adv-x="471" 
d="M438 971h-176v-176h-53v176h-176v53h176v176h53v-176h176v-53z" />
    <glyph glyph-name="parenleft.superior" unicode="&#x207d;" horiz-adv-x="538" 
d="M139 998q0 498 322 534v-31q-61 -6 -91 -31t-30 -79v-787q0 -56 30 -80t91 -30v-31q-322 37 -322 535z" />
    <glyph glyph-name="parenright.superior" unicode="&#x207e;" horiz-adv-x="538" 
d="M199 604v787q0 55 -30 79t-91 31v31q322 -37 322 -535t-322 -534v31q61 6 91 30t30 80z" />
    <glyph glyph-name="n.superior" unicode="&#x207f;" horiz-adv-x="757" 
d="M356 598h-295v31h56v663h-56v31h295v-47h4q52 57 142 57t125 -40t35 -119v-545h55v-31h-295v619q0 39 -27 38q-37 0 -39 -47v-610z" />
    <glyph glyph-name="zero.inferior" unicode="&#x2080;" horiz-adv-x="790" 
d="M688 414v-422q0 -248 -293 -248t-293 233v420q0 250 293 250t293 -233zM432 -178v747q0 47 -37 47t-37 -49v-747q0 -45 37 -45t37 47z" />
    <glyph glyph-name="one.inferior" unicode="&#x2081;" horiz-adv-x="555" 
d="M481 -215v-31h-375v31h68v678h-68v31h64q86 0 136 34t61 123h59v-866h55z" />
    <glyph glyph-name="two.inferior" unicode="&#x2082;" horiz-adv-x="788" 
d="M674 117v-363h-580v207q0 81 50 120q19 15 79 54l103 68q55 37 68 63t14 80v225q0 45 -36 45t-36 -43v-260h-232v125q0 209 277 209t276 -223v-80q0 -57 -13 -94t-49 -62q-36 -26 -70 -36t-103 -29l-143 -37q-82 -20 -112 -38t-32 -62v-4h502v135h37z" />
    <glyph glyph-name="three.inferior" unicode="&#x2083;" horiz-adv-x="759" 
d="M666 25v-37q0 -244 -297 -244q-266 0 -267 207v96h230v-227q0 -45 37 -45q43 0 43 51v295q0 82 -76 82h-76v30h80q66 0 66 76v264q0 43 -34 43t-34 -43v-202h-219v78q0 199 252 198q281 0 280 -217v-22q0 -160 -188 -187v-4q203 -18 203 -192z" />
    <glyph glyph-name="four.inferior" unicode="&#x2084;" horiz-adv-x="768" 
d="M678 160v-283h-37v109h-80v-201h64v-31h-394v31h78v201h-268v16l211 635h309v-590h80v113h37zM309 47v559h-20l-185 -559h205z" />
    <glyph glyph-name="five.inferior" unicode="&#x2085;" horiz-adv-x="784" 
d="M674 104v-116q0 -244 -297 -244q-266 0 -266 207v90h229v-221q0 -45 37 -45q43 0 43 51v350q0 82 -75 82t-123 -52t-48 -93h-39v524h502v-309h-37v96h-422v-215h4q74 90 236 90q256 0 256 -195z" />
    <glyph glyph-name="six.inferior" unicode="&#x2086;" horiz-adv-x="796" 
d="M354 211h4q45 59 152 59q172 0 172 -176v-108q0 -242 -290 -242t-290 240v405q0 133 82 195t222 63q242 0 241 -192v-90h-219v210q0 41 -31 41q-43 0 -43 -57v-348zM428 -178v325q0 49 -35 50q-36 0 -39 -47v-330q0 -45 37 -45t37 47z" />
    <glyph glyph-name="seven.inferior" unicode="&#x2087;" horiz-adv-x="653" 
d="M629 637v-19l-264 -833h81v-31h-380v31h77l351 545l24 80h-403v-134h-37v361h551z" />
    <glyph glyph-name="eight.inferior" unicode="&#x2088;" horiz-adv-x="782" 
d="M684 12v-35q0 -233 -293 -233t-293 219v35q0 176 197 209v4q-88 10 -135 51t-47 131v33q0 221 277 221t278 -211v-28q-1 -170 -181 -199v-4q93 -10 145 -53t52 -140zM422 264v309q0 43 -32 43t-32 -45v-309q0 -39 32 -39t32 41zM428 -180v330q-4 43 -39 43t-35 -46v-327
q0 -45 37 -45t37 45z" />
    <glyph glyph-name="nine.inferior" unicode="&#x2089;" horiz-adv-x="796" 
d="M442 190h-4q-45 -59 -151 -59q-172 0 -172 176v99q0 242 290 242t289 -240v-406q0 -134 -82 -196t-221 -62q-252 0 -252 193v100h230v-221q0 -41 30 -41q43 0 43 57v358zM369 569v-315q0 -49 34 -49q18 0 29 14q10 14 10 33v319q0 45 -36 45t-37 -47z" />
    <glyph glyph-name="parenleft.inferior" unicode="&#x208d;" horiz-adv-x="538" 
d="M139 154q0 498 322 534v-31q-61 -7 -91 -31t-30 -79v-787q0 -56 30 -80t91 -30v-31q-322 37 -322 535z" />
    <glyph glyph-name="parenright.inferior" unicode="&#x208e;" horiz-adv-x="538" 
d="M199 -240v787q0 55 -30 79t-91 31v31q322 -36 322 -534t-322 -535v31q61 6 91 31t30 79z" />
    <glyph glyph-name="Euro" unicode="&#x20ac;" horiz-adv-x="1138" 
d="M1032 422v-107q0 -332 -377 -331q-197 0 -315 88t-119 280v226h-123v40h123v103h-123v41h123v246q0 192 112 286t308 95q270 0 330 -193h4v193h41v-467h-307v362q1 68 -61 68t-62 -80v-510h254v-41h-254v-103h254v-40h-254v-365q0 -176 166 -176q113 0 173 78t60 200v107
h47z" />
    <glyph glyph-name="uni2113" unicode="&#x2113;" horiz-adv-x="929" 
d="M799 1280v-289q0 -297 -246 -385v-444q0 -35 2 -54q2 -18 17 -38t46 -21q90 0 91 150v252h41v-261q0 -118 -58 -162t-193 -44q-134 0 -212 60t-78 224v307h-123v41h123v578q0 182 86 250t228 68t209 -51q67 -50 67 -181zM745 991v281q0 128 -42 158q-23 16 -61 16
t-60 -23t-25 -49q-4 -26 -4 -65v-658q192 80 192 340z" />
    <glyph glyph-name="numero" unicode="&#x2116;" horiz-adv-x="1789" 
d="M1663 1018v-234q0 -260 -289 -260q-129 0 -209 58t-80 190v232q0 134 78 198t209 64t211 -58t80 -190zM1571 442v-41h-393v41h393zM1055 1372v-37h-82v-1335h-447l-278 1335h-29v-1298h148v-37h-281v37h82v1298h-82v37h528l279 -1335h29v1298h-99v37h232zM1415 604v582
q0 47 -40 47t-40 -49v-582q0 -45 40 -45t40 47z" />
    <glyph glyph-name="trademark" unicode="&#x2122;" horiz-adv-x="1759" 
d="M1645 653v-32h-357v32h62v809h-17l-96 -841h-293l-94 841h-16v-809h63v-32h-170v32h61v809h-61v33h406v-33h-62l105 -809h16l92 809h-59v33h420v-33h-60v-809h60zM686 1495v-248h-37v191h-139v-785h72v-32h-385v32h71v785h-141v-191h-37v248h596z" />
    <glyph glyph-name="Omega" unicode="&#x2126;" horiz-adv-x="1159" 
d="M1024 1014v-176q0 -356 -365 -394v-116h299v164h41v-492h-397v467q45 12 45 78v729q1 78 -67 78t-68 -84v-729q0 -63 45 -72v-467h-397v492h41v-164h299v116q-365 29 -365 371v172q0 401 449 402q200 0 320 -89t120 -286z" />
    <glyph glyph-name="estimated" unicode="&#x212e;" horiz-adv-x="1662" 
d="M1462 602h66q0 -618 -696 -618t-697 585v191q0 629 692 629q313 1 499 -139t185 -447v-55h-1015v-668q139 -47 333 -47q309 0 471 134t162 435zM496 801h655v491q-133 47 -330 47t-325 -51v-487z" />
    <glyph glyph-name="partialdiff" unicode="&#x2202;" horiz-adv-x="1089" 
d="M967 829v-475q0 -370 -422 -370t-422 374v127q0 135 57 204t205 69t221 -109h4v568q0 117 -43 165q-80 89 -329 93v36q350 -12 540 -169t189 -513zM610 94v469q0 29 -16 53t-49 23q-61 0 -62 -78v-463q-1 -78 63 -78t64 74z" />
    <glyph glyph-name="Delta" unicode="&#x2206;" horiz-adv-x="1060" 
d="M348 1335l-198 -1261h423l-196 1261h-29zM963 0h-877v25l217 1347h442l218 -1347v-25z" />
    <glyph glyph-name="product" unicode="&#x220f;" horiz-adv-x="1232" 
d="M98 1372h1037v-37h-91v-1667h91v-37h-459v1667h-119v-1667h-459v37h90v1667h-90v37z" />
    <glyph glyph-name="summation" unicode="&#x2211;" horiz-adv-x="1064" 
d="M967 283v-652h-881v37h90l393 635l-393 1032h-90v37h852v-311h-45v221h-324l260 -668l-389 -634h482v303h45z" />
    <glyph glyph-name="minus" unicode="&#x2212;" horiz-adv-x="618" 
d="M565 649v-49h-512v49h512z" />
    <glyph glyph-name="radical" unicode="&#x221a;" horiz-adv-x="929" 
d="M98 608v37h283l84 -739h29l247 1544h54l-256 -1573h-269l-98 731h-74z" />
    <glyph glyph-name="infinity" unicode="&#x221e;" horiz-adv-x="1007" 
d="M872 696v-125q0 -84 -49 -132t-123 -48t-163 60l-95 63l-69 -76q-43 -47 -103 -47t-97 37q-38 37 -38 94v125q0 84 49 132t123 48t162 -59l94 -63l72 75q43 47 102 47t98 -36q37 -38 37 -95zM739 614q35 0 59 24t25 59q0 36 -23 61q-24 24 -64 24t-81 -45l-51 -57l53 -35
q47 -31 82 -31zM268 604q-36 0 -60 -24t-24 -59q0 -37 24 -61t64 -24t80 45l51 58l-53 34q-47 31 -82 31z" />
    <glyph glyph-name="integral" unicode="&#x222b;" horiz-adv-x="1347" 
d="M1212 1141v-223h-278v391q0 43 -37 43q-45 0 -45 -56v-1187q0 -179 -102 -265t-285 -86q-330 0 -330 248v236h279v-404q0 -43 37 -43q45 0 45 55v1188q0 178 102 264t285 87q329 0 329 -248z" />
    <glyph glyph-name="approxequal" unicode="&#x2248;" horiz-adv-x="626" 
d="M432 485q-45 0 -120 31t-115 31q-78 0 -144 -66v49q66 66 146 66q43 0 117 -31t118 -30q73 -1 139 65v-49q-57 -66 -141 -66zM432 651q-45 0 -120 31t-115 31q-78 0 -144 -66v49q66 66 146 66q43 0 117 -31t118 -31q73 0 139 66v-49q-57 -66 -141 -66z" />
    <glyph glyph-name="notequal" unicode="&#x2260;" horiz-adv-x="626" 
d="M573 731v-49h-208q-9 -24 -48 -115h256v-49h-274l-88 -215h-55l88 215h-191v49h209l45 115h-254v49h275l88 215h55l-88 -215h190z" />
    <glyph glyph-name="lessequal" unicode="&#x2264;" horiz-adv-x="614" 
d="M557 362v-49h-516v49h516zM121 627v-4l440 -136v-53l-520 164v53l520 164v-53z" />
    <glyph glyph-name="greaterequal" unicode="&#x2265;" horiz-adv-x="614" 
d="M494 623v4l-441 135v53l520 -164v-53l-520 -164l4 53zM57 313v49h516v-49h-516z" />
    <glyph glyph-name="lozenge" unicode="&#x25ca;" horiz-adv-x="643" 
d="M330 98l202 527l-202 526h-17l-202 -526l202 -527h17zM270 1184h103l221 -559l-221 -559h-103l-221 559z" />
    <glyph glyph-name="commaaccent" unicode="&#xf6c3;" horiz-adv-x="1142" 
d="M562 -268q-50 0 -77 28t-27 70q0 41 32 69q32 27 79 27t83 -34t36 -110t-64 -125q-64 -50 -171 -50v33q178 4 180 127h-4q-17 -35 -67 -35z" />
    <glyph glyph-name="grave.case" horiz-adv-x="1142" 
d="M725 1462l-403 74l51 115l364 -170z" />
    <glyph glyph-name="dieresis.case" horiz-adv-x="1142" 
d="M842 1551q0 -39 -29 -67t-68 -28t-67 28t-27 68q0 40 28 67q27 26 67 26t68 -27t28 -67zM492 1551q0 -39 -29 -67t-68 -28t-67 28t-27 68q0 40 28 67q29 26 67 26t67 -27t29 -67z" />
    <glyph glyph-name="macron.case" horiz-adv-x="1142" 
d="M834 1573v-66h-525v66h525z" />
    <glyph glyph-name="acute.case" horiz-adv-x="1142" 
d="M819 1536l-403 -74l-13 19l365 170z" />
    <glyph glyph-name="circumflex.case" horiz-adv-x="1142" 
d="M573 1548h-4l-223 -102l-16 16l223 189h37l221 -189l-16 -16z" />
    <glyph glyph-name="caron.case" horiz-adv-x="1142" 
d="M569 1556h4l222 103l16 -17l-221 -188h-37l-223 188l16 17z" />
    <glyph glyph-name="breve.case" horiz-adv-x="1142" 
d="M571 1540q172 0 201 111h27q-13 -89 -69 -141t-158 -52t-159 52q-56 52 -69 141h27q28 -111 200 -111z" />
    <glyph glyph-name="dotaccent.case" horiz-adv-x="1142" 
d="M672 1561q0 -43 -30 -73t-72 -30t-72 29t-29 73q0 44 29 72q30 28 72 27q42 1 72 -27t30 -71z" />
    <glyph glyph-name="ring.case" horiz-adv-x="1142" 
d="M743 1618q0 -76 -50 -124t-124 -48t-122 47t-48 124t48 123t122 46t124 -46t50 -122zM645 1565v106q0 47 -14 71q-13 24 -59 24t-60 -26q-14 -24 -14 -73v-106q0 -47 14 -71t59 -24t60 25q14 25 14 74z" />
    <glyph glyph-name="tilde.case" horiz-adv-x="1142" 
d="M670 1470q-57 0 -115 35l-66 39q-33 18 -63 19q-59 0 -74 -60l-6 -24l-24 6l10 39q31 121 141 121q51 0 115 -35l65 -39q27 -19 75 -19t63 60l6 24l24 -6l-10 -39q-31 -121 -141 -121z" />
    <glyph glyph-name="hungarumlaut.case" horiz-adv-x="1142" 
d="M907 1544l-354 -102l-12 18l307 191zM600 1544l-354 -102l-13 18l308 191z" />
    <glyph glyph-name="caron.salt" horiz-adv-x="1142" 
d="M684 1370q0 -74 -61 -122t-166 -48v25q180 4 180 147h-4q-13 -47 -65 -47t-79 28q-27 29 -27 67t32 65t76 27t79 -34t35 -108z" />
    <glyph glyph-name="commaaccent.salt" horiz-adv-x="1142" 
d="M578 1661q48 0 76 -29q28 -30 28 -70t-32 -68t-79 -28t-83 34t-36 110t65 126t171 50v-33q-178 -4 -180 -127h4q18 35 66 35z" />
    <glyph glyph-name="zeroslash" horiz-adv-x="1105" 
d="M487 1272v-647l131 227v424q0 76 -66 76t-65 -80zM618 100v648l-131 -228v-424q-1 -76 65 -76t66 80zM983 1026v-659q0 -383 -430 -383t-430 362v655q0 199 114 293q115 94 315 94t316 -86t115 -276z" />
    <glyph glyph-name="zeroslash.osf" horiz-adv-x="1097" 
d="M614 100v539l-131 -168v-375q-1 -76 65 -76t66 80zM483 1087v-540l131 170v375q0 76 -65 75q-66 0 -66 -80zM975 846v-484q0 -378 -426 -378t-426 358v479q0 383 426 383t426 -358z" />
    <glyph glyph-name="zero.osf" horiz-adv-x="1097" 
d="M975 846v-484q0 -378 -426 -378t-426 358v479q0 383 426 383t426 -358zM614 100v992q0 76 -65 75q-66 0 -66 -80v-991q-1 -76 65 -76t66 80z" />
    <glyph glyph-name="one.osf" horiz-adv-x="794" 
d="M700 37v-37h-573v37h111v934h-111v37h82q203 0 251 44q63 58 72 160h58v-1175h110z" />
    <glyph glyph-name="two.osf" horiz-adv-x="1089" 
d="M954 487v-487h-839v299q0 94 26 127q27 33 121 84l168 90q68 37 92 56q56 43 58 198v240q0 74 -64 73q-61 0 -61 -71v-383h-324v172q0 319 375 319q194 0 312 -89t118 -275v-47q0 -135 -74 -193t-237 -90l-320 -66q-86 -18 -116 -40t-29 -72v-21h753v176h41z" />
    <glyph glyph-name="three.osf" 
d="M942 281v-52q0 -369 -430 -368q-389 0 -389 319v139h323v-348q0 -74 62 -73q74 0 74 84v440q0 68 -28 98t-93 31h-101v37h107q59 0 83 30t23 91v387q0 72 -61 71q-57 0 -57 -69v-312h-308v111q0 307 371 307q401 0 402 -325v-27q0 -142 -79 -202t-220 -75v-4
q149 -14 235 -77t86 -213z" />
    <glyph glyph-name="four.osf" horiz-adv-x="1097" 
d="M987 504v-426h-41v160h-135v-361h-352v361h-398v24l324 926h426v-860h135v176h41zM459 328v823h-29l-287 -823h316z" />
    <glyph glyph-name="five.osf" horiz-adv-x="1081" 
d="M952 387v-158q0 -369 -430 -368q-389 0 -389 319v107h324v-316q0 -74 61 -73q74 0 74 84v518q0 72 -28 102t-91 29q-115 0 -189 -82t-73 -143h-45v782h729v-467h-41v139h-639v-336h4q102 164 365 164q368 0 368 -301z" />
    <glyph glyph-name="six.osf" horiz-adv-x="1081" 
d="M958 483v-129q0 -370 -418 -370t-417 368v580q0 201 117 298t319 97q350 0 350 -295v-114h-307v307q0 66 -55 65q-72 0 -72 -88v-563h4q74 115 238 115q129 0 185 -68t56 -203zM602 98v459q0 78 -61 78q-33 0 -49 -24t-17 -52v-465q-1 -74 63 -74t64 78z" />
    <glyph glyph-name="seven.osf" horiz-adv-x="933" 
d="M889 1188v-25l-430 -1286h-258l479 844l41 123h-594v-209h-41v553h803z" />
    <glyph glyph-name="eight.osf" horiz-adv-x="1089" 
d="M971 383v-43q0 -356 -426 -356t-426 333v43q0 285 313 314v4q-137 14 -214 76t-77 198v37q-1 338 403 338t404 -319v-33q0 -268 -291 -297v-4q147 -14 231 -78t83 -213zM602 760v463q0 68 -57 67q-57 0 -58 -71v-461q0 -63 58 -64q57 0 57 66zM610 96v492q0 70 -63 69
q-68 0 -68 -71v-492q-1 -74 65 -74t66 76z" />
    <glyph glyph-name="nine.osf" horiz-adv-x="1093" 
d="M971 836v-572q0 -205 -120 -304t-323 -99q-360 0 -360 301v121h324v-320q0 -66 55 -65q72 0 71 88v583h-4q-74 -115 -237 -114q-129 0 -186 67q-56 68 -56 203v109q0 371 418 371t418 -369zM618 649v445q0 74 -63 73q-63 0 -63 -77v-439q0 -78 61 -78q33 -1 49 23t16 53z
" />
    <glyph glyph-name="dollar.osf" horiz-adv-x="1048" 
d="M606 113v147q0 37 -2 54q-6 52 -57 77v-368q59 10 59 90zM451 1075v-131q0 -31 2 -48q5 -42 57 -71v340q-59 -10 -59 -90zM926 401v-67q0 -178 -96 -262t-279 -88v-164h-45v164q-274 6 -338 204h-4v-204h-41v385h328v-260q0 -78 59 -86v387l-207 104q-156 76 -156 293v70
q0 322 359 327v164h45v-164q258 -10 309 -205h4v205h41v-368h-299v243q0 78 -59 86v-358l217 -111q162 -82 162 -295z" />
    <glyph glyph-name="cent.osf" horiz-adv-x="1015" 
d="M459 315q0 -92 47 -133v850q-47 -12 -47 -82v-635zM881 473v-63q0 -307 -338 -314v-235h-37v235q-178 4 -285 87q-106 83 -106 261v265q0 182 106 272t281 90h4v195h37v-197q207 -16 284 -174h4v176h41v-426h-282v318q0 61 -47 69v-872q31 -10 71 -10q109 0 165 72
t57 184v67h45z" />
    <glyph glyph-name="sterling.osf" horiz-adv-x="1134" 
d="M1004 561v-561h-893v348q31 8 49 22q30 23 33 134v196h-82v41h82v209q0 190 110 284q111 93 303 93q262 0 328 -180h4v180h41v-446h-303v342q0 68 -58 67q-66 0 -65 -80v-469h233v-41h-233v-4q0 -194 -82 -260t-289 -88v-4h781v217h41z" />
    <glyph glyph-name="Euro.osf" horiz-adv-x="1114" 
d="M1008 401v-88q0 -330 -373 -329q-195 0 -313 86t-117 278v123h-107v41h107v102h-107v41h107v172q0 190 109 284q110 93 302 93q272 0 330 -188h4v188h41v-446h-303v342q0 68 -57 67q-66 0 -66 -80v-432h234v-41h-234v-102h234v-41h-234v-260q0 -174 164 -174
q113 0 173 77t61 199v88h45z" />
    <glyph glyph-name="yen.osf" horiz-adv-x="983" 
d="M844 262v-41h-174v-184h86v-37h-525v37h86v184h-174v41h174v103h-174v41h174v71l-182 674h-74v37h533v-37h-90l139 -545h4l148 545h-90v37h225v-37h-76l-184 -674v-71h174v-41h-174v-103h174z" />
    <glyph glyph-name="florin.osf" horiz-adv-x="1073" 
d="M98 578v36h164l-4 7q-86 129 -86 266v104q0 172 98 254t273 82q250 0 297 -168h4v168h41v-450h-279v370q0 43 -37 43q-45 0 -45 -55v-264q0 -88 45 -158l131 -199h258v-36h-234l17 -27q6 -10 53 -77q91 -130 91 -275v-105q-1 -172 -99 -254t-272 -82q-250 0 -297 168h-4
v-168h-41v451h279v-371q0 -43 36 -43q45 0 45 55v265q0 90 -45 155l-201 308h-188z" />
    <glyph glyph-name="numero.osf" horiz-adv-x="1753" 
d="M1626 838v-226q0 -256 -285 -256q-129 0 -207 58t-77 186v223q0 131 78 195q79 64 207 63q128 0 206 -57t78 -186zM1538 283v-41h-393v41h393zM1026 1188v-37h-82v-1151h-438l-262 1151h-29v-1114h98v-37h-227v37h82v1114h-82v37h520l262 -1151h29v1114h-98v37h227z
M1382 436v565q0 47 -39 48q-41 0 -40 -50v-565q-1 -45 39 -45t40 47z" />
    <glyph glyph-name="currency.osf" horiz-adv-x="1089" 
d="M547 334q-121 0 -209 76l-96 -97l-37 37l96 99q-59 77 -59 195t75 200l-112 112l37 37l114 -114q80 61 189 61t188 -61l115 114l37 -37l-113 -112q74 -84 74 -200t-60 -193l99 -101l-37 -37l-98 97q-82 -76 -203 -76zM793 640q0 114 -69 182q-70 68 -180 69
q-110 0 -180 -72q-70 -71 -69 -183q0 -112 69 -182q70 -70 182 -71t180 71t67 186z" />
    <glyph glyph-name="numbersign.osf" horiz-adv-x="1081" 
d="M444 791l-61 -279h254l61 279h-254zM686 512h164l-47 -221h-164l-64 -291h-49l64 291h-254l-64 -291h-49l64 291h-164l47 221h164l61 279h-164l48 221h163l39 176h49l-38 -176h253l39 176h50l-39 -176h163l-47 -221h-163z" />
    <glyph glyph-name="percent.osf" horiz-adv-x="1484" 
d="M1362 422v-195q0 -243 -272 -243t-273 231v191q1 246 273 246t272 -230zM838 1188h49l-221 -1188h-50zM668 885v-195q0 -244 -272 -244t-273 232v190q1 246 273 246t272 -229zM1133 63v510q0 49 -43 50q-43 0 -43 -52v-510q0 -49 43 -49t43 51zM438 526v510q0 49 -43 49
t-43 -51v-510q0 -49 43 -49t43 51z" />
    <glyph glyph-name="perthousand.osf" horiz-adv-x="2127" 
d="M2005 422v-195q0 -243 -272 -243t-273 231v191q0 246 272 246t273 -230zM1776 63v510q0 49 -43 50q-43 0 -43 -52v-510q0 -49 43 -49t43 51zM1362 422v-195q0 -243 -272 -243t-273 231v191q1 246 273 246t272 -230zM838 1188h49l-221 -1188h-50zM668 885v-195
q0 -244 -272 -244t-273 232v190q1 246 273 246t272 -229zM1133 63v510q0 49 -43 50q-43 0 -43 -52v-510q0 -49 43 -49t43 51zM438 526v510q0 49 -43 49t-43 -51v-510q0 -49 43 -49t43 51z" />
    <glyph glyph-name="published" horiz-adv-x="1624" 
d="M1489 694q1 -315 -189 -513q-190 -197 -491 -197t-487 196t-186 514t182 506q184 188 492 188t494 -189q186 -190 185 -505zM1440 694q0 299 -171 476q-171 178 -461 178t-457 -174t-167 -476t171 -488q171 -185 453 -185t457 185t175 484zM1143 899v-184
q0 -227 -258 -228h-84v-204h88v-33h-395v33h65v809h-65v32h376q273 0 273 -225zM885 575v465q0 51 -49 52h-35v-572h35q49 0 49 55z" />
    <glyph glyph-name="comma.superior" horiz-adv-x="448" 
d="M210 598q-38 0 -63 25t-25 67t29 67q27 25 71 25t74 -32t30 -108q0 -75 -64 -128t-160 -53v31q66 0 114 36t56 95h-4q-20 -25 -58 -25z" />
    <glyph glyph-name="hyphen.superior" horiz-adv-x="565" 
d="M459 1071v-82h-361v82h361z" />
    <glyph glyph-name="period.superior" horiz-adv-x="464" 
d="M322 686q0 -43 -28 -71q-28 -27 -70 -27t-70 26t-27 71q0 44 27 71q28 26 70 26t70 -26t28 -70z" />
    <glyph glyph-name="slash.superior" horiz-adv-x="249" 
d="M168 1540h49l-168 -1085h-49z" />
    <glyph glyph-name="a.superior" horiz-adv-x="749" 
d="M248 588q-80 0 -117 38t-37 119v54q0 90 33 132t113 58l82 19q76 16 75 69v180q0 45 -32 46q-47 0 -48 -60v-168h-204v258h37v-123h4q59 123 225 123q258 0 258 -190v-463q0 -41 22 -41q33 0 33 61v144h37v-142q0 -66 -35 -90t-108 -24q-127 0 -156 86h-4
q-45 -86 -178 -86zM397 707v294h-4q-5 -9 -37 -18q-31 -10 -30 -49v-225q0 -47 36 -47t35 45z" />
    <glyph glyph-name="b.superior" horiz-adv-x="739" 
d="M641 1163v-344q0 -231 -268 -231q-168 0 -248 119h-4v-109h-37v932h-55v31h295v-285h4q51 57 147 57q166 0 166 -170zM397 666v542q0 47 -37 47t-36 -47v-544q0 -45 36 -46q37 1 37 48z" />
    <glyph glyph-name="c.superior" horiz-adv-x="681" 
d="M578 1217v116h36v-303h-204v234q0 39 -33 39t-33 -48v-532q0 -98 96 -98q72 0 108 45t36 118v72h37v-69q0 -203 -244 -203q-279 0 -279 225v287q0 117 73 175t194 58q151 1 208 -116h5z" />
    <glyph glyph-name="d.superior" horiz-adv-x="751" 
d="M711 629v-31h-295v49h-4q-51 -59 -150 -59q-164 0 -164 172v403q0 170 164 170q98 0 150 -57h4v254h-64v31h303v-932h56zM416 717v491q0 47 -37 47t-37 -47v-491q0 -47 37 -47t37 47z" />
    <glyph glyph-name="e.superior" horiz-adv-x="727" 
d="M641 860v-53q0 -219 -269 -219t-270 225v293q0 227 266 227t267 -213v-151h-287v-246q0 -98 96 -98q76 0 118 51t42 127v57h37zM348 1004h76v253q0 45 -37 46q-39 0 -39 -50v-249z" />
    <glyph glyph-name="f.superior" horiz-adv-x="526" 
d="M571 1417v-33h-188v129q0 27 -18 27q-25 0 -25 -33v-184h197v-35h-197v-659h78v-31h-373v31h55v659h-55v35h55v31q0 217 254 217q217 0 217 -154z" />
    <glyph glyph-name="g.superior" horiz-adv-x="714" 
d="M590 1204v80q0 57 25 86q26 29 92 29v-158q-43 0 -61 -12t-19 -49v-131q0 -229 -271 -230h-131q-49 0 -49 -29t41 -28h246q213 0 213 -172q0 -127 -83 -182q-83 -56 -191 -56t-175 14q-65 14 -111 54q-46 41 -46 110v5h235v-17q1 -82 21 -110t92 -27q139 0 139 117
q0 47 -20 64t-68 18h-143q-148 0 -193 34t-45 101q0 128 137 137v4q-139 41 -139 193v53q0 231 270 231q178 0 230 -129h4zM385 891v373q0 39 -29 39t-28 -41v-373q0 -39 28 -39t29 41z" />
    <glyph glyph-name="h.superior" horiz-adv-x="745" 
d="M348 1276h4q52 57 142 57t124 -40t35 -119v-545h56v-31h-295v619q0 39 -27 38q-19 0 -29 -14t-10 -33v-610h-295v23h56v909h-56v31h295v-285z" />
    <glyph glyph-name="i.superior" horiz-adv-x="501" 
d="M252 1577q43 0 71 -24q27 -25 27 -65t-28 -66t-70 -26q-43 0 -70 26t-26 67q0 41 26 65t70 23zM428 629v-31h-350v31h55v663h-55v31h295v-694h55z" />
    <glyph glyph-name="j.superior" horiz-adv-x="483" 
d="M236 1577q42 0 70 -24q28 -25 28 -65t-28 -66t-70 -26t-70 26q-27 26 -27 67t27 65t70 23zM356 1323v-721q0 -123 -54 -181t-179 -59h-111v31h21q47 0 65 25t19 74v800h-56v31h295z" />
    <glyph glyph-name="k.superior" horiz-adv-x="761" 
d="M737 854v-152q0 -63 -35 -89t-106 -25q-176 0 -176 135v240q0 55 -45 55h-10v-389h41v-31h-336v31h55v901h-55v31h295v-510h32l211 245h-78v27h193v-27h-59l-213 -245q106 0 150 -27t44 -123v-221q0 -41 21 -41q35 0 34 61v154h37z" />
    <glyph glyph-name="l.superior" horiz-adv-x="403" 
d="M387 629v-31h-350v31h55v901h-55v31h295v-932h55z" />
    <glyph glyph-name="m.superior" horiz-adv-x="1067" 
d="M360 598h-294v31h55v663h-55v31h294v-47h5q51 57 149 57t135 -67h4q49 68 147 68t132 -41q35 -40 35 -119v-545h55v-31h-297v619q0 39 -23 38q-39 0 -38 -47v-610h-240v619q0 39 -25 38q-37 0 -39 -47v-610z" />
    <glyph glyph-name="o.superior" horiz-adv-x="751" 
d="M657 1108v-283q1 -237 -281 -237t-282 225v281q0 240 282 240t281 -226zM410 664v593q0 45 -35 46q-35 0 -35 -48v-593q0 -43 35 -44q35 1 35 46z" />
    <glyph glyph-name="p.superior" horiz-adv-x="747" 
d="M37 1292v31h295v-49h4q51 59 149 59q164 0 164 -172v-403q0 -170 -164 -170q-98 0 -149 57h-4v-252h67v-31h-362v31h55v899h-55zM332 1204v-491q0 -47 37 -47t37 47v491q0 47 -37 47t-37 -47z" />
    <glyph glyph-name="q.superior" horiz-adv-x="747" 
d="M711 362h-359v31h64v252h-4q-51 -57 -148 -57q-166 0 -166 170v344q0 231 269 231q168 0 247 -119h4v109h37v-930h56v-31zM342 1255v-542q0 -47 37 -47t37 47v544q0 45 -37 46q-37 -1 -37 -48z" />
    <glyph glyph-name="r.superior" horiz-adv-x="681" 
d="M356 1276h4q48 57 134 57t116 -35t31 -110v-184h-227v213q0 39 -23 38q-14 0 -24 -13t-11 -30v-583h78v-31h-373v31h56v663h-56v31h295v-47z" />
    <glyph glyph-name="s.superior" horiz-adv-x="724" 
d="M582 1227v106h36v-223h-223v147q0 45 -33 46q-35 0 -34 -50v-79q0 -55 37 -72l161 -80q113 -57 113 -182v-39q0 -213 -266 -213q-170 0 -221 117h-5v-117h-36v235h227v-159q0 -45 35 -46q37 0 37 46v102q0 57 -39 76l-162 80q-98 47 -98 163v48q0 201 254 200
q92 1 141 -21t72 -85h4z" />
    <glyph glyph-name="t.superior" horiz-adv-x="503" 
d="M479 891v-162q0 -82 -43 -112q-43 -29 -138 -29t-151 40q-55 40 -55 152v508h-55v35h72q156 0 174 141h49v-141h135v-35h-135v-575q0 -80 47 -80q63 0 63 102v156h37z" />
    <glyph glyph-name="u.superior" horiz-adv-x="720" 
d="M397 1292h-24v31h264v-694h55v-31h-295v47h-4q-51 -57 -147 -57q-154 0 -154 160v544h-55v31h295v-616q0 -41 26 -41q18 0 29 14q10 14 10 33v579z" />
    <glyph glyph-name="v.superior" horiz-adv-x="620" 
d="M457 1292v31h159v-31h-47l-96 -694h-309l-105 694h-47v31h361v-31h-62l99 -663h20l90 663h-63z" />
    <glyph glyph-name="w.superior" horiz-adv-x="983" 
d="M20 1292v31h322v-31h-43l82 -663h20l72 545l-18 118h-39v31h329v-31h-59l90 -663h21l77 663h-55v31h152v-31h-47l-86 -694h-285l-55 395h-4l-52 -395h-284l-90 694h-48z" />
    <glyph glyph-name="x.superior" horiz-adv-x="616" 
d="M190 629v-31h-157v31h49l88 385l-78 278h-49v31h352v-31h-55l74 -280h4l63 280h-53v31h154v-31h-50l-83 -348l94 -315h49v-31h-352v31h57l-90 313h-4l-70 -313h57z" />
    <glyph glyph-name="y.superior" horiz-adv-x="624" 
d="M233 362h-86v142h193q49 0 68 12q18 12 24 57l4 25h-260l-104 694h-47v31h360v-31h-61l98 -663h20l90 663h-63v31h160v-31h-47l-105 -757q-14 -109 -68 -141t-176 -32z" />
    <glyph glyph-name="z.superior" horiz-adv-x="559" 
d="M518 1323v-14l-227 -660h178v180h39v-231h-479v14l227 660h-166v-150h-37v201h465z" />
    <glyph glyph-name="plus.inferior" horiz-adv-x="471" 
d="M438 127h-176v-176h-53v176h-176v53h176v176h53v-176h176v-53z" />
    <glyph glyph-name="comma.inferior" horiz-adv-x="448" 
d="M210 -246q-38 0 -63 25t-25 67t29 67q27 26 71 26t74 -33q30 -34 30 -108t-64 -128t-160 -53v31q66 0 114 36t56 95h-4q-20 -25 -58 -25z" />
    <glyph glyph-name="hyphen.inferior" horiz-adv-x="565" 
d="M459 227v-82h-361v82h361z" />
    <glyph glyph-name="period.inferior" horiz-adv-x="464" 
d="M322 -158q0 -42 -28 -70t-70 -28t-70 27t-27 71q0 44 27 70q28 27 70 27t70 -27t28 -70z" />
    <glyph glyph-name="slash.inferior" horiz-adv-x="249" 
d="M168 696h49l-168 -1085h-49z" />
    <glyph glyph-name="parenleft.numerator" horiz-adv-x="538" 
d="M139 846q0 498 322 534v-30q-61 -6 -91 -31t-30 -80v-786q0 -55 30 -80t91 -31v-31q-322 37 -322 535z" />
    <glyph glyph-name="parenright.numerator" horiz-adv-x="538" 
d="M199 453v786q0 55 -30 80t-91 31v30q322 -36 322 -534t-322 -535v31q61 6 91 31t30 80z" />
    <glyph glyph-name="plus.numerator" horiz-adv-x="471" 
d="M438 819h-176v-176h-53v176h-176v53h176v177h53v-177h176v-53z" />
    <glyph glyph-name="comma.numerator" horiz-adv-x="448" 
d="M210 446q-38 0 -63 25t-25 67t29 68q27 26 71 25q44 0 74 -33q30 -34 30 -108t-64 -128t-160 -53v31q66 0 114 36t56 95h-4q-20 -25 -58 -25z" />
    <glyph glyph-name="hyphen.numerator" horiz-adv-x="565" 
d="M459 920v-82h-361v82h361z" />
    <glyph glyph-name="period.numerator" horiz-adv-x="464" 
d="M322 535q0 -43 -28 -71t-70 -28t-70 27t-27 71q0 44 27 70q28 26 70 27q42 -1 70 -27t28 -69z" />
    <glyph glyph-name="slash.numerator" horiz-adv-x="249" 
d="M168 1389h49l-168 -1086h-49z" />
    <glyph glyph-name="zero.numerator" horiz-adv-x="790" 
d="M688 1106v-422q0 -248 -293 -248t-293 234v420q0 250 293 250t293 -234zM432 514v748q0 47 -37 47t-37 -49v-748q0 -45 37 -45t37 47z" />
    <glyph glyph-name="one.numerator" horiz-adv-x="555" 
d="M481 477v-31h-375v31h68v678h-68v31h64q86 0 136 35t61 122h59v-866h55z" />
    <glyph glyph-name="two.numerator" horiz-adv-x="788" 
d="M674 809v-363h-580v207q0 81 50 120q19 15 79 54l103 68q55 37 68 63t14 80v226q0 45 -36 45t-36 -43v-260h-232v124q0 209 277 209t276 -223v-80q0 -57 -13 -94q-13 -38 -49 -62t-70 -35t-103 -30l-143 -37q-82 -20 -112 -38t-32 -62v-4h502v135h37z" />
    <glyph glyph-name="three.numerator" horiz-adv-x="759" 
d="M666 717v-37q0 -244 -297 -244q-266 0 -267 207v96h230v-227q0 -45 37 -45q43 0 43 51v295q0 82 -76 82h-76v31h80q66 0 66 75v265q0 43 -34 43t-34 -43v-203h-219v78q0 199 252 198q281 0 280 -217v-22q0 -160 -188 -187v-4q203 -18 203 -192z" />
    <glyph glyph-name="four.numerator" horiz-adv-x="768" 
d="M678 852v-283h-37v109h-80v-201h64v-31h-394v31h78v201h-268v16l211 635h309v-590h80v113h37zM309 739v559h-20l-185 -559h205z" />
    <glyph glyph-name="five.numerator" horiz-adv-x="784" 
d="M674 797v-117q0 -244 -297 -244q-266 0 -266 207v90h229v-221q0 -45 37 -45q43 0 43 51v350q0 82 -75 82t-123 -52t-48 -93h-39v524h502v-309h-37v96h-422v-215h4q74 90 236 90q256 1 256 -194z" />
    <glyph glyph-name="six.numerator" horiz-adv-x="796" 
d="M354 903h4q45 59 152 60q172 0 172 -177v-108q0 -242 -290 -242t-290 240v405q0 133 82 195t222 63q242 0 241 -192v-90h-219v211q0 41 -31 41q-43 0 -43 -58v-348zM428 514v326q0 49 -36 49t-38 -47v-330q0 -45 37 -45t37 47z" />
    <glyph glyph-name="seven.numerator" horiz-adv-x="653" 
d="M629 1329v-18l-264 -834h81v-31h-380v31h77l351 545l24 80h-403v-133h-37v360h551z" />
    <glyph glyph-name="eight.numerator" horiz-adv-x="782" 
d="M684 705v-35q0 -234 -293 -234t-293 219v35q0 176 197 209v4q-88 10 -135 51t-47 131v33q0 221 277 221t278 -211v-28q-1 -170 -181 -199v-4q93 -10 145 -53t52 -139zM422 956v310q0 43 -32 43t-32 -45v-310q0 -39 32 -39t32 41zM428 512v330q-4 43 -39 43t-35 -45v-328
q0 -45 37 -45t37 45z" />
    <glyph glyph-name="nine.numerator" horiz-adv-x="796" 
d="M442 883h-4q-45 -59 -151 -60q-172 0 -172 176v99q0 242 290 242t289 -240v-406q0 -133 -82 -195t-221 -63q-252 0 -252 193v100h230v-221q0 -41 30 -41q43 0 43 57v359zM369 1262v-316q0 -49 34 -49q18 0 29 14q10 14 10 33v320q0 45 -36 45t-37 -47z" />
    <glyph glyph-name="parenleft.denominator" horiz-adv-x="538" 
d="M139 400q0 498 322 534v-31q-61 -6 -91 -31t-30 -79v-787q0 -56 30 -80t91 -30v-31q-322 37 -322 535z" />
    <glyph glyph-name="parenright.denominator" horiz-adv-x="538" 
d="M199 6v787q0 55 -30 79t-91 31v31q322 -37 322 -535t-322 -534v31q61 6 91 30t30 80z" />
    <glyph glyph-name="plus.denominator" horiz-adv-x="471" 
d="M438 373h-176v-176h-53v176h-176v53h176v176h53v-176h176v-53z" />
    <glyph glyph-name="comma.denominator" horiz-adv-x="448" 
d="M210 0q-38 0 -63 25t-25 67t29 67q27 25 71 25t74 -32t30 -108q0 -75 -64 -128t-160 -53v31q66 0 114 36t56 95h-4q-20 -25 -58 -25z" />
    <glyph glyph-name="hyphen.denominator" horiz-adv-x="565" 
d="M459 473v-82h-361v82h361z" />
    <glyph glyph-name="period.denominator" horiz-adv-x="464" 
d="M322 88q0 -43 -28 -71q-28 -27 -70 -27t-70 26t-27 71q0 44 27 71q28 26 70 26t70 -26t28 -70z" />
    <glyph glyph-name="slash.denominator" horiz-adv-x="249" 
d="M168 942h49l-168 -1085h-49z" />
    <glyph glyph-name="zero.denominator" horiz-adv-x="790" 
d="M688 659v-421q0 -248 -293 -248t-293 233v420q0 249 293 249t293 -233zM432 68v747q0 47 -37 47t-37 -49v-747q0 -45 35 -46q39 1 39 48z" />
    <glyph glyph-name="one.denominator" horiz-adv-x="571" 
d="M481 31v-31h-375v31h68v678h-68v30h64q86 0 136 35t61 123h59v-866h55z" />
    <glyph glyph-name="two.denominator" horiz-adv-x="788" 
d="M674 362v-362h-580v207q0 81 50 120q19 15 79 54l103 68q55 37 68 63t14 80v225q0 45 -36 45t-36 -43v-260h-232v125q0 209 277 209t276 -223v-80q0 -57 -13 -94t-49 -62t-70 -36t-103 -29l-143 -37q-82 -20 -112 -38t-32 -63v-4h502v135h37z" />
    <glyph glyph-name="three.denominator" horiz-adv-x="759" 
d="M666 270v-37q0 -244 -297 -243q-266 0 -267 207v96h230v-227q0 -45 37 -46q43 0 43 52v295q0 82 -76 82h-76v30h80q66 0 66 76v264q0 43 -34 43t-34 -43v-203h-219v78q0 199 252 199q281 0 280 -217v-23q0 -159 -188 -186v-4q203 -18 203 -193z" />
    <glyph glyph-name="four.denominator" horiz-adv-x="768" 
d="M678 406v-283h-37v108h-80v-200h64v-31h-394v31h78v200h-268v17l211 635h309v-590h80v113h37zM309 293v559h-20l-185 -559h205z" />
    <glyph glyph-name="five.denominator" horiz-adv-x="784" 
d="M674 350v-117q0 -244 -297 -243q-266 0 -266 207v90h229v-221q0 -45 37 -46q43 0 43 52v350q0 82 -75 82t-123 -52t-48 -94h-39v525h502v-310h-37v97h-422v-215h4q74 90 236 90q256 0 256 -195z" />
    <glyph glyph-name="six.denominator" horiz-adv-x="796" 
d="M354 457h4q45 59 152 59q172 0 172 -176v-109q0 -241 -290 -241t-290 239v406q0 133 82 195t222 63q242 0 241 -193v-90h-219v211q0 41 -31 41q-43 0 -43 -57v-348zM428 393q0 49 -36 49t-38 -47v-329q0 -45 37 -46q37 1 37 48v325z" />
    <glyph glyph-name="seven.denominator" horiz-adv-x="653" 
d="M629 883v-19l-264 -833h81v-31h-380v31h77l351 544l24 80h-403v-133h-37v361h551z" />
    <glyph glyph-name="eight.denominator" horiz-adv-x="782" 
d="M684 258v-35q0 -233 -293 -233t-293 219v35q0 176 197 209v4q-88 10 -135 51t-47 131v33q0 221 277 221t278 -211v-29q-1 -169 -181 -198v-4q93 -9 145 -53t52 -140zM422 510v309q0 43 -32 43t-32 -45v-309q0 -39 32 -39t32 41zM428 66v329q-4 43 -39 43t-35 -45v-327
q0 -45 35 -46q39 1 39 46z" />
    <glyph glyph-name="nine.denominator" horiz-adv-x="796" 
d="M442 436h-4q-45 -59 -151 -59q-172 0 -172 176v98q0 242 290 242t289 -240v-405q0 -134 -82 -196t-221 -62q-252 0 -252 192v101h230v-222q0 -41 30 -41q43 0 43 58v358zM369 815v-315q0 -49 34 -49q18 0 29 14q10 14 10 33v319q0 45 -36 45t-37 -47z" />
    <glyph glyph-name="zeroslash.tf" horiz-adv-x="1077" 
d="M473 1272v-647l131 227v424q0 76 -66 76t-65 -80zM604 100v648l-131 -228v-424q-1 -76 65 -76t66 80zM109 1001q0 386 434 388q195 -1 311 -87t115 -276v-659q0 -383 -430 -383t-430 362v655z" />
    <glyph glyph-name="zero.tf" horiz-adv-x="1077" 
d="M109 1001q0 386 434 388q195 -1 311 -87t115 -276v-659q0 -383 -430 -383t-430 362v655zM604 100v1176q0 76 -66 76t-65 -80v-1176q-1 -76 65 -76t66 80z" />
    <glyph glyph-name="one.tf" horiz-adv-x="1077" 
d="M827 37v-37h-577v37h110v1077h-110v37h94q135 0 215 53t96 193h62v-1360h110z" />
    <glyph glyph-name="two.tf" horiz-adv-x="1077" 
d="M965 561v-561h-852v319q0 98 27 138q28 39 139 114q14 14 24 19l107 74q18 12 61 40t52 36q48 48 53 89q6 42 6 93v356q0 74 -62 74t-63 -72v-408h-328v193q0 324 391 324q422 0 422 -345v-124q0 -129 -40 -186q-24 -34 -54 -62q-41 -39 -256 -97l-215 -57
q-133 -36 -175 -64t-42 -102v-4h764v213h41z" />
    <glyph glyph-name="three.tf" horiz-adv-x="1077" 
d="M952 420v-60q0 -377 -438 -376q-389 0 -389 319v148h328v-357q0 -74 61 -74q74 0 74 84v469q0 68 -28 99t-93 30h-105v37h111q59 0 83 30t24 91v422q0 70 -60 70t-59 -70v-319h-311v118q0 307 368 308q412 0 412 -336v-37q0 -146 -80 -210t-223 -79v-4q153 -15 239 -81
t86 -222z" />
    <glyph glyph-name="four.tf" horiz-adv-x="1077" 
d="M1006 627v-434h-41v167h-136v-323h95v-37h-566v37h115v323h-401v25l327 987h430v-921h136v176h41zM473 451v884h-29l-290 -884h319z" />
    <glyph glyph-name="five.tf" horiz-adv-x="1077" 
d="M952 543v-183q0 -377 -438 -376q-389 0 -389 319v139h328v-348q0 -74 61 -74q74 0 74 84v551q0 72 -28 102t-91 29q-117 0 -191 -82t-75 -143h-43v811h735v-475h-41v143h-647v-360h4q106 166 367 166q374 0 374 -303z" />
    <glyph glyph-name="six.tf" horiz-adv-x="1077" 
d="M961 526v-168q0 -374 -422 -374t-422 370v633q0 205 119 303t321 99q354 0 354 -299v-136h-311v332q0 66 -55 66q-72 0 -72 -90v-578h4q76 115 238 115q131 0 189 -69t57 -204zM600 98v504q0 78 -61 78q-33 0 -49 -24t-17 -52v-510q-1 -74 63 -74t64 78z" />
    <glyph glyph-name="seven.tf" horiz-adv-x="1077" 
d="M944 1372v-24l-426 -1311h111v-37h-471v37h106l469 848l45 139h-604v-209h-41v557h811z" />
    <glyph glyph-name="eight.tf" horiz-adv-x="1077" 
d="M969 399v-55q0 -360 -430 -360t-430 340v53q1 163 83 237t234 88v5q-139 15 -217 79t-78 207v51q0 344 408 344t407 -325v-47q0 -281 -295 -309v-5q150 -14 234 -80t84 -223zM596 788v496q0 68 -57 68t-58 -72v-494q0 -63 58 -63q57 -1 57 65zM604 96v520q0 70 -63 70
q-68 0 -68 -72v-520q-1 -74 65 -74t66 76z" />
    <glyph glyph-name="nine.tf" horiz-adv-x="1077" 
d="M961 1018v-625q0 -209 -120 -309t-327 -100q-365 0 -364 305v145h327v-348q0 -66 55 -66q72 0 72 91v594h-4q-74 -115 -238 -115q-131 0 -188 68t-57 204v152q0 375 422 375t422 -371zM604 784v494q0 74 -63 74t-64 -78v-488q0 -78 62 -77q33 0 49 23t16 52z" />
    <glyph glyph-name="numbersign.tf" horiz-adv-x="1077" 
d="M440 905l-57 -307h254l57 307h-254zM686 598h168l-45 -238h-168l-68 -360h-49l68 360h-254l-68 -360h-49l68 360h-168l45 238h168l57 307h-168l45 238h168l43 229h49l-43 -229h254l43 229h49l-43 -229h168l-45 -238h-168z" />
    <glyph glyph-name="dollar.tf" horiz-adv-x="1077" 
d="M465 1198v-145q0 -82 59 -121v356q-59 -12 -59 -90zM621 174v162q0 49 -12 78q-11 29 -48 55v-387q60 10 60 92zM944 479v-80q0 -344 -379 -354v-164h-45v164q-279 6 -342 205h-4v-205h-41v393h332v-268q0 -78 59 -88v410l-209 129q-158 96 -157 297v77q0 326 362 332
v164h45v-164q262 -10 314 -205h4v205h41v-377h-303v252q0 78 -60 86v-379l219 -135q164 -100 164 -295z" />
    <glyph glyph-name="cent.tf" horiz-adv-x="1077" 
d="M502 465q0 -92 47 -133v874q-47 -10 -47 -82v-659zM924 643v-84q0 -307 -338 -313v-262h-37v262q-178 4 -287 88t-108 264v281q0 182 108 274q109 92 283 92h4v205h37v-207q205 -16 284 -174h4v176h41v-446h-282v338q0 61 -47 69v-897q31 -10 71 -10q109 0 165 72t57 184
v88h45z" />
    <glyph glyph-name="sterling.tf" horiz-adv-x="1077" 
d="M989 586v-586h-901v352q31 8 49 22q33 25 33 134v205h-82v41h82v256q0 194 112 286t306 93q268 0 332 -185h4v185h41v-467h-308v362q0 68 -57 68q-66 0 -65 -80v-518h270v-41h-270v-13q0 -197 -95 -266q-51 -37 -113 -54t-167 -28v-4h788v238h41z" />
    <glyph glyph-name="Euro.tf" horiz-adv-x="1077" 
d="M1006 422v-107q0 -332 -377 -331q-197 0 -316 88t-118 280v226h-123v40h123v103h-123v41h123v246q-1 192 111 286t308 95q270 0 330 -193h4v193h41v-467h-307v362q0 68 -61 68t-62 -80v-510h254v-41h-254v-103h254v-40h-254v-365q0 -176 166 -176q113 0 173 78t60 200
v107h48z" />
    <glyph glyph-name="yen.tf" horiz-adv-x="1077" 
d="M889 324v-41h-174v-246h86v-37h-529v37h86v246h-174v41h174v102h-174v41h174v84l-182 784h-74v37h535v-37h-90l137 -659h4l150 659h-90v37h227v-37h-76l-184 -784v-84h174v-41h-174v-102h174z" />
    <glyph glyph-name="florin.tf" horiz-adv-x="1077" 
d="M969 627h-244l55 -86q72 -111 94 -167t25 -151v-125q0 -172 -100 -256t-275 -84q-250 0 -297 168h-4v-168h-41v451h279v-371q0 -43 37 -43q45 0 45 55v285q0 84 -45 156l-215 336h-174v37h151l-6 10q-76 117 -76 250v125q0 172 100 256t275 84q250 0 297 -168h4v168h41
v-451h-279v371q0 43 -36 43q-45 0 -45 -56v-284q0 -88 45 -158l120 -190h269v-37z" />
    <glyph glyph-name="zeroslash.tosf" horiz-adv-x="1077" 
d="M604 100v539l-131 -168v-375q-1 -76 65 -76t66 80zM473 1087v-540l131 170v375q0 76 -65 75q-66 0 -66 -80zM965 846v-484q0 -378 -426 -378t-426 358v479q0 383 426 383t426 -358z" />
    <glyph glyph-name="zero.tosf" horiz-adv-x="1077" 
d="M965 846v-484q0 -378 -426 -378t-426 358v479q0 383 426 383t426 -358zM604 100v992q0 76 -65 75q-66 0 -66 -80v-991q-1 -76 65 -76t66 80z" />
    <glyph glyph-name="one.tosf" horiz-adv-x="1077" 
d="M825 37v-37h-573v37h110v934h-110v37h82q203 0 251 44q63 58 72 160h58v-1175h110z" />
    <glyph glyph-name="two.tosf" horiz-adv-x="1077" 
d="M958 487v-487h-839v299q0 94 26 127q27 33 121 84l168 90q68 37 92 56q56 43 58 198v240q0 74 -64 73q-61 0 -61 -71v-383h-324v172q0 319 375 319q194 0 312 -89t118 -275v-47q0 -135 -74 -193t-237 -90l-320 -66q-85 -18 -115 -40t-30 -72v-21h754v176h40z" />
    <glyph glyph-name="three.tosf" horiz-adv-x="1077" 
d="M948 281v-52q0 -369 -430 -368q-389 0 -389 319v139h324v-348q0 -74 61 -73q74 0 74 84v440q0 68 -28 98t-93 31h-100v37h106q59 0 83 30t24 91v387q0 72 -62 71q-57 0 -57 -69v-312h-307v111q0 307 370 307q401 0 402 -325v-27q0 -142 -79 -202t-220 -75v-4
q149 -14 235 -77t86 -213z" />
    <glyph glyph-name="four.tosf" horiz-adv-x="1077" 
d="M1001 504v-426h-40v160h-136v-361h-352v361h-397v24l323 926h426v-860h136v176h40zM473 328v823h-29l-286 -823h315z" />
    <glyph glyph-name="five.tosf" horiz-adv-x="1077" 
d="M948 387v-158q0 -369 -430 -368q-389 0 -389 319v107h324v-316q0 -74 61 -73q74 0 74 84v518q0 72 -28 102t-91 29q-115 0 -189 -82t-73 -143h-45v782h729v-467h-41v139h-639v-336h4q102 164 365 164q368 0 368 -301z" />
    <glyph glyph-name="six.tosf" horiz-adv-x="1077" 
d="M956 483v-129q0 -370 -418 -370t-417 368v580q0 201 117 298t319 97q350 0 350 -295v-114h-307v307q0 66 -55 65q-72 0 -72 -88v-563h4q74 115 238 115q129 0 185 -68t56 -203zM600 98v459q0 78 -61 78q-33 0 -49 -24t-17 -52v-465q-1 -74 63 -74t64 78z" />
    <glyph glyph-name="seven.tosf" horiz-adv-x="1077" 
d="M940 1188v-25l-430 -1286h-258l479 844l41 123h-594v-209h-41v553h803z" />
    <glyph glyph-name="eight.tosf" horiz-adv-x="1077" 
d="M965 383v-43q0 -356 -426 -356t-426 333v43q0 285 313 314v4q-137 14 -214 76t-77 198v37q-1 338 403 338t404 -319v-33q0 -268 -291 -297v-4q147 -14 231 -78t83 -213zM596 760v463q0 68 -57 67q-57 0 -58 -71v-461q0 -63 58 -64q57 0 57 66zM604 96v492q0 70 -63 69
q-68 0 -68 -71v-492q-1 -74 65 -74t66 76z" />
    <glyph glyph-name="nine.tosf" horiz-adv-x="1077" 
d="M956 836v-572q0 -205 -120 -304t-322 -99q-360 0 -360 301v121h323v-320q0 -66 55 -65q72 0 72 88v583h-4q-74 -115 -238 -114q-129 -1 -185 67t-56 203v109q-1 371 417 371t418 -369zM604 649v445q0 74 -63 73q-63 0 -64 -77v-439q0 -78 62 -78q33 -1 49 23t16 53z" />
    <glyph glyph-name="numbersign.tosf" horiz-adv-x="1077" 
d="M442 791l-61 -279h254l61 279h-254zM684 512h164l-47 -221h-164l-64 -291h-49l64 291h-254l-64 -291h-49l64 291h-164l47 221h164l61 279h-164l47 221h164l39 176h49l-39 -176h254l39 176h49l-38 -176h163l-47 -221h-164z" />
    <glyph glyph-name="dollar.tosf" 
d="M455 1198v-145q0 -82 59 -121v356q-59 -12 -59 -90zM610 174v162q0 49 -11 78t-48 55v-387q59 10 59 92zM934 479v-80q0 -344 -379 -354v-164h-45v164q-279 6 -342 205h-4v-205h-41v393h332v-268q0 -78 59 -88v410l-209 129q-158 96 -158 297v77q0 326 363 332v164h45
v-164q262 -10 313 -205h4v205h41v-377h-303v252q0 78 -59 86v-379l219 -135q164 -100 164 -295z" />
    <glyph glyph-name="cent.tosf" horiz-adv-x="1077" 
d="M500 315q0 -92 47 -133v850q-47 -12 -47 -82v-635zM922 473v-63q0 -307 -338 -314v-235h-37v235q-178 4 -285 87q-106 83 -106 261v265q0 182 106 272t281 90h4v195h37v-197q207 -16 284 -174h4v176h41v-426h-282v318q0 61 -47 69v-872q31 -10 71 -10q109 0 165 72
t57 184v67h45z" />
    <glyph glyph-name="sterling.tosf" horiz-adv-x="1077" 
d="M985 561v-561h-893v348q31 8 49 22q33 25 33 134v196h-82v41h82v209q0 190 111 284t303 93q262 0 327 -180h5v180h41v-446h-304v342q0 68 -57 67q-66 0 -65 -80v-469h233v-41h-233v-4q0 -194 -82 -260t-289 -88v-4h780v217h41z" />
    <glyph glyph-name="Euro.tosf" horiz-adv-x="1077" 
d="M993 401v-88q0 -330 -372 -329q-195 0 -313 86t-118 278v123h-106v41h106v102h-106v41h106v172q0 189 110 283t302 94q272 0 330 -188h4v188h41v-446h-303v342q0 68 -58 67q-66 0 -65 -80v-432h233v-41h-233v-102h233v-41h-233v-260q0 -174 164 -174q113 0 173 77t60 199
v88h45z" />
    <glyph glyph-name="yen.tosf" horiz-adv-x="1077" 
d="M887 262v-41h-174v-184h86v-37h-525v37h86v184h-174v41h174v103h-174v41h174v71l-182 674h-74v37h533v-37h-90l139 -545h4l148 545h-90v37h225v-37h-76l-184 -674v-71h174v-41h-174v-103h174z" />
    <glyph glyph-name="florin.tosf" horiz-adv-x="1077" 
d="M109 578v36h163l-4 7q-86 129 -86 266v104q0 172 98 254t273 82q250 0 297 -168h4v168h41v-450h-279v370q0 43 -36 43q-45 0 -45 -55v-264q0 -88 45 -158l130 -199h259v-36h-235l18 -27q6 -10 53 -78q90 -131 90 -274v-105q0 -172 -98 -254t-273 -82q-250 0 -297 168h-4
v-168h-41v451h279v-371q0 -43 37 -43q45 0 45 55v265q0 90 -45 155l-202 308h-187z" />
    </font>
</defs>
</svg>
